<svg width="537" height="537" viewBox="0 0 537 537" fill="none" xmlns="http://www.w3.org/2000/svg">
<g clip-path="url(#clip0_1016_2)">
<path d="M496.785 152.779C493.48 127.694 480.236 100.845 457.959 78.574C435.695 56.309 408.852 43.066 383.773 39.761C372.425 38.262 357.273 31.995 348.191 25.024C328.111 9.626 299.764 0 268.27 0C236.776 0 208.429 9.626 188.349 25.024C179.267 31.989 164.114 38.262 152.767 39.761C127.687 43.066 100.845 56.31 78.58 78.574C56.303 100.845 43.059 127.693 39.755 152.779C38.262 164.126 31.989 179.273 25.024 188.349C9.621 208.422 0 236.776 0 268.27C0 299.764 9.621 328.117 25.024 348.191C31.995 357.273 38.262 372.414 39.755 383.759C43.06 408.845 56.303 435.695 78.58 457.964C100.845 480.23 127.687 493.474 152.767 496.778C164.114 498.276 179.267 504.549 188.349 511.514C208.422 526.912 236.77 536.539 268.27 536.539C299.77 536.539 328.111 526.912 348.191 511.514C357.273 504.549 372.425 498.276 383.773 496.778C408.851 493.473 435.695 480.229 457.959 457.964C480.236 435.694 493.48 408.845 496.785 383.759C498.277 372.413 504.551 357.267 511.515 348.191C526.919 328.117 536.54 299.769 536.54 268.27C536.54 236.776 526.919 208.422 511.515 188.349C504.545 179.273 498.277 164.126 496.785 152.779ZM439.256 180.43L246.477 373.209L215.632 404.055C207.113 412.575 193.306 412.575 184.787 404.055L153.942 373.209L97.277 316.551C88.758 308.031 88.758 294.225 97.277 285.705L128.122 254.861C136.641 246.342 150.448 246.342 158.967 254.861L200.204 296.097L377.561 118.74C386.081 110.221 399.887 110.221 408.407 118.74L439.251 149.585C447.775 158.104 447.775 171.917 439.256 180.43Z" fill="#006EFF"/>
</g>
<defs>
<clipPath id="clip0_1016_2">
<rect width="536.541" height="536.541" fill="white"/>
</clipPath>
</defs>
</svg>
