<svg width="200" height="150" viewBox="0 0 200 150" fill="none" xmlns="http://www.w3.org/2000/svg">
<g filter="url(#filter0_i)">
<rect width="200" height="150" rx="10" fill="url(#paint0_linear)" fill-opacity="0.15"/>
</g>
<rect x="0.5" y="0.5" width="199" height="149" rx="9.5" stroke="#0038FF"/>
<path d="M90.2769 102.257C90.2769 102.257 86.7442 103.846 85.0797 107.549C83.4152 111.252 84.2492 115.666 84.2492 115.666C84.2492 115.666 87.7819 114.076 89.4464 110.373C91.1109 106.671 90.2769 102.257 90.2769 102.257Z" fill="#3F3D56"/>
<path d="M95.0224 107.779C95.0224 107.779 93.865 112.086 90.8599 114.255C87.8548 116.424 84.1399 115.632 84.1399 115.632C84.1399 115.632 85.2973 111.325 88.3024 109.156C91.3075 106.987 95.0224 107.779 95.0224 107.779Z" fill="#0038FF"/>
<path d="M120 116.679H0V117H120V116.679Z" fill="#2F2E41"/>
<path d="M48.4649 101.896C46.754 101.521 45.1249 100.731 43.6772 99.5748L43.8355 99.3156C45.2531 100.446 46.8481 101.217 48.5229 101.582C51.0584 102.128 54.8524 101.86 58.5283 97.4807C65.6819 88.9588 72.5095 88.1005 72.5776 88.0928L72.6026 88.4128C72.5354 88.4203 65.8033 89.267 58.7171 97.7088C55.8225 101.157 52.8521 102.111 50.4514 102.111C49.7852 102.11 49.1204 102.038 48.4649 101.896Z" fill="#2F2E41"/>
<path d="M68.9936 95.1524C69.8812 95.1524 70.6007 94.2893 70.6007 93.2246C70.6007 92.16 69.8812 91.2969 68.9936 91.2969C68.106 91.2969 67.3865 92.16 67.3865 93.2246C67.3865 94.2893 68.106 95.1524 68.9936 95.1524Z" fill="#2F2E41"/>
<path d="M57.6098 104.148C58.4974 104.148 59.217 103.285 59.217 102.221C59.217 101.156 58.4974 100.293 57.6098 100.293C56.7222 100.293 56.0027 101.156 56.0027 102.221C56.0027 103.285 56.7222 104.148 57.6098 104.148Z" fill="#2F2E41"/>
<path d="M91.5403 116.839C91.5403 116.839 89.2017 115.969 84.541 115.097L84.643 113.385C85.4466 103.746 80.0894 89.2881 80.0894 89.2881C82.136 96.4718 83.1094 104.032 82.9648 111.622C82.25 110.126 80.869 108.512 78.2144 107.521C78.2144 107.521 81.6668 111.073 82.6554 114.767C78.1226 114.047 73.562 113.606 68.9916 113.447L70.1787 110.172L67.9019 112.903C67.9019 112.903 66.9644 104.71 64.9555 104.389L66.4287 112.421C66.4287 112.421 64.6876 110.815 64.2859 110.975L65.2766 113.352C58.6044 113.269 50.667 113.631 41.4687 114.79L42.5894 111.698L40.3126 114.429C40.3126 114.429 39.3751 106.236 37.3662 105.915L38.8394 113.947C38.8394 113.947 37.0984 112.341 36.6966 112.501L37.8541 115.278C34.8482 115.707 31.7168 116.227 28.46 116.839H91.5403Z" fill="#3F3D56"/>
<path d="M54.5957 39.1471C53.1359 41.0343 56.9525 45.6146 56.9525 45.6146C56.9525 45.6146 49.2239 47.1778 49.8371 47.083C50.4504 46.9883 50.1326 39.1903 50.1326 39.1903C50.1326 39.1903 56.0555 37.2598 54.5957 39.1471Z" fill="#A0616A"/>
<path d="M59.9749 59.3451L53.2598 63.4599L49.613 65.9669C49.613 65.9669 45.3141 72.462 44.512 76.3113C43.71 80.1606 47.9848 87.2749 48.4688 88.01C48.7184 88.3849 48.9419 88.7837 49.137 89.2026C49.304 89.5007 50.7481 89.1157 52.3249 88.7101C53.9018 88.3046 52.1156 85.503 52.1156 85.503C52.1156 85.503 50.103 79.335 49.9531 79.1962C49.8131 79.0665 49.3369 78 49.6795 77.5331C50.0007 77.1207 50.2488 76.6344 50.4087 76.1036C50.5414 75.6471 50.7304 75.2171 50.9695 74.8279C50.9695 74.8279 57.0446 68.9102 58.942 66.8954C60.8393 64.8806 65.8834 66.1471 65.8834 66.1471C65.8834 66.1471 63.502 77.1032 62.9062 77.8431C62.3105 78.583 62.2461 79.2409 62.5158 80.495C62.7855 81.7491 66.3035 80.5578 66.3035 80.5578L67.6026 76.3078C67.6026 76.3078 69.7118 70.7988 70.857 65.1148C71.4296 62.2728 70.3363 60.579 69.0998 59.5957C67.9108 58.6708 66.4716 58.3271 65.0779 58.6354L58.8705 59.9416L63.1759 57.7168L59.9749 59.3451Z" fill="#2F2E41"/>
<path d="M35.2068 48.7562L27.1906 45.7833C27.1906 45.7833 23.9523 40.7764 25.4779 39.8929C27.0034 39.0093 28.9134 44.2213 28.9134 44.2213L34.4963 44.6547L35.2068 48.7562Z" fill="#A0616A"/>
<path d="M68.9054 43.5504L76.032 38.2382C76.032 38.2382 78.107 32.4106 76.4446 32.0195C74.7822 31.6284 74.0356 37.2508 74.0356 37.2508L68.7263 39.3668L68.9054 43.5504Z" fill="#A0616A"/>
<path d="M70.2393 37.5439L70.3752 43.8399L58.3634 46.4143C60.1302 50.9484 59.6814 56.1087 64.1287 58.3705L49.1388 67.165C49.8067 60.2511 47.0204 55.0433 44.4161 48.5688C41.2439 47.1895 37.5595 48.2008 33.6567 50.2309L32.9553 43.6983L49.5462 42.2692L52.2714 43.5189L55.1935 42.0447C59.4883 40.5142 65.6546 37.6043 70.2393 37.5439Z" fill="#0038FF"/>
<path d="M62.7642 80.2952C62.3999 80.6754 62.0608 83.8053 62.0477 84.9411C62.0346 86.0769 63.2814 86.3703 63.9627 86.427C64.644 86.4837 64.5625 86.9822 65.0123 87.3987C65.4621 87.8151 66.9403 87.7487 68.8815 86.9629C70.8226 86.1772 67.5753 83.6013 67.2925 83.483C67.0098 83.3647 65.8193 79.8232 65.8193 79.8232C65.8193 79.8232 63.1285 79.915 62.7642 80.2952Z" fill="#2F2E41"/>
<path d="M52.1475 87.4426C52.5802 87.6997 53.5694 90.6244 53.822 91.7192C54.0746 92.814 52.9304 93.4767 52.2834 93.7386C51.6363 94.0005 51.8205 94.458 51.4733 94.9976C51.1261 95.5371 49.6821 95.9222 47.6383 95.752C45.5945 95.5818 48.1918 92.103 48.4403 91.9027C48.6889 91.7023 49.0924 87.9146 49.0924 87.9146C49.0924 87.9146 51.7148 87.1855 52.1475 87.4426Z" fill="#2F2E41"/>
<path d="M52.1612 41.5466C53.9361 41.5466 55.375 39.8207 55.375 37.6918C55.375 35.5628 53.9361 33.8369 52.1612 33.8369C50.3863 33.8369 48.9475 35.5628 48.9475 37.6918C48.9475 39.8207 50.3863 41.5466 52.1612 41.5466Z" fill="#A0616A"/>
<path d="M48.4465 37.3127C48.2541 36.8522 48.1446 36.3482 48.1254 35.8336C48.1061 35.3189 48.1775 34.8052 48.3349 34.3259C48.6508 33.3917 49.3516 32.4534 50.8625 32.1732C54.159 31.5618 55.9133 34.3316 55.8212 35.2374C55.729 36.1433 55.2864 38.3332 55.2864 38.3332C55.2864 38.3332 55.484 36.2599 54.6356 36.1866C53.7872 36.1134 50.497 35.8046 49.6639 36.8525C49.4248 37.1371 49.2529 37.4927 49.1656 37.8829C49.0783 38.2732 49.0788 38.6842 49.167 39.0742L48.4465 37.3127Z" fill="#2F2E41"/>
<path d="M119.526 62.108C118.59 62.108 117.69 61.958 116.826 61.658C115.974 61.358 115.314 60.962 114.846 60.47L115.368 59.444C115.824 59.9 116.43 60.272 117.186 60.56C117.942 60.836 118.722 60.974 119.526 60.974C120.654 60.974 121.5 60.77 122.064 60.362C122.628 59.942 122.91 59.402 122.91 58.742C122.91 58.238 122.754 57.836 122.442 57.536C122.142 57.236 121.77 57.008 121.326 56.852C120.882 56.684 120.264 56.504 119.472 56.312C118.524 56.072 117.768 55.844 117.204 55.628C116.64 55.4 116.154 55.058 115.746 54.602C115.35 54.146 115.152 53.528 115.152 52.748C115.152 52.112 115.32 51.536 115.656 51.02C115.992 50.492 116.508 50.072 117.204 49.76C117.9 49.448 118.764 49.292 119.796 49.292C120.516 49.292 121.218 49.394 121.902 49.598C122.598 49.79 123.198 50.06 123.702 50.408L123.252 51.47C122.724 51.122 122.16 50.864 121.56 50.696C120.96 50.516 120.372 50.426 119.796 50.426C118.692 50.426 117.858 50.642 117.294 51.074C116.742 51.494 116.466 52.04 116.466 52.712C116.466 53.216 116.616 53.624 116.916 53.936C117.228 54.236 117.612 54.47 118.068 54.638C118.536 54.794 119.16 54.968 119.94 55.16C120.864 55.388 121.608 55.616 122.172 55.844C122.748 56.06 123.234 56.396 123.63 56.852C124.026 57.296 124.224 57.902 124.224 58.67C124.224 59.306 124.05 59.888 123.702 60.416C123.366 60.932 122.844 61.346 122.136 61.658C121.428 61.958 120.558 62.108 119.526 62.108ZM130.366 57.248L128.134 59.3V62H126.856V48.644H128.134V57.698L133.786 52.532H135.37L131.32 56.402L135.748 62H134.182L130.366 57.248ZM140.803 52.46C142.039 52.46 142.987 52.772 143.647 53.396C144.307 54.008 144.637 54.92 144.637 56.132V62H143.413V60.524C143.125 61.016 142.699 61.4 142.135 61.676C141.583 61.952 140.923 62.09 140.155 62.09C139.099 62.09 138.259 61.838 137.635 61.334C137.011 60.83 136.699 60.164 136.699 59.336C136.699 58.532 136.987 57.884 137.563 57.392C138.151 56.9 139.081 56.654 140.353 56.654H143.359V56.078C143.359 55.262 143.131 54.644 142.675 54.224C142.219 53.792 141.553 53.576 140.677 53.576C140.077 53.576 139.501 53.678 138.949 53.882C138.397 54.074 137.923 54.344 137.527 54.692L136.951 53.738C137.431 53.33 138.007 53.018 138.679 52.802C139.351 52.574 140.059 52.46 140.803 52.46ZM140.353 61.082C141.073 61.082 141.691 60.92 142.207 60.596C142.723 60.26 143.107 59.78 143.359 59.156V57.608H140.389C138.769 57.608 137.959 58.172 137.959 59.3C137.959 59.852 138.169 60.29 138.589 60.614C139.009 60.926 139.597 61.082 140.353 61.082ZM153.094 61.424C152.854 61.64 152.554 61.808 152.194 61.928C151.846 62.036 151.48 62.09 151.096 62.09C150.208 62.09 149.524 61.85 149.044 61.37C148.564 60.89 148.324 60.212 148.324 59.336V53.612H146.632V52.532H148.324V50.462H149.602V52.532H152.482V53.612H149.602V59.264C149.602 59.828 149.74 60.26 150.016 60.56C150.304 60.848 150.712 60.992 151.24 60.992C151.504 60.992 151.756 60.95 151.996 60.866C152.248 60.782 152.464 60.662 152.644 60.506L153.094 61.424ZM155.421 52.532H156.699V62H155.421V52.532ZM156.069 50.462C155.805 50.462 155.583 50.372 155.403 50.192C155.223 50.012 155.133 49.796 155.133 49.544C155.133 49.304 155.223 49.094 155.403 48.914C155.583 48.734 155.805 48.644 156.069 48.644C156.333 48.644 156.555 48.734 156.735 48.914C156.915 49.082 157.005 49.286 157.005 49.526C157.005 49.79 156.915 50.012 156.735 50.192C156.555 50.372 156.333 50.462 156.069 50.462ZM165.079 52.46C166.267 52.46 167.209 52.808 167.905 53.504C168.613 54.188 168.967 55.19 168.967 56.51V62H167.689V56.636C167.689 55.652 167.443 54.902 166.951 54.386C166.459 53.87 165.757 53.612 164.845 53.612C163.825 53.612 163.015 53.918 162.415 54.53C161.827 55.13 161.533 55.964 161.533 57.032V62H160.255V52.532H161.479V54.278C161.827 53.702 162.307 53.258 162.919 52.946C163.543 52.622 164.263 52.46 165.079 52.46ZM181.238 52.532V60.848C181.238 62.456 180.842 63.644 180.05 64.412C179.27 65.192 178.088 65.582 176.504 65.582C175.628 65.582 174.794 65.45 174.002 65.186C173.222 64.934 172.586 64.58 172.094 64.124L172.742 63.152C173.198 63.56 173.75 63.878 174.398 64.106C175.058 64.334 175.748 64.448 176.468 64.448C177.668 64.448 178.55 64.166 179.114 63.602C179.678 63.05 179.96 62.186 179.96 61.01V59.804C179.564 60.404 179.042 60.86 178.394 61.172C177.758 61.484 177.05 61.64 176.27 61.64C175.382 61.64 174.572 61.448 173.84 61.064C173.12 60.668 172.55 60.122 172.13 59.426C171.722 58.718 171.518 57.92 171.518 57.032C171.518 56.144 171.722 55.352 172.13 54.656C172.55 53.96 173.12 53.42 173.84 53.036C174.56 52.652 175.37 52.46 176.27 52.46C177.074 52.46 177.8 52.622 178.448 52.946C179.096 53.27 179.618 53.738 180.014 54.35V52.532H181.238ZM176.396 60.506C177.08 60.506 177.698 60.362 178.25 60.074C178.802 59.774 179.228 59.36 179.528 58.832C179.84 58.304 179.996 57.704 179.996 57.032C179.996 56.36 179.84 55.766 179.528 55.25C179.228 54.722 178.802 54.314 178.25 54.026C177.71 53.726 177.092 53.576 176.396 53.576C175.712 53.576 175.094 53.72 174.542 54.008C174.002 54.296 173.576 54.704 173.264 55.232C172.964 55.76 172.814 56.36 172.814 57.032C172.814 57.704 172.964 58.304 173.264 58.832C173.576 59.36 174.002 59.774 174.542 60.074C175.094 60.362 175.712 60.506 176.396 60.506ZM117.96 87.492C117.288 86.388 116.772 85.122 116.412 83.694C116.052 82.254 115.872 80.712 115.872 79.068C115.872 77.424 116.052 75.882 116.412 74.442C116.772 72.99 117.288 71.724 117.96 70.644H119.184C118.476 71.856 117.954 73.158 117.618 74.55C117.294 75.942 117.132 77.448 117.132 79.068C117.132 80.688 117.294 82.194 117.618 83.586C117.954 84.978 118.476 86.28 119.184 87.492H117.96ZM125.45 84.108C124.514 84.108 123.614 83.958 122.75 83.658C121.898 83.358 121.238 82.962 120.77 82.47L121.292 81.444C121.748 81.9 122.354 82.272 123.11 82.56C123.866 82.836 124.646 82.974 125.45 82.974C126.578 82.974 127.424 82.77 127.988 82.362C128.552 81.942 128.834 81.402 128.834 80.742C128.834 80.238 128.678 79.836 128.366 79.536C128.066 79.236 127.694 79.008 127.25 78.852C126.806 78.684 126.188 78.504 125.396 78.312C124.448 78.072 123.692 77.844 123.128 77.628C122.564 77.4 122.078 77.058 121.67 76.602C121.274 76.146 121.076 75.528 121.076 74.748C121.076 74.112 121.244 73.536 121.58 73.02C121.916 72.492 122.432 72.072 123.128 71.76C123.824 71.448 124.688 71.292 125.72 71.292C126.44 71.292 127.142 71.394 127.826 71.598C128.522 71.79 129.122 72.06 129.626 72.408L129.176 73.47C128.648 73.122 128.084 72.864 127.484 72.696C126.884 72.516 126.296 72.426 125.72 72.426C124.616 72.426 123.782 72.642 123.218 73.074C122.666 73.494 122.39 74.04 122.39 74.712C122.39 75.216 122.54 75.624 122.84 75.936C123.152 76.236 123.536 76.47 123.992 76.638C124.46 76.794 125.084 76.968 125.864 77.16C126.788 77.388 127.532 77.616 128.096 77.844C128.672 78.06 129.158 78.396 129.554 78.852C129.95 79.296 130.148 79.902 130.148 80.67C130.148 81.306 129.974 81.888 129.626 82.416C129.29 82.932 128.768 83.346 128.06 83.658C127.352 83.958 126.482 84.108 125.45 84.108ZM137.658 74.46C138.546 74.46 139.35 74.664 140.07 75.072C140.79 75.468 141.354 76.032 141.762 76.764C142.17 77.496 142.374 78.33 142.374 79.266C142.374 80.214 142.17 81.054 141.762 81.786C141.354 82.518 140.79 83.088 140.07 83.496C139.362 83.892 138.558 84.09 137.658 84.09C136.89 84.09 136.194 83.934 135.57 83.622C134.958 83.298 134.454 82.83 134.058 82.218V87.492H132.78V74.532H134.004V76.404C134.388 75.78 134.892 75.3 135.516 74.964C136.152 74.628 136.866 74.46 137.658 74.46ZM137.568 82.956C138.228 82.956 138.828 82.806 139.368 82.506C139.908 82.194 140.328 81.756 140.628 81.192C140.94 80.628 141.096 79.986 141.096 79.266C141.096 78.546 140.94 77.91 140.628 77.358C140.328 76.794 139.908 76.356 139.368 76.044C138.828 75.732 138.228 75.576 137.568 75.576C136.896 75.576 136.29 75.732 135.75 76.044C135.222 76.356 134.802 76.794 134.49 77.358C134.19 77.91 134.04 78.546 134.04 79.266C134.04 79.986 134.19 80.628 134.49 81.192C134.802 81.756 135.222 82.194 135.75 82.506C136.29 82.806 136.896 82.956 137.568 82.956ZM148.85 84.09C147.938 84.09 147.116 83.886 146.384 83.478C145.652 83.058 145.076 82.482 144.656 81.75C144.236 81.018 144.026 80.19 144.026 79.266C144.026 78.342 144.236 77.514 144.656 76.782C145.076 76.05 145.652 75.48 146.384 75.072C147.116 74.664 147.938 74.46 148.85 74.46C149.762 74.46 150.584 74.664 151.316 75.072C152.048 75.48 152.618 76.05 153.026 76.782C153.446 77.514 153.656 78.342 153.656 79.266C153.656 80.19 153.446 81.018 153.026 81.75C152.618 82.482 152.048 83.058 151.316 83.478C150.584 83.886 149.762 84.09 148.85 84.09ZM148.85 82.956C149.522 82.956 150.122 82.806 150.65 82.506C151.19 82.194 151.61 81.756 151.91 81.192C152.21 80.628 152.36 79.986 152.36 79.266C152.36 78.546 152.21 77.904 151.91 77.34C151.61 76.776 151.19 76.344 150.65 76.044C150.122 75.732 149.522 75.576 148.85 75.576C148.178 75.576 147.572 75.732 147.032 76.044C146.504 76.344 146.084 76.776 145.772 77.34C145.472 77.904 145.322 78.546 145.322 79.266C145.322 79.986 145.472 80.628 145.772 81.192C146.084 81.756 146.504 82.194 147.032 82.506C147.572 82.806 148.178 82.956 148.85 82.956ZM157.489 76.386C157.789 75.75 158.233 75.27 158.821 74.946C159.421 74.622 160.159 74.46 161.035 74.46V75.702L160.729 75.684C159.733 75.684 158.953 75.99 158.389 76.602C157.825 77.214 157.543 78.072 157.543 79.176V84H156.265V74.532H157.489V76.386ZM168.739 83.424C168.499 83.64 168.199 83.808 167.839 83.928C167.491 84.036 167.125 84.09 166.741 84.09C165.853 84.09 165.169 83.85 164.689 83.37C164.209 82.89 163.969 82.212 163.969 81.336V75.612H162.277V74.532H163.969V72.462H165.247V74.532H168.127V75.612H165.247V81.264C165.247 81.828 165.385 82.26 165.661 82.56C165.949 82.848 166.357 82.992 166.885 82.992C167.149 82.992 167.401 82.95 167.641 82.866C167.893 82.782 168.109 82.662 168.289 82.506L168.739 83.424ZM173.603 84.09C172.835 84.09 172.097 83.982 171.389 83.766C170.693 83.538 170.147 83.256 169.751 82.92L170.327 81.912C170.723 82.224 171.221 82.482 171.821 82.686C172.421 82.878 173.045 82.974 173.693 82.974C174.557 82.974 175.193 82.842 175.601 82.578C176.021 82.302 176.231 81.918 176.231 81.426C176.231 81.078 176.117 80.808 175.889 80.616C175.661 80.412 175.373 80.262 175.025 80.166C174.677 80.058 174.215 79.956 173.639 79.86C172.871 79.716 172.253 79.572 171.785 79.428C171.317 79.272 170.915 79.014 170.579 78.654C170.255 78.294 170.093 77.796 170.093 77.16C170.093 76.368 170.423 75.72 171.083 75.216C171.743 74.712 172.661 74.46 173.837 74.46C174.449 74.46 175.061 74.544 175.673 74.712C176.285 74.868 176.789 75.078 177.185 75.342L176.627 76.368C175.847 75.828 174.917 75.558 173.837 75.558C173.021 75.558 172.403 75.702 171.983 75.99C171.575 76.278 171.371 76.656 171.371 77.124C171.371 77.484 171.485 77.772 171.713 77.988C171.953 78.204 172.247 78.366 172.595 78.474C172.943 78.57 173.423 78.672 174.035 78.78C174.791 78.924 175.397 79.068 175.853 79.212C176.309 79.356 176.699 79.602 177.023 79.95C177.347 80.298 177.509 80.778 177.509 81.39C177.509 82.218 177.161 82.878 176.465 83.37C175.781 83.85 174.827 84.09 173.603 84.09ZM178.81 87.492C179.518 86.28 180.04 84.984 180.376 83.604C180.712 82.212 180.88 80.7 180.88 79.068C180.88 77.436 180.712 75.93 180.376 74.55C180.04 73.158 179.518 71.856 178.81 70.644H180.034C180.706 71.724 181.222 72.99 181.582 74.442C181.954 75.882 182.14 77.424 182.14 79.068C182.14 80.712 181.96 82.254 181.6 83.694C181.24 85.134 180.718 86.4 180.034 87.492H178.81Z" fill="black"/>
<path d="M116.826 61.658L116.66 62.1296L116.662 62.1303L116.826 61.658ZM114.846 60.47L114.401 60.2433L114.24 60.5584L114.484 60.8146L114.846 60.47ZM115.368 59.444L115.722 59.0904L115.235 58.6035L114.923 59.2173L115.368 59.444ZM117.186 60.56L117.008 61.0273L117.015 61.0297L117.186 60.56ZM122.064 60.362L122.357 60.7672L122.363 60.763L122.064 60.362ZM122.442 57.536L122.089 57.8896L122.096 57.8964L122.442 57.536ZM121.326 56.852L121.149 57.3198L121.161 57.3237L121.326 56.852ZM119.472 56.312L119.35 56.7967L119.354 56.7979L119.472 56.312ZM117.204 55.628L117.017 56.0916L117.025 56.0949L117.204 55.628ZM115.746 54.602L115.369 54.9299L115.374 54.9354L115.746 54.602ZM115.656 51.02L116.075 51.2929L116.078 51.2884L115.656 51.02ZM117.204 49.76L117.409 50.2163H117.409L117.204 49.76ZM121.902 49.598L121.759 50.0772L121.769 50.08L121.902 49.598ZM123.702 50.408L124.163 50.6031L124.322 50.228L123.986 49.9966L123.702 50.408ZM123.252 51.47L122.977 51.8875L123.478 52.2179L123.713 51.6651L123.252 51.47ZM121.56 50.696L121.417 51.175L121.425 51.1775L121.56 50.696ZM117.294 51.074L117.597 51.4719L117.598 51.4709L117.294 51.074ZM116.916 53.936L116.556 54.2826L116.563 54.2896L116.57 54.2964L116.916 53.936ZM118.068 54.638L117.895 55.1072L117.903 55.1099L117.91 55.1123L118.068 54.638ZM119.94 55.16L120.06 54.6746L120.06 54.6745L119.94 55.16ZM122.172 55.844L121.985 56.3077L121.997 56.3122L122.172 55.844ZM123.63 56.852L123.253 57.1799L123.257 57.1848L123.63 56.852ZM123.702 60.416L123.285 60.1408L123.283 60.1432L123.702 60.416ZM122.136 61.658L122.331 62.1184L122.338 62.1155L122.136 61.658ZM119.526 61.608C118.645 61.608 117.8 61.4669 116.99 61.1857L116.662 62.1303C117.58 62.4491 118.536 62.608 119.526 62.608V61.608ZM116.992 61.1864C116.191 60.9043 115.607 60.5444 115.209 60.1254L114.484 60.8146C115.021 61.3796 115.757 61.8117 116.66 62.1296L116.992 61.1864ZM115.292 60.6967L115.814 59.6707L114.923 59.2173L114.401 60.2433L115.292 60.6967ZM115.015 59.7976C115.532 60.3144 116.203 60.7203 117.008 61.0272L117.364 60.0928C116.658 59.8237 116.117 59.4856 115.722 59.0904L115.015 59.7976ZM117.015 61.0297C117.826 61.3257 118.664 61.474 119.526 61.474V60.474C118.781 60.474 118.059 60.3463 117.358 60.0903L117.015 61.0297ZM119.526 61.474C120.7 61.474 121.67 61.2645 122.357 60.7671L121.771 59.9569C121.331 60.2755 120.609 60.474 119.526 60.474V61.474ZM122.363 60.763C123.044 60.2559 123.41 59.5717 123.41 58.742H122.41C122.41 59.2323 122.213 59.6281 121.766 59.961L122.363 60.763ZM123.41 58.742C123.41 58.1263 123.215 57.5855 122.789 57.1756L122.096 57.8964C122.293 58.0865 122.41 58.3497 122.41 58.742H123.41ZM122.796 57.1824C122.437 56.8239 121.999 56.5584 121.492 56.3803L121.161 57.3237C121.542 57.4576 121.847 57.6481 122.089 57.8896L122.796 57.1824ZM121.503 56.3844C121.031 56.2057 120.39 56.02 119.59 55.8261L119.354 56.7979C120.138 56.988 120.733 57.1623 121.149 57.3196L121.503 56.3844ZM119.595 55.8273C118.656 55.5896 117.921 55.3671 117.383 55.1611L117.025 56.0949C117.615 56.3209 118.393 56.5544 119.35 56.7967L119.595 55.8273ZM117.392 55.1644C116.899 54.9653 116.476 54.668 116.119 54.2686L115.374 54.9354C115.832 55.448 116.382 55.8347 117.017 56.0916L117.392 55.1644ZM116.124 54.2742C115.827 53.933 115.652 53.4435 115.652 52.748H114.652C114.652 53.6125 114.873 54.359 115.369 54.9298L116.124 54.2742ZM115.652 52.748C115.652 52.2055 115.794 51.7249 116.075 51.2928L115.237 50.7472C114.847 51.3471 114.652 52.0185 114.652 52.748H115.652ZM116.078 51.2884C116.351 50.8594 116.782 50.4971 117.409 50.2163L117 49.3037C116.234 49.6469 115.633 50.1246 115.234 50.7516L116.078 51.2884ZM117.409 50.2163C118.022 49.9414 118.811 49.792 119.796 49.792V48.792C118.717 48.792 117.779 48.9546 117 49.3037L117.409 50.2163ZM119.796 49.792C120.468 49.792 121.122 49.8871 121.759 50.0771L122.045 49.1189C121.314 48.9009 120.564 48.792 119.796 48.792V49.792ZM121.769 50.08C122.421 50.2597 122.968 50.5084 123.418 50.8194L123.986 49.9966C123.429 49.6116 122.776 49.3203 122.035 49.116L121.769 50.08ZM123.242 50.2129L122.792 51.2749L123.713 51.6651L124.163 50.6031L123.242 50.2129ZM123.527 51.0525C122.957 50.6765 122.346 50.3967 121.695 50.2145L121.425 51.1775C121.975 51.3313 122.492 51.5675 122.977 51.8875L123.527 51.0525ZM121.704 50.2171C121.061 50.0243 120.425 49.926 119.796 49.926V50.926C120.32 50.926 120.859 51.0077 121.417 51.1749L121.704 50.2171ZM119.796 49.926C118.64 49.926 117.678 50.1502 116.99 50.6771L117.598 51.4709C118.038 51.1338 118.745 50.926 119.796 50.926V49.926ZM116.991 50.6761C116.32 51.1871 115.966 51.878 115.966 52.712H116.966C116.966 52.202 117.165 51.8009 117.597 51.4719L116.991 50.6761ZM115.966 52.712C115.966 53.3224 116.152 53.8622 116.556 54.2826L117.277 53.5894C117.081 53.3858 116.966 53.1096 116.966 52.712H115.966ZM116.57 54.2964C116.937 54.6498 117.383 54.9182 117.895 55.1072L118.241 54.1688C117.842 54.0218 117.519 53.8222 117.263 53.5756L116.57 54.2964ZM117.91 55.1123C118.396 55.2744 119.035 55.452 119.821 55.6455L120.06 54.6745C119.286 54.484 118.676 54.3136 118.226 54.1637L117.91 55.1123ZM119.82 55.6454C120.733 55.8705 121.451 56.0919 121.985 56.3076L122.36 55.3804C121.765 55.1401 120.996 54.9055 120.06 54.6746L119.82 55.6454ZM121.997 56.3122C122.496 56.4995 122.912 56.7879 123.253 57.1798L124.008 56.5242C123.556 56.0041 123 55.6205 122.348 55.3758L121.997 56.3122ZM123.257 57.1848C123.55 57.5131 123.724 57.9881 123.724 58.67H124.724C124.724 57.8159 124.503 57.0789 124.003 56.5192L123.257 57.1848ZM123.724 58.67C123.724 59.2088 123.579 59.695 123.285 60.1408L124.12 60.6912C124.522 60.081 124.724 59.4032 124.724 58.67H123.724ZM123.283 60.1432C123.012 60.5592 122.577 60.9176 121.935 61.2005L122.338 62.1155C123.112 61.7744 123.72 61.3048 124.121 60.6888L123.283 60.1432ZM121.941 61.1976C121.312 61.4642 120.513 61.608 119.526 61.608V62.608C120.604 62.608 121.544 62.4518 122.331 62.1184L121.941 61.1976ZM130.366 57.248L130.756 56.9349L130.422 56.5181L130.028 56.8799L130.366 57.248ZM128.134 59.3L127.796 58.9319L127.634 59.0805V59.3H128.134ZM128.134 62V62.5H128.634V62H128.134ZM126.856 62H126.356V62.5H126.856V62ZM126.856 48.644V48.144H126.356V48.644H126.856ZM128.134 48.644H128.634V48.144H128.134V48.644ZM128.134 57.698H127.634V58.8324L128.472 58.0671L128.134 57.698ZM133.786 52.532V52.032H133.592L133.449 52.1629L133.786 52.532ZM135.37 52.532L135.716 52.8935L136.617 52.032H135.37V52.532ZM131.32 56.402L130.975 56.0405L130.646 56.3551L130.928 56.7122L131.32 56.402ZM135.748 62V62.5H136.781L136.141 61.6898L135.748 62ZM134.182 62L133.793 62.3131L133.943 62.5H134.182V62ZM130.028 56.8799L127.796 58.9319L128.473 59.6681L130.705 57.6161L130.028 56.8799ZM127.634 59.3V62H128.634V59.3H127.634ZM128.134 61.5H126.856V62.5H128.134V61.5ZM127.356 62V48.644H126.356V62H127.356ZM126.856 49.144H128.134V48.144H126.856V49.144ZM127.634 48.644V57.698H128.634V48.644H127.634ZM128.472 58.0671L134.124 52.9011L133.449 52.1629L127.797 57.3289L128.472 58.0671ZM133.786 53.032H135.37V52.032H133.786V53.032ZM135.025 52.1705L130.975 56.0405L131.666 56.7635L135.716 52.8935L135.025 52.1705ZM130.928 56.7122L135.356 62.3102L136.141 61.6898L131.713 56.0918L130.928 56.7122ZM135.748 61.5H134.182V62.5H135.748V61.5ZM134.572 61.6869L130.756 56.9349L129.977 57.5611L133.793 62.3131L134.572 61.6869ZM143.647 53.396L143.304 53.7593L143.307 53.7626L143.647 53.396ZM144.637 62V62.5H145.137V62H144.637ZM143.413 62H142.913V62.5H143.413V62ZM143.413 60.524H143.913V58.6801L142.982 60.2714L143.413 60.524ZM142.135 61.676L141.915 61.2269L141.912 61.2288L142.135 61.676ZM137.635 61.334L137.949 60.945L137.635 61.334ZM137.563 57.392L137.242 57.0085L137.238 57.0118L137.563 57.392ZM143.359 56.654V57.154H143.859V56.654H143.359ZM142.675 54.224L142.331 54.587L142.336 54.5918L142.675 54.224ZM138.949 53.882L139.114 54.3543L139.123 54.351L138.949 53.882ZM137.527 54.692L137.099 54.9504L137.408 55.4622L137.857 55.0676L137.527 54.692ZM136.951 53.738L136.627 53.357L136.303 53.6324L136.523 53.9964L136.951 53.738ZM138.679 52.802L138.832 53.2781L138.84 53.2755L138.679 52.802ZM142.207 60.596L142.473 61.0195L142.48 61.015L142.207 60.596ZM143.359 59.156L143.823 59.3432L143.859 59.2531V59.156H143.359ZM143.359 57.608H143.859V57.108H143.359V57.608ZM138.589 60.614L138.284 61.01L138.291 61.0154L138.589 60.614ZM140.803 52.96C141.958 52.96 142.766 53.2507 143.304 53.7593L143.991 53.0327C143.209 52.2933 142.12 51.96 140.803 51.96V52.96ZM143.307 53.7626C143.833 54.2505 144.137 55.0089 144.137 56.132H145.137C145.137 54.8311 144.781 53.7655 143.987 53.0294L143.307 53.7626ZM144.137 56.132V62H145.137V56.132H144.137ZM144.637 61.5H143.413V62.5H144.637V61.5ZM143.913 62V60.524H142.913V62H143.913ZM142.982 60.2714C142.748 60.67 142.4 60.9896 141.915 61.2269L142.355 62.1251C142.998 61.8104 143.502 61.362 143.845 60.7766L142.982 60.2714ZM141.912 61.2288C141.444 61.4626 140.864 61.59 140.155 61.59V62.59C140.982 62.59 141.723 62.4414 142.359 62.1232L141.912 61.2288ZM140.155 61.59C139.177 61.59 138.46 61.3572 137.949 60.945L137.321 61.723C138.059 62.3188 139.021 62.59 140.155 62.59V61.59ZM137.949 60.945C137.447 60.5394 137.199 60.0186 137.199 59.336H136.199C136.199 60.3094 136.575 61.1206 137.321 61.723L137.949 60.945ZM137.199 59.336C137.199 58.668 137.431 58.1627 137.888 57.7722L137.238 57.0118C136.544 57.6053 136.199 58.396 136.199 59.336H137.199ZM137.884 57.7755C138.339 57.3945 139.127 57.154 140.353 57.154V56.154C139.035 56.154 137.963 56.4055 137.242 57.0085L137.884 57.7755ZM140.353 57.154H143.359V56.154H140.353V57.154ZM143.859 56.654V56.078H142.859V56.654H143.859ZM143.859 56.078C143.859 55.1687 143.603 54.3984 143.014 53.8562L142.336 54.5918C142.66 54.8896 142.859 55.3553 142.859 56.078H143.859ZM143.019 53.861C142.439 53.3114 141.63 53.076 140.677 53.076V54.076C141.476 54.076 142 54.2726 142.331 54.587L143.019 53.861ZM140.677 53.076C140.019 53.076 139.384 53.1881 138.776 53.413L139.123 54.351C139.618 54.1679 140.135 54.076 140.677 54.076V53.076ZM138.785 53.4098C138.179 53.6207 137.647 53.9214 137.197 54.3164L137.857 55.0676C138.2 54.7666 138.616 54.5273 139.113 54.3542L138.785 53.4098ZM137.955 54.4336L137.379 53.4796L136.523 53.9964L137.099 54.9504L137.955 54.4336ZM137.275 54.119C137.699 53.7584 138.215 53.4763 138.832 53.278L138.526 52.326C137.799 52.5597 137.163 52.9016 136.627 53.357L137.275 54.119ZM138.84 53.2755C139.458 53.0659 140.111 52.96 140.803 52.96V51.96C140.007 51.96 139.245 52.0821 138.519 52.3285L138.84 53.2755ZM140.353 61.582C141.15 61.582 141.864 61.4019 142.473 61.0194L141.941 60.1726C141.519 60.4381 140.996 60.582 140.353 60.582V61.582ZM142.48 61.015C143.09 60.6179 143.536 60.053 143.823 59.3432L142.896 58.9688C142.678 59.507 142.357 59.9021 141.934 60.177L142.48 61.015ZM143.859 59.156V57.608H142.859V59.156H143.859ZM143.359 57.108H140.389V58.108H143.359V57.108ZM140.389 57.108C139.537 57.108 138.808 57.2536 138.281 57.6207C137.721 58.0106 137.459 58.5994 137.459 59.3H138.459C138.459 58.8726 138.602 58.6154 138.852 58.4413C139.135 58.2444 139.622 58.108 140.389 58.108V57.108ZM137.459 59.3C137.459 59.9997 137.735 60.5868 138.284 61.0099L138.895 60.2181C138.603 59.9932 138.459 59.7043 138.459 59.3H137.459ZM138.291 61.0154C138.828 61.4143 139.536 61.582 140.353 61.582V60.582C139.659 60.582 139.19 60.4377 138.887 60.2126L138.291 61.0154ZM153.094 61.424L153.429 61.7956L153.71 61.543L153.543 61.2039L153.094 61.424ZM152.194 61.928L152.343 62.4056L152.353 62.4023L152.194 61.928ZM149.044 61.37L148.691 61.7236L149.044 61.37ZM148.324 53.612H148.824V53.112H148.324V53.612ZM146.632 53.612H146.132V54.112H146.632V53.612ZM146.632 52.532V52.032H146.132V52.532H146.632ZM148.324 52.532V53.032H148.824V52.532H148.324ZM148.324 50.462V49.962H147.824V50.462H148.324ZM149.602 50.462H150.102V49.962H149.602V50.462ZM149.602 52.532H149.102V53.032H149.602V52.532ZM152.482 52.532H152.982V52.032H152.482V52.532ZM152.482 53.612V54.112H152.982V53.612H152.482ZM149.602 53.612V53.112H149.102V53.612H149.602ZM150.016 60.56L149.648 60.8985L149.655 60.9062L149.663 60.9136L150.016 60.56ZM151.996 60.866L151.838 60.3916L151.831 60.3941L151.996 60.866ZM152.644 60.506L153.093 60.2859L152.808 59.7029L152.317 60.1282L152.644 60.506ZM152.76 61.0524C152.579 61.215 152.342 61.3516 152.036 61.4537L152.353 62.4023C152.766 62.2644 153.13 62.065 153.429 61.7956L152.76 61.0524ZM152.046 61.4505C151.749 61.5428 151.433 61.59 151.096 61.59V62.59C151.528 62.59 151.944 62.5292 152.343 62.4055L152.046 61.4505ZM151.096 61.59C150.299 61.59 149.758 61.3764 149.398 61.0164L148.691 61.7236C149.291 62.3236 150.118 62.59 151.096 62.59V61.59ZM149.398 61.0164C149.037 60.6553 148.824 60.1196 148.824 59.336H147.824C147.824 60.3044 148.092 61.1247 148.691 61.7236L149.398 61.0164ZM148.824 59.336V53.612H147.824V59.336H148.824ZM148.324 53.112H146.632V54.112H148.324V53.112ZM147.132 53.612V52.532H146.132V53.612H147.132ZM146.632 53.032H148.324V52.032H146.632V53.032ZM148.824 52.532V50.462H147.824V52.532H148.824ZM148.324 50.962H149.602V49.962H148.324V50.962ZM149.102 50.462V52.532H150.102V50.462H149.102ZM149.602 53.032H152.482V52.032H149.602V53.032ZM151.982 52.532V53.612H152.982V52.532H151.982ZM152.482 53.112H149.602V54.112H152.482V53.112ZM149.102 53.612V59.264H150.102V53.612H149.102ZM149.102 59.264C149.102 59.905 149.26 60.4759 149.648 60.8985L150.384 60.2215C150.221 60.0441 150.102 59.751 150.102 59.264H149.102ZM149.663 60.9136C150.07 61.3208 150.621 61.492 151.24 61.492V60.492C150.804 60.492 150.539 60.3752 150.37 60.2064L149.663 60.9136ZM151.24 61.492C151.558 61.492 151.866 61.4412 152.162 61.3379L151.831 60.3941C151.646 60.4588 151.45 60.492 151.24 60.492V61.492ZM152.155 61.3403C152.462 61.238 152.737 61.0875 152.972 60.8838L152.317 60.1282C152.192 60.2365 152.035 60.326 151.838 60.3917L152.155 61.3403ZM152.195 60.7261L152.645 61.6441L153.543 61.2039L153.093 60.2859L152.195 60.7261ZM155.421 52.532V52.032H154.921V52.532H155.421ZM156.699 52.532H157.199V52.032H156.699V52.532ZM156.699 62V62.5H157.199V62H156.699ZM155.421 62H154.921V62.5H155.421V62ZM155.403 48.914L155.049 48.5604V48.5604L155.403 48.914ZM156.735 48.914L156.381 49.2676L156.387 49.2736L156.394 49.2795L156.735 48.914ZM155.421 53.032H156.699V52.032H155.421V53.032ZM156.199 52.532V62H157.199V52.532H156.199ZM156.699 61.5H155.421V62.5H156.699V61.5ZM155.921 62V52.532H154.921V62H155.921ZM156.069 49.962C155.932 49.962 155.839 49.9209 155.756 49.8384L155.049 50.5456C155.327 50.8231 155.678 50.962 156.069 50.962V49.962ZM155.756 49.8384C155.669 49.7511 155.633 49.6619 155.633 49.544H154.633C154.633 49.9301 154.777 50.2729 155.049 50.5456L155.756 49.8384ZM155.633 49.544C155.633 49.4453 155.664 49.3601 155.756 49.2676L155.049 48.5604C154.782 48.8279 154.633 49.1627 154.633 49.544H155.633ZM155.756 49.2676C155.839 49.1851 155.932 49.144 156.069 49.144V48.144C155.678 48.144 155.327 48.2829 155.049 48.5604L155.756 49.2676ZM156.069 49.144C156.206 49.144 156.299 49.1851 156.381 49.2676L157.088 48.5604C156.811 48.2829 156.46 48.144 156.069 48.144V49.144ZM156.394 49.2795C156.475 49.3557 156.505 49.4286 156.505 49.526H157.505C157.505 49.1434 157.354 48.8083 157.076 48.5485L156.394 49.2795ZM156.505 49.526C156.505 49.6629 156.464 49.756 156.381 49.8384L157.088 50.5456C157.366 50.268 157.505 49.9171 157.505 49.526H156.505ZM156.381 49.8384C156.299 49.9209 156.206 49.962 156.069 49.962V50.962C156.46 50.962 156.811 50.8231 157.088 50.5456L156.381 49.8384ZM167.905 53.504L167.551 53.8576L167.557 53.8636L167.905 53.504ZM168.967 62V62.5H169.467V62H168.967ZM167.689 62H167.189V62.5H167.689V62ZM166.951 54.386L166.589 54.731V54.731L166.951 54.386ZM162.415 54.53L162.058 54.18L162.058 54.18L162.415 54.53ZM161.533 62V62.5H162.033V62H161.533ZM160.255 62H159.755V62.5H160.255V62ZM160.255 52.532V52.032H159.755V52.532H160.255ZM161.479 52.532H161.979V52.032H161.479V52.532ZM161.479 54.278H160.979V56.0725L161.907 54.5366L161.479 54.278ZM162.919 52.946L163.146 53.3915L163.149 53.3897L162.919 52.946ZM165.079 52.96C166.164 52.96 166.968 53.2742 167.551 53.8576L168.258 53.1504C167.45 52.3418 166.37 51.96 165.079 51.96V52.96ZM167.557 53.8636C168.138 54.4246 168.467 55.2777 168.467 56.51H169.467C169.467 55.1023 169.088 53.9514 168.252 53.1444L167.557 53.8636ZM168.467 56.51V62H169.467V56.51H168.467ZM168.967 61.5H167.689V62.5H168.967V61.5ZM168.189 62V56.636H167.189V62H168.189ZM168.189 56.636C168.189 55.573 167.923 54.6805 167.313 54.041L166.589 54.731C166.963 55.1235 167.189 55.731 167.189 56.636H168.189ZM167.313 54.041C166.702 53.4002 165.853 53.112 164.845 53.112V54.112C165.66 54.112 166.216 54.3398 166.589 54.731L167.313 54.041ZM164.845 53.112C163.718 53.112 162.77 53.454 162.058 54.18L162.772 54.88C163.26 54.382 163.932 54.112 164.845 54.112V53.112ZM162.058 54.18C161.355 54.8971 161.033 55.8703 161.033 57.032H162.033C162.033 56.0577 162.299 55.3629 162.772 54.88L162.058 54.18ZM161.033 57.032V62H162.033V57.032H161.033ZM161.533 61.5H160.255V62.5H161.533V61.5ZM160.755 62V52.532H159.755V62H160.755ZM160.255 53.032H161.479V52.032H160.255V53.032ZM160.979 52.532V54.278H161.979V52.532H160.979ZM161.907 54.5366C162.206 54.0421 162.615 53.662 163.146 53.3915L162.692 52.5005C161.999 52.854 161.448 53.3619 161.051 54.0194L161.907 54.5366ZM163.149 53.3897C163.691 53.1082 164.33 52.96 165.079 52.96V51.96C164.196 51.96 163.394 52.1358 162.688 52.5023L163.149 53.3897ZM181.238 52.532H181.738V52.032H181.238V52.532ZM180.05 64.412L179.702 64.053L179.696 64.0584L180.05 64.412ZM174.002 65.186L174.16 64.7116L174.155 64.7102L174.002 65.186ZM172.094 64.124L171.678 63.8466L171.441 64.2011L171.754 64.4907L172.094 64.124ZM172.742 63.152L173.075 62.7794L172.645 62.395L172.326 62.8746L172.742 63.152ZM174.398 64.106L174.232 64.5777L174.234 64.5786L174.398 64.106ZM179.114 63.602L178.764 63.2446L178.76 63.2484L179.114 63.602ZM179.96 59.804H180.46V58.1387L179.542 59.5286L179.96 59.804ZM178.394 61.172L178.177 60.7215L178.173 60.7231L178.394 61.172ZM173.84 61.064L173.599 61.5022L173.607 61.5068L173.84 61.064ZM172.13 59.426L171.696 59.6757L171.702 59.6843L172.13 59.426ZM172.13 54.656L171.702 54.3976L171.698 54.4031L172.13 54.656ZM173.84 53.036L174.075 53.4772L173.84 53.036ZM178.448 52.946L178.671 52.4988L178.448 52.946ZM180.014 54.35L179.594 54.6216L180.514 56.0431V54.35H180.014ZM180.014 52.532V52.032H179.514V52.532H180.014ZM178.25 60.074L178.481 60.5174L178.488 60.5133L178.25 60.074ZM179.528 58.832L179.097 58.5776L179.093 58.585L179.528 58.832ZM179.528 55.25L179.093 55.4971L179.1 55.5087L179.528 55.25ZM178.25 54.026L178.007 54.4632L178.018 54.4693L178.25 54.026ZM174.542 54.008L174.31 53.5647L174.306 53.5668L174.542 54.008ZM173.264 55.232L172.833 54.9776L172.829 54.985L173.264 55.232ZM173.264 58.832L172.829 59.079L172.833 59.0864L173.264 58.832ZM174.542 60.074L174.299 60.5112L174.31 60.5173L174.542 60.074ZM180.738 52.532V60.848H181.738V52.532H180.738ZM180.738 60.848C180.738 62.3829 180.359 63.4151 179.702 64.053L180.398 64.771C181.324 63.8729 181.738 62.5291 181.738 60.848H180.738ZM179.696 64.0584C179.044 64.7103 178.013 65.082 176.504 65.082V66.082C178.162 66.082 179.495 65.6737 180.403 64.7656L179.696 64.0584ZM176.504 65.082C175.679 65.082 174.898 64.9578 174.16 64.7117L173.844 65.6603C174.689 65.9422 175.577 66.082 176.504 66.082V65.082ZM174.155 64.7102C173.43 64.4757 172.862 64.1541 172.434 63.7573L171.754 64.4907C172.31 65.0059 173.014 65.3923 173.848 65.6618L174.155 64.7102ZM172.51 64.4014L173.158 63.4293L172.326 62.8746L171.678 63.8466L172.51 64.4014ZM172.408 63.5246C172.919 63.9813 173.53 64.3306 174.232 64.5777L174.564 63.6343C173.97 63.4254 173.477 63.1387 173.075 62.7794L172.408 63.5246ZM174.234 64.5786C174.949 64.8253 175.694 64.948 176.468 64.948V63.948C175.802 63.948 175.167 63.8427 174.561 63.6334L174.234 64.5786ZM176.468 64.948C177.734 64.948 178.771 64.6515 179.467 63.9556L178.76 63.2484C178.328 63.6805 177.601 63.948 176.468 63.948V64.948ZM179.463 63.9593C180.162 63.2756 180.46 62.2549 180.46 61.01H179.46C179.46 62.1171 179.193 62.8244 178.764 63.2447L179.463 63.9593ZM180.46 61.01V59.804H179.46V61.01H180.46ZM179.542 59.5286C179.196 60.0532 178.743 60.4487 178.177 60.7215L178.611 61.6225C179.34 61.2713 179.931 60.7548 180.377 60.0794L179.542 59.5286ZM178.173 60.7231C177.613 60.9982 176.981 61.14 176.27 61.14V62.14C177.118 62.14 177.903 61.9698 178.614 61.6209L178.173 60.7231ZM176.27 61.14C175.456 61.14 174.727 60.9649 174.072 60.6212L173.607 61.5068C174.416 61.9311 175.307 62.14 176.27 62.14V61.14ZM174.081 60.6259C173.437 60.2718 172.932 59.7875 172.558 59.1677L171.702 59.6843C172.168 60.4565 172.803 61.0642 173.599 61.5021L174.081 60.6259ZM172.563 59.1764C172.202 58.5508 172.018 57.8402 172.018 57.032H171.018C171.018 57.9998 171.241 58.8852 171.696 59.6756L172.563 59.1764ZM172.018 57.032C172.018 56.2237 172.202 55.5206 172.561 54.9089L171.698 54.4031C171.241 55.1834 171.018 56.0643 171.018 57.032H172.018ZM172.558 54.9143C172.931 54.2959 173.434 53.8189 174.075 53.4772L173.604 52.5948C172.805 53.0211 172.168 53.6241 171.702 54.3977L172.558 54.9143ZM174.075 53.4772C174.715 53.1357 175.443 52.96 176.27 52.96V51.96C175.296 51.96 174.404 52.1683 173.604 52.5948L174.075 53.4772ZM176.27 52.96C177.005 52.96 177.653 53.1076 178.224 53.3932L178.671 52.4988C177.947 52.1364 177.143 51.96 176.27 51.96V52.96ZM178.224 53.3932C178.792 53.677 179.246 54.0841 179.594 54.6216L180.433 54.0784C179.989 53.3919 179.4 52.863 178.671 52.4988L178.224 53.3932ZM180.514 54.35V52.532H179.514V54.35H180.514ZM180.014 53.032H181.238V52.032H180.014V53.032ZM176.396 61.006C177.152 61.006 177.851 60.8461 178.481 60.5173L178.018 59.6307C177.545 59.8779 177.007 60.006 176.396 60.006V61.006ZM178.488 60.5133C179.119 60.1704 179.615 59.691 179.962 59.079L179.093 58.585C178.841 59.029 178.484 59.3776 178.011 59.6347L178.488 60.5133ZM179.958 59.0864C180.32 58.4741 180.496 57.7847 180.496 57.032H179.496C179.496 57.6233 179.359 58.1339 179.097 58.5776L179.958 59.0864ZM180.496 57.032C180.496 56.2795 180.32 55.594 179.956 54.9913L179.1 55.5087C179.359 55.938 179.496 56.4405 179.496 57.032H180.496ZM179.962 55.003C179.614 54.3891 179.116 53.914 178.481 53.5827L178.018 54.4693C178.487 54.714 178.842 55.0548 179.093 55.497L179.962 55.003ZM178.493 53.5889C177.869 53.2426 177.166 53.076 176.396 53.076V54.076C177.018 54.076 177.55 54.2094 178.007 54.4631L178.493 53.5889ZM176.396 53.076C175.639 53.076 174.941 53.2359 174.31 53.5647L174.773 54.4513C175.247 54.2041 175.784 54.076 176.396 54.076V53.076ZM174.306 53.5668C173.685 53.8981 173.192 54.3708 172.833 54.9776L173.694 55.4864C173.96 55.0372 174.318 54.6939 174.777 54.4492L174.306 53.5668ZM172.829 54.985C172.482 55.5961 172.314 56.2829 172.314 57.032H173.314C173.314 56.4371 173.446 55.9239 173.698 55.479L172.829 54.985ZM172.314 57.032C172.314 57.7811 172.482 58.4679 172.829 59.079L173.698 58.585C173.446 58.1401 173.314 57.6269 173.314 57.032H172.314ZM172.833 59.0864C173.191 59.6914 173.682 60.1683 174.299 60.5111L174.785 59.6369C174.322 59.3797 173.961 59.0286 173.694 58.5776L172.833 59.0864ZM174.31 60.5173C174.941 60.8461 175.639 61.006 176.396 61.006V60.006C175.784 60.006 175.247 59.8779 174.773 59.6307L174.31 60.5173ZM117.96 87.492L117.533 87.752L117.679 87.992H117.96V87.492ZM116.412 83.694L115.927 83.8153L115.927 83.8162L116.412 83.694ZM116.412 74.442L116.897 74.5633L116.898 74.5623L116.412 74.442ZM117.96 70.644V70.144H117.682L117.536 70.3798L117.96 70.644ZM119.184 70.644L119.616 70.8962L120.055 70.144H119.184V70.644ZM117.618 74.55L117.132 74.4327L117.131 74.4366L117.618 74.55ZM117.618 83.586L117.131 83.6994L117.132 83.7033L117.618 83.586ZM119.184 87.492V87.992H120.055L119.616 87.2398L119.184 87.492ZM118.387 87.232C117.745 86.1763 117.247 84.9579 116.897 83.5718L115.927 83.8162C116.298 85.2861 116.832 86.5997 117.533 87.752L118.387 87.232ZM116.897 83.5727C116.548 82.1764 116.372 80.6754 116.372 79.068H115.372C115.372 80.7486 115.556 82.3316 115.927 83.8153L116.897 83.5727ZM116.372 79.068C116.372 77.4606 116.548 75.9596 116.897 74.5633L115.927 74.3207C115.556 75.8044 115.372 77.3874 115.372 79.068H116.372ZM116.898 74.5623C117.247 73.1524 117.745 71.9367 118.385 70.9081L117.536 70.3798C116.832 71.5113 116.297 72.8276 115.927 74.3217L116.898 74.5623ZM117.96 71.144H119.184V70.144H117.96V71.144ZM118.753 70.3918C118.019 71.6467 117.479 72.9943 117.132 74.4327L118.104 74.6673C118.429 73.3217 118.933 72.0653 119.616 70.8962L118.753 70.3918ZM117.131 74.4366C116.798 75.8704 116.632 77.4148 116.632 79.068H117.632C117.632 77.4812 117.791 76.0136 118.105 74.6633L117.131 74.4366ZM116.632 79.068C116.632 80.7212 116.798 82.2656 117.131 83.6993L118.105 83.4727C117.791 82.1224 117.632 80.6548 117.632 79.068H116.632ZM117.132 83.7033C117.479 85.1417 118.019 86.4893 118.753 87.7442L119.616 87.2398C118.933 86.0707 118.429 84.8143 118.104 83.4687L117.132 83.7033ZM119.184 86.992H117.96V87.992H119.184V86.992ZM122.75 83.658L122.584 84.1296L122.586 84.1303L122.75 83.658ZM120.77 82.47L120.324 82.2433L120.164 82.5584L120.408 82.8146L120.77 82.47ZM121.292 81.444L121.646 81.0904L121.159 80.6035L120.846 81.2173L121.292 81.444ZM123.11 82.56L122.932 83.0273L122.939 83.0297L123.11 82.56ZM127.988 82.362L128.281 82.7672L128.287 82.763L127.988 82.362ZM128.366 79.536L128.012 79.8896L128.02 79.8964L128.366 79.536ZM127.25 78.852L127.073 79.3198L127.084 79.3237L127.25 78.852ZM125.396 78.312L125.273 78.7967L125.278 78.7979L125.396 78.312ZM123.128 77.628L122.941 78.0916L122.949 78.0949L123.128 77.628ZM121.67 76.602L121.293 76.9299L121.297 76.9354L121.67 76.602ZM121.58 73.02L121.999 73.2929L122.002 73.2884L121.58 73.02ZM123.128 71.76L123.333 72.2163H123.333L123.128 71.76ZM127.826 71.598L127.683 72.0772L127.693 72.08L127.826 71.598ZM129.626 72.408L130.086 72.6031L130.245 72.228L129.91 71.9965L129.626 72.408ZM129.176 73.47L128.901 73.8875L129.402 74.2179L129.636 73.6651L129.176 73.47ZM127.484 72.696L127.34 73.175L127.349 73.1775L127.484 72.696ZM123.218 73.074L123.521 73.4719L123.522 73.4709L123.218 73.074ZM122.84 75.936L122.48 76.2826L122.486 76.2896L122.494 76.2964L122.84 75.936ZM123.992 76.638L123.819 77.1072L123.827 77.1099L123.834 77.1123L123.992 76.638ZM125.864 77.16L125.984 76.6746L125.984 76.6745L125.864 77.16ZM128.096 77.844L127.909 78.3077L127.921 78.3122L128.096 77.844ZM129.554 78.852L129.177 79.1799L129.181 79.1848L129.554 78.852ZM129.626 82.416L129.209 82.1408L129.207 82.1432L129.626 82.416ZM128.06 83.658L128.255 84.1184L128.262 84.1155L128.06 83.658ZM125.45 83.608C124.569 83.608 123.724 83.4669 122.914 83.1857L122.586 84.1303C123.504 84.4491 124.46 84.608 125.45 84.608V83.608ZM122.916 83.1864C122.115 82.9043 121.531 82.5444 121.132 82.1254L120.408 82.8146C120.945 83.3796 121.681 83.8117 122.584 84.1296L122.916 83.1864ZM121.216 82.6967L121.738 81.6707L120.846 81.2173L120.324 82.2433L121.216 82.6967ZM120.939 81.7976C121.455 82.3144 122.126 82.7203 122.932 83.0272L123.288 82.0928C122.582 81.8237 122.041 81.4856 121.646 81.0904L120.939 81.7976ZM122.939 83.0297C123.749 83.3257 124.588 83.474 125.45 83.474V82.474C124.705 82.474 123.983 82.3463 123.282 82.0903L122.939 83.0297ZM125.45 83.474C126.623 83.474 127.594 83.2645 128.281 82.7671L127.695 81.9569C127.255 82.2755 126.533 82.474 125.45 82.474V83.474ZM128.287 82.763C128.968 82.2559 129.334 81.5717 129.334 80.742H128.334C128.334 81.2323 128.136 81.6281 127.689 81.961L128.287 82.763ZM129.334 80.742C129.334 80.1263 129.139 79.5855 128.713 79.1756L128.02 79.8964C128.217 80.0865 128.334 80.3497 128.334 80.742H129.334ZM128.72 79.1824C128.361 78.8239 127.923 78.5584 127.416 78.3803L127.084 79.3237C127.465 79.4576 127.771 79.6481 128.013 79.8896L128.72 79.1824ZM127.427 78.3844C126.955 78.2057 126.314 78.02 125.514 77.8261L125.278 78.7979C126.062 78.988 126.657 79.1623 127.073 79.3196L127.427 78.3844ZM125.519 77.8273C124.58 77.5896 123.845 77.3671 123.307 77.1611L122.949 78.0949C123.539 78.3209 124.316 78.5544 125.273 78.7967L125.519 77.8273ZM123.315 77.1644C122.823 76.9653 122.4 76.668 122.043 76.2686L121.297 76.9354C121.756 77.448 122.305 77.8347 122.941 78.0916L123.315 77.1644ZM122.048 76.2742C121.751 75.933 121.576 75.4435 121.576 74.748H120.576C120.576 75.6125 120.797 76.359 121.293 76.9298L122.048 76.2742ZM121.576 74.748C121.576 74.2055 121.718 73.7249 121.999 73.2928L121.161 72.7472C120.77 73.3471 120.576 74.0185 120.576 74.748H121.576ZM122.002 73.2884C122.275 72.8594 122.706 72.4971 123.333 72.2163L122.924 71.3037C122.158 71.6469 121.557 72.1246 121.158 72.7516L122.002 73.2884ZM123.333 72.2163C123.946 71.9414 124.735 71.792 125.72 71.792V70.792C124.641 70.792 123.702 70.9546 122.924 71.3037L123.333 72.2163ZM125.72 71.792C126.392 71.792 127.046 71.8871 127.683 72.0771L127.969 71.1189C127.238 70.9009 126.488 70.792 125.72 70.792V71.792ZM127.693 72.08C128.345 72.2597 128.891 72.5084 129.342 72.8194L129.91 71.9965C129.353 71.6116 128.7 71.3203 127.959 71.116L127.693 72.08ZM129.166 72.2129L128.716 73.2749L129.636 73.6651L130.086 72.6031L129.166 72.2129ZM129.451 73.0525C128.881 72.6765 128.269 72.3967 127.619 72.2145L127.349 73.1775C127.899 73.3313 128.415 73.5675 128.901 73.8875L129.451 73.0525ZM127.628 72.2171C126.985 72.0243 126.349 71.926 125.72 71.926V72.926C126.243 72.926 126.783 73.0077 127.34 73.1749L127.628 72.2171ZM125.72 71.926C124.563 71.926 123.602 72.1502 122.914 72.6771L123.522 73.4709C123.962 73.1338 124.669 72.926 125.72 72.926V71.926ZM122.915 72.6761C122.244 73.1871 121.89 73.878 121.89 74.712H122.89C122.89 74.202 123.088 73.8009 123.521 73.4719L122.915 72.6761ZM121.89 74.712C121.89 75.3224 122.075 75.8622 122.48 76.2826L123.2 75.5894C123.005 75.3858 122.89 75.1096 122.89 74.712H121.89ZM122.494 76.2964C122.861 76.6498 123.306 76.9182 123.819 77.1072L124.165 76.1688C123.766 76.0218 123.443 75.8222 123.187 75.5756L122.494 76.2964ZM123.834 77.1123C124.32 77.2744 124.959 77.452 125.745 77.6455L125.984 76.6745C125.21 76.484 124.6 76.3136 124.15 76.1637L123.834 77.1123ZM125.744 77.6454C126.657 77.8705 127.375 78.0919 127.909 78.3076L128.283 77.3804C127.689 77.1401 126.92 76.9055 125.984 76.6746L125.744 77.6454ZM127.921 78.3122C128.42 78.4995 128.836 78.7879 129.177 79.1798L129.932 78.5242C129.48 78.0041 128.924 77.6205 128.272 77.3758L127.921 78.3122ZM129.181 79.1848C129.474 79.5131 129.648 79.9881 129.648 80.67H130.648C130.648 79.8159 130.426 79.0789 129.927 78.5192L129.181 79.1848ZM129.648 80.67C129.648 81.2088 129.502 81.695 129.209 82.1408L130.044 82.6912C130.446 82.081 130.648 81.4032 130.648 80.67H129.648ZM129.207 82.1432C128.936 82.5592 128.5 82.9176 127.858 83.2005L128.262 84.1155C129.036 83.7744 129.644 83.3048 130.045 82.6888L129.207 82.1432ZM127.865 83.1976C127.236 83.4642 126.437 83.608 125.45 83.608V84.608C126.527 84.608 127.468 84.4518 128.255 84.1184L127.865 83.1976ZM140.07 75.072L139.824 75.507L139.829 75.5101L140.07 75.072ZM141.762 76.764L142.199 76.5206L141.762 76.764ZM141.762 81.786L142.199 82.0294L141.762 81.786ZM140.07 83.496L140.314 83.9324L140.317 83.931L140.07 83.496ZM135.57 83.622L135.336 84.064L135.347 84.0692L135.57 83.622ZM134.058 82.218L134.478 81.9464L133.558 80.5249V82.218H134.058ZM134.058 87.492V87.992H134.558V87.492H134.058ZM132.78 87.492H132.28V87.992H132.78V87.492ZM132.78 74.532V74.032H132.28V74.532H132.78ZM134.004 74.532H134.504V74.032H134.004V74.532ZM134.004 76.404H133.504V78.1705L134.43 76.666L134.004 76.404ZM135.516 74.964L135.283 74.5219L135.279 74.5238L135.516 74.964ZM139.368 82.506L139.611 82.9431L139.618 82.9389L139.368 82.506ZM140.628 81.192L140.191 80.9499L140.187 80.9572L140.628 81.192ZM140.628 77.358L140.187 77.5929L140.193 77.604L140.628 77.358ZM139.368 76.044L139.618 75.6111L139.368 76.044ZM135.75 76.044L135.5 75.611L135.496 75.6135L135.75 76.044ZM134.49 77.358L134.053 77.116L134.051 77.1192L134.49 77.358ZM134.49 81.192L134.049 81.4268L134.053 81.434L134.49 81.192ZM135.75 82.506L135.496 82.9366L135.507 82.9431L135.75 82.506ZM137.658 74.96C138.466 74.96 139.184 75.1447 139.824 75.507L140.317 74.637C139.516 74.1833 138.626 73.96 137.658 73.96V74.96ZM139.829 75.5101C140.465 75.8599 140.962 76.3557 141.326 77.0074L142.199 76.5206C141.746 75.7083 141.115 75.0761 140.311 74.6339L139.829 75.5101ZM141.326 77.0074C141.687 77.6566 141.874 78.405 141.874 79.266H142.874C142.874 78.2549 142.653 77.3354 142.199 76.5206L141.326 77.0074ZM141.874 79.266C141.874 80.1402 141.687 80.8943 141.326 81.5426L142.199 82.0294C142.654 81.2137 142.874 80.2878 142.874 79.266H141.874ZM141.326 81.5426C140.962 82.1955 140.463 82.6988 139.824 83.061L140.317 83.931C141.118 83.4772 141.747 82.8405 142.199 82.0294L141.326 81.5426ZM139.826 83.0596C139.201 83.4095 138.482 83.59 137.658 83.59V84.59C138.634 84.59 139.524 84.3745 140.314 83.9324L139.826 83.0596ZM137.658 83.59C136.96 83.59 136.342 83.4487 135.794 83.1748L135.347 84.0692C136.047 84.4193 136.821 84.59 137.658 84.59V83.59ZM135.804 83.1801C135.272 82.8982 134.83 82.4906 134.478 81.9464L133.639 82.4896C134.078 83.1694 134.645 83.6978 135.336 84.0639L135.804 83.1801ZM133.558 82.218V87.492H134.558V82.218H133.558ZM134.058 86.992H132.78V87.992H134.058V86.992ZM133.28 87.492V74.532H132.28V87.492H133.28ZM132.78 75.032H134.004V74.032H132.78V75.032ZM133.504 74.532V76.404H134.504V74.532H133.504ZM134.43 76.666C134.77 76.1144 135.21 75.697 135.753 75.4042L135.279 74.5238C134.575 74.903 134.007 75.4456 133.578 76.142L134.43 76.666ZM135.75 75.4061C136.307 75.1119 136.939 74.96 137.658 74.96V73.96C136.793 73.96 135.998 74.1441 135.283 74.5219L135.75 75.4061ZM137.568 83.456C138.307 83.456 138.992 83.2872 139.611 82.9431L139.125 82.0689C138.665 82.3248 138.149 82.456 137.568 82.456V83.456ZM139.618 82.9389C140.242 82.5789 140.727 82.0713 141.07 81.4268L140.187 80.9572C139.93 81.4407 139.575 81.8091 139.118 82.0731L139.618 82.9389ZM141.066 81.434C141.423 80.7876 141.596 80.0606 141.596 79.266H140.596C140.596 79.9114 140.457 80.4684 140.191 80.95L141.066 81.434ZM141.596 79.266C141.596 78.4717 141.423 77.7487 141.064 77.112L140.193 77.604C140.457 78.0713 140.596 78.6203 140.596 79.266H141.596ZM141.07 77.1232C140.727 76.4787 140.242 75.9711 139.618 75.6111L139.118 76.4769C139.575 76.7409 139.93 77.1093 140.187 77.5928L141.07 77.1232ZM139.618 75.6111C138.998 75.2525 138.311 75.076 137.568 75.076V76.076C138.146 76.076 138.659 76.2115 139.118 76.4769L139.618 75.6111ZM137.568 75.076C136.816 75.076 136.122 75.2517 135.5 75.6111L136 76.4769C136.459 76.2123 136.977 76.076 137.568 76.076V75.076ZM135.496 75.6135C134.887 75.9732 134.406 76.4781 134.053 77.116L134.928 77.6C135.199 77.1099 135.557 76.7388 136.005 76.4745L135.496 75.6135ZM134.051 77.1192C133.706 77.7546 133.54 78.4749 133.54 79.266H134.54C134.54 78.6171 134.675 78.0654 134.93 77.5968L134.051 77.1192ZM133.54 79.266C133.54 80.0573 133.706 80.7817 134.049 81.4268L134.932 80.9572C134.675 80.4743 134.54 79.9147 134.54 79.266H133.54ZM134.053 81.434C134.406 82.0719 134.887 82.5768 135.496 82.9365L136.005 82.0755C135.557 81.8112 135.199 81.4401 134.928 80.95L134.053 81.434ZM135.507 82.9431C136.128 83.2879 136.819 83.456 137.568 83.456V82.456C136.974 82.456 136.452 82.3241 135.993 82.0689L135.507 82.9431ZM146.384 83.478L146.135 83.9117L146.14 83.9147L146.384 83.478ZM144.656 81.75L144.222 81.9988L144.656 81.75ZM144.656 76.782L144.222 76.5332L144.656 76.782ZM146.384 75.072L146.14 74.6353L146.384 75.072ZM151.316 75.072L151.559 74.6353L151.316 75.072ZM153.026 76.782L152.589 77.0254L152.592 77.0308L153.026 76.782ZM153.026 81.75L152.592 81.5011L152.589 81.5066L153.026 81.75ZM151.316 83.478L151.559 83.9148L151.564 83.9117L151.316 83.478ZM150.65 82.506L150.897 82.9407L150.9 82.9389L150.65 82.506ZM151.91 81.192L152.351 81.4268H152.351L151.91 81.192ZM151.91 77.34L152.351 77.1052L151.91 77.34ZM150.65 76.044L150.395 76.4746L150.407 76.4811L150.65 76.044ZM147.032 76.044L147.279 76.4787L147.282 76.4769L147.032 76.044ZM145.772 77.34L145.334 77.0979L145.33 77.1052L145.772 77.34ZM145.772 81.192L145.33 81.4268L145.334 81.434L145.772 81.192ZM147.032 82.506L146.777 82.9366L146.789 82.9431L147.032 82.506ZM148.85 83.59C148.015 83.59 147.278 83.4042 146.627 83.0413L146.14 83.9147C146.953 84.3678 147.86 84.59 148.85 84.59V83.59ZM146.632 83.0443C145.977 82.6684 145.465 82.1562 145.089 81.5012L144.222 81.9988C144.686 82.8078 145.326 83.4476 146.135 83.9117L146.632 83.0443ZM145.089 81.5012C144.717 80.852 144.526 80.1112 144.526 79.266H143.526C143.526 80.2688 143.754 81.184 144.222 81.9988L145.089 81.5012ZM144.526 79.266C144.526 78.4208 144.717 77.68 145.089 77.0308L144.222 76.5332C143.754 77.348 143.526 78.2632 143.526 79.266H144.526ZM145.089 77.0308C145.464 76.377 145.975 75.8722 146.627 75.5087L146.14 74.6353C145.328 75.0878 144.687 75.723 144.222 76.5332L145.089 77.0308ZM146.627 75.5087C147.278 75.1458 148.015 74.96 148.85 74.96V73.96C147.86 73.96 146.953 74.1822 146.14 74.6353L146.627 75.5087ZM148.85 74.96C149.684 74.96 150.421 75.1458 151.072 75.5087L151.559 74.6353C150.746 74.1822 149.839 73.96 148.85 73.96V74.96ZM151.072 75.5087C151.723 75.8715 152.226 76.3746 152.589 77.0254L153.462 76.5386C153.009 75.7254 152.372 75.0885 151.559 74.6353L151.072 75.5087ZM152.592 77.0308C152.964 77.68 153.156 78.4208 153.156 79.266H154.156C154.156 78.2632 153.927 77.348 153.459 76.5332L152.592 77.0308ZM153.156 79.266C153.156 80.1112 152.964 80.852 152.592 81.5012L153.459 81.9988C153.927 81.184 154.156 80.2688 154.156 79.266H153.156ZM152.589 81.5066C152.225 82.1587 151.721 82.6692 151.067 83.0443L151.564 83.9117C152.375 83.4468 153.01 82.8053 153.462 81.9934L152.589 81.5066ZM151.072 83.0413C150.421 83.4042 149.684 83.59 148.85 83.59V84.59C149.839 84.59 150.746 84.3678 151.559 83.9147L151.072 83.0413ZM148.85 83.456C149.599 83.456 150.285 83.2879 150.897 82.9407L150.403 82.0713C149.958 82.3241 149.444 82.456 148.85 82.456V83.456ZM150.9 82.9389C151.523 82.5789 152.008 82.0713 152.351 81.4268L151.468 80.9572C151.211 81.4407 150.856 81.8091 150.399 82.0731L150.9 82.9389ZM152.351 81.4268C152.694 80.7817 152.86 80.0573 152.86 79.266H151.86C151.86 79.9147 151.725 80.4743 151.468 80.9572L152.351 81.4268ZM152.86 79.266C152.86 78.4747 152.694 77.7503 152.351 77.1052L151.468 77.5748C151.725 78.0577 151.86 78.6173 151.86 79.266H152.86ZM152.351 77.1052C152.007 76.4591 151.52 75.9554 150.892 75.6069L150.407 76.4811C150.859 76.7326 151.212 77.0929 151.468 77.5748L152.351 77.1052ZM150.904 75.6135C150.292 75.2517 149.602 75.076 148.85 75.076V76.076C149.441 76.076 149.951 76.2123 150.395 76.4745L150.904 75.6135ZM148.85 75.076C148.097 75.076 147.403 75.2517 146.781 75.6111L147.282 76.4769C147.74 76.2123 148.258 76.076 148.85 76.076V75.076ZM146.785 75.6093C146.172 75.9576 145.688 76.4586 145.334 77.098L146.209 77.582C146.479 77.0934 146.836 76.7304 147.279 76.4787L146.785 75.6093ZM145.33 77.1052C144.987 77.7503 144.822 78.4747 144.822 79.266H145.822C145.822 78.6173 145.956 78.0577 146.213 77.5748L145.33 77.1052ZM144.822 79.266C144.822 80.0573 144.987 80.7817 145.33 81.4268L146.213 80.9572C145.956 80.4743 145.822 79.9147 145.822 79.266H144.822ZM145.334 81.434C145.687 82.0719 146.168 82.5768 146.777 82.9365L147.286 82.0755C146.839 81.8112 146.48 81.4401 146.209 80.95L145.334 81.434ZM146.789 82.9431C147.409 83.2879 148.1 83.456 148.85 83.456V82.456C148.255 82.456 147.734 82.3241 147.274 82.0689L146.789 82.9431ZM157.489 76.386H156.989L157.941 76.5993L157.489 76.386ZM158.821 74.946L158.583 74.506L158.579 74.5081L158.821 74.946ZM161.035 74.46H161.535V73.96H161.035V74.46ZM161.035 75.702L161.005 76.2011L161.535 76.2323V75.702H161.035ZM160.729 75.684L160.758 75.1849L160.743 75.184H160.729V75.684ZM158.389 76.602L158.756 76.9408L158.389 76.602ZM157.543 84V84.5H158.043V84H157.543ZM156.265 84H155.765V84.5H156.265V84ZM156.265 74.532V74.032H155.765V74.532H156.265ZM157.489 74.532H157.989V74.032H157.489V74.532ZM157.941 76.5993C158.198 76.0537 158.571 75.6546 159.062 75.3839L158.579 74.5081C157.895 74.8854 157.379 75.4463 157.036 76.1727L157.941 76.5993ZM159.058 75.386C159.567 75.111 160.219 74.96 161.035 74.96V73.96C160.099 73.96 159.274 74.133 158.583 74.506L159.058 75.386ZM160.535 74.46V75.702H161.535V74.46H160.535ZM161.064 75.2029L160.758 75.1849L160.699 76.1831L161.005 76.2011L161.064 75.2029ZM160.729 75.184C159.623 75.184 158.698 75.5284 158.021 76.2632L158.756 76.9408C159.207 76.4516 159.843 76.184 160.729 76.184V75.184ZM158.021 76.2632C157.347 76.9943 157.043 77.9884 157.043 79.176H158.043C158.043 78.1556 158.302 77.4337 158.756 76.9408L158.021 76.2632ZM157.043 79.176V84H158.043V79.176H157.043ZM157.543 83.5H156.265V84.5H157.543V83.5ZM156.765 84V74.532H155.765V84H156.765ZM156.265 75.032H157.489V74.032H156.265V75.032ZM156.989 74.532V76.386H157.989V74.532H156.989ZM168.739 83.424L169.073 83.7956L169.354 83.543L169.188 83.2039L168.739 83.424ZM167.839 83.928L167.987 84.4056L167.997 84.4023L167.839 83.928ZM164.689 83.37L164.335 83.7236L164.689 83.37ZM163.969 75.612H164.469V75.112H163.969V75.612ZM162.277 75.612H161.777V76.112H162.277V75.612ZM162.277 74.532V74.032H161.777V74.532H162.277ZM163.969 74.532V75.032H164.469V74.532H163.969ZM163.969 72.462V71.962H163.469V72.462H163.969ZM165.247 72.462H165.747V71.962H165.247V72.462ZM165.247 74.532H164.747V75.032H165.247V74.532ZM168.127 74.532H168.627V74.032H168.127V74.532ZM168.127 75.612V76.112H168.627V75.612H168.127ZM165.247 75.612V75.112H164.747V75.612H165.247ZM165.661 82.56L165.293 82.8985L165.3 82.9062L165.307 82.9136L165.661 82.56ZM167.641 82.866L167.483 82.3916L167.476 82.3941L167.641 82.866ZM168.289 82.506L168.738 82.2859L168.452 81.7029L167.961 82.1282L168.289 82.506ZM168.404 83.0524C168.224 83.215 167.987 83.3516 167.681 83.4537L167.997 84.4023C168.411 84.2644 168.774 84.065 169.073 83.7956L168.404 83.0524ZM167.691 83.4505C167.393 83.5428 167.077 83.59 166.741 83.59V84.59C167.172 84.59 167.589 84.5292 167.987 84.4055L167.691 83.4505ZM166.741 83.59C165.943 83.59 165.402 83.3764 165.042 83.0164L164.335 83.7236C164.935 84.3236 165.763 84.59 166.741 84.59V83.59ZM165.042 83.0164C164.681 82.6553 164.469 82.1196 164.469 81.336H163.469C163.469 82.3044 163.737 83.1247 164.335 83.7236L165.042 83.0164ZM164.469 81.336V75.612H163.469V81.336H164.469ZM163.969 75.112H162.277V76.112H163.969V75.112ZM162.777 75.612V74.532H161.777V75.612H162.777ZM162.277 75.032H163.969V74.032H162.277V75.032ZM164.469 74.532V72.462H163.469V74.532H164.469ZM163.969 72.962H165.247V71.962H163.969V72.962ZM164.747 72.462V74.532H165.747V72.462H164.747ZM165.247 75.032H168.127V74.032H165.247V75.032ZM167.627 74.532V75.612H168.627V74.532H167.627ZM168.127 75.112H165.247V76.112H168.127V75.112ZM164.747 75.612V81.264H165.747V75.612H164.747ZM164.747 81.264C164.747 81.905 164.904 82.4759 165.293 82.8985L166.029 82.2215C165.866 82.0441 165.747 81.751 165.747 81.264H164.747ZM165.307 82.9136C165.715 83.3208 166.265 83.492 166.885 83.492V82.492C166.449 82.492 166.183 82.3752 166.014 82.2064L165.307 82.9136ZM166.885 83.492C167.203 83.492 167.511 83.4412 167.806 83.3379L167.476 82.3941C167.291 82.4588 167.095 82.492 166.885 82.492V83.492ZM167.799 83.3403C168.106 83.238 168.381 83.0875 168.616 82.8838L167.961 82.1282C167.836 82.2365 167.68 82.326 167.483 82.3917L167.799 83.3403ZM167.84 82.7261L168.29 83.6441L169.188 83.2039L168.738 82.2859L167.84 82.7261ZM171.389 83.766L171.234 84.2413L171.244 84.2442L171.389 83.766ZM169.751 82.92L169.317 82.6719L169.111 83.0325L169.428 83.3013L169.751 82.92ZM170.327 81.912L170.637 81.5193L170.181 81.1602L169.893 81.6639L170.327 81.912ZM171.821 82.686L171.66 83.1595L171.669 83.1622L171.821 82.686ZM175.601 82.578L175.873 82.9978L175.876 82.9959L175.601 82.578ZM175.889 80.616L175.556 80.9886L175.562 80.9936L175.567 80.9985L175.889 80.616ZM175.025 80.166L174.877 80.6435L174.885 80.6459L174.892 80.648L175.025 80.166ZM173.639 79.86L173.547 80.3515L173.557 80.3532L173.639 79.86ZM171.785 79.428L171.627 79.9025L171.638 79.9059L171.785 79.428ZM170.579 78.654L170.208 78.9885L170.214 78.9952L170.579 78.654ZM171.083 75.216L170.78 74.8186L171.083 75.216ZM175.673 74.712L175.541 75.1942L175.55 75.1965L175.673 74.712ZM177.185 75.342L177.625 75.5809L177.843 75.1795L177.463 74.926L177.185 75.342ZM176.627 76.368L176.343 76.7791L176.801 77.096L177.067 76.6069L176.627 76.368ZM171.983 75.99L171.701 75.5776L171.695 75.5815L171.983 75.99ZM171.713 77.988L171.369 78.3511L171.379 78.3596L171.713 77.988ZM172.595 78.474L172.447 78.9515L172.455 78.9539L172.462 78.956L172.595 78.474ZM174.035 78.78L174.129 78.2888L174.122 78.2876L174.035 78.78ZM175.853 79.212L175.703 79.6888V79.6888L175.853 79.212ZM177.023 79.95L176.658 80.2907L177.023 79.95ZM176.465 83.37L176.753 83.7793L176.754 83.7783L176.465 83.37ZM173.603 83.59C172.883 83.59 172.194 83.4888 171.535 83.2878L171.244 84.2442C172.001 84.4752 172.788 84.59 173.603 84.59V83.59ZM171.545 83.2908C170.887 83.0753 170.406 82.8195 170.075 82.5387L169.428 83.3013C169.889 83.6925 170.5 84.0007 171.234 84.2412L171.545 83.2908ZM170.186 83.1681L170.762 82.1601L169.893 81.6639L169.317 82.6719L170.186 83.1681ZM170.018 82.3047C170.468 82.6596 171.02 82.9416 171.66 83.1594L171.982 82.2126C171.423 82.0224 170.979 81.7884 170.637 81.5193L170.018 82.3047ZM171.669 83.1622C172.32 83.3704 172.995 83.474 173.693 83.474V82.474C173.096 82.474 172.523 82.3856 171.974 82.2098L171.669 83.1622ZM173.693 83.474C174.589 83.474 175.343 83.3409 175.873 82.9978L175.33 82.1582C175.044 82.3431 174.526 82.474 173.693 82.474V83.474ZM175.876 82.9959C176.433 82.6298 176.731 82.0907 176.731 81.426H175.731C175.731 81.7453 175.61 81.9742 175.327 82.1601L175.876 82.9959ZM176.731 81.426C176.731 80.958 176.572 80.5369 176.212 80.2335L175.567 80.9985C175.663 81.0791 175.731 81.1981 175.731 81.426H176.731ZM176.223 80.2434C175.928 79.9795 175.567 79.7968 175.158 79.684L174.892 80.648C175.179 80.7272 175.395 80.8445 175.556 80.9886L176.223 80.2434ZM175.174 79.6885C174.795 79.571 174.308 79.4646 173.722 79.3668L173.557 80.3532C174.122 80.4474 174.56 80.545 174.877 80.6435L175.174 79.6885ZM173.732 79.3686C172.973 79.2263 172.375 79.0863 171.932 78.9501L171.638 79.9059C172.132 80.0577 172.77 80.2057 173.547 80.3514L173.732 79.3686ZM171.944 78.9537C171.555 78.824 171.224 78.6117 170.945 78.3128L170.214 78.9952C170.607 79.4163 171.08 79.72 171.627 79.9023L171.944 78.9537ZM170.951 78.3195C170.733 78.077 170.593 77.712 170.593 77.16H169.593C169.593 77.88 169.778 78.511 170.208 78.9885L170.951 78.3195ZM170.593 77.16C170.593 76.5325 170.844 76.0281 171.387 75.6134L170.78 74.8186C170.003 75.4119 169.593 76.2035 169.593 77.16H170.593ZM171.387 75.6134C171.93 75.1986 172.727 74.96 173.837 74.96V73.96C172.596 73.96 171.557 74.2254 170.78 74.8186L171.387 75.6134ZM173.837 74.96C174.403 74.96 174.971 75.0376 175.541 75.1942L175.806 74.2298C175.152 74.0504 174.496 73.96 173.837 73.96V74.96ZM175.55 75.1965C176.124 75.3428 176.572 75.5338 176.908 75.758L177.463 74.926C177.007 74.6222 176.447 74.3932 175.797 74.2275L175.55 75.1965ZM176.746 75.1031L176.188 76.1291L177.067 76.6069L177.625 75.5809L176.746 75.1031ZM176.912 75.9569C176.037 75.3512 175.005 75.058 173.837 75.058V76.058C174.83 76.058 175.658 76.3048 176.343 76.7791L176.912 75.9569ZM173.837 75.058C172.976 75.058 172.24 75.2076 171.701 75.5776L172.266 76.4024C172.567 76.1964 173.067 76.058 173.837 76.058V75.058ZM171.695 75.5815C171.165 75.9558 170.871 76.4811 170.871 77.124H171.871C171.871 76.8309 171.986 76.6002 172.272 76.3985L171.695 75.5815ZM170.871 77.124C170.871 77.5993 171.027 78.0264 171.37 78.351L172.057 77.625C171.944 77.5176 171.871 77.3687 171.871 77.124H170.871ZM171.379 78.3596C171.679 78.6299 172.039 78.8249 172.447 78.9515L172.744 77.9965C172.456 77.9071 172.228 77.7781 172.048 77.6164L171.379 78.3596ZM172.462 78.956C172.833 79.0581 173.33 79.1633 173.949 79.2724L174.122 78.2876C173.517 78.1807 173.054 78.0819 172.728 77.992L172.462 78.956ZM173.942 79.2712C174.689 79.4134 175.273 79.5531 175.703 79.6888L176.004 78.7352C175.522 78.5829 174.894 78.4346 174.129 78.2888L173.942 79.2712ZM175.703 79.6888C176.077 79.8069 176.393 80.0063 176.658 80.2907L177.389 79.6093C177.006 79.1977 176.542 78.9051 176.004 78.7352L175.703 79.6888ZM176.658 80.2907C176.873 80.5219 177.009 80.8669 177.009 81.39H178.009C178.009 80.6891 177.822 80.0741 177.389 79.6093L176.658 80.2907ZM177.009 81.39C177.009 82.0501 176.745 82.5601 176.177 82.9617L176.754 83.7783C177.578 83.1959 178.009 82.3859 178.009 81.39H177.009ZM176.178 82.9607C175.609 83.3601 174.77 83.59 173.603 83.59V84.59C174.885 84.59 175.954 84.34 176.753 83.7793L176.178 82.9607ZM178.81 87.492L178.378 87.2398L177.939 87.992H178.81V87.492ZM180.376 83.604L180.862 83.7223L180.862 83.7213L180.376 83.604ZM180.376 74.55L179.89 74.6673L179.89 74.6683L180.376 74.55ZM178.81 70.644V70.144H177.939L178.378 70.8962L178.81 70.644ZM180.034 70.644L180.459 70.3798L180.312 70.144H180.034V70.644ZM181.582 74.442L181.097 74.5623L181.098 74.5671L181.582 74.442ZM180.034 87.492V87.992H180.311L180.458 87.7574L180.034 87.492ZM179.242 87.7442C179.975 86.4899 180.515 85.1487 180.862 83.7223L179.89 83.4857C179.566 84.8193 179.062 86.0701 178.378 87.2398L179.242 87.7442ZM180.862 83.7213C181.209 82.286 181.38 80.7341 181.38 79.068H180.38C180.38 80.6659 180.216 82.138 179.89 83.4867L180.862 83.7213ZM181.38 79.068C181.38 77.4019 181.209 75.8557 180.862 74.4317L179.89 74.6683C180.216 76.0043 180.38 77.4701 180.38 79.068H181.38ZM180.862 74.4327C180.515 72.9943 179.975 71.6467 179.242 70.3918L178.378 70.8962C179.061 72.0653 179.565 73.3217 179.89 74.6673L180.862 74.4327ZM178.81 71.144H180.034V70.144H178.81V71.144ZM179.61 70.9081C180.25 71.9367 180.747 73.1524 181.097 74.5623L182.067 74.3217C181.697 72.8276 181.163 71.5113 180.459 70.3798L179.61 70.9081ZM181.098 74.5671C181.458 75.9622 181.64 77.4618 181.64 79.068H182.64C182.64 77.3862 182.45 75.8018 182.066 74.3169L181.098 74.5671ZM181.64 79.068C181.64 80.6754 181.464 82.1764 181.115 83.5727L182.085 83.8153C182.456 82.3316 182.64 80.7486 182.64 79.068H181.64ZM181.115 83.5727C180.766 84.9693 180.263 86.1853 179.61 87.2266L180.458 87.7574C181.174 86.6147 181.714 85.2986 182.085 83.8153L181.115 83.5727ZM180.034 86.992H178.81V87.992H180.034V86.992Z" fill="black"/>
<defs>
<filter id="filter0_i" x="0" y="0" width="200" height="150" filterUnits="userSpaceOnUse" color-interpolation-filters="sRGB">
<feFlood flood-opacity="0" result="BackgroundImageFix"/>
<feBlend mode="normal" in="SourceGraphic" in2="BackgroundImageFix" result="shape"/>
<feColorMatrix in="SourceAlpha" type="matrix" values="0 0 0 0 0 0 0 0 0 0 0 0 0 0 0 0 0 0 127 0" result="hardAlpha"/>
<feMorphology radius="5" operator="erode" in="SourceAlpha" result="effect1_innerShadow"/>
<feOffset/>
<feGaussianBlur stdDeviation="2"/>
<feComposite in2="hardAlpha" operator="arithmetic" k2="-1" k3="1"/>
<feColorMatrix type="matrix" values="0 0 0 0 0 0 0 0 0 0.22 0 0 0 0 1 0 0 0 0.1 0"/>
<feBlend mode="normal" in2="shape" result="effect1_innerShadow"/>
</filter>
<linearGradient id="paint0_linear" x1="4.5" y1="4" x2="194" y2="146.5" gradientUnits="userSpaceOnUse">
<stop offset="0.148958" stop-color="#0038FF"/>
<stop offset="1" stop-color="#0038FF" stop-opacity="0"/>
</linearGradient>
</defs>
</svg>
