<svg width="200" height="200" viewBox="0 0 200 200" fill="none" xmlns="http://www.w3.org/2000/svg">
<g clip-path="url(#clip0)">
<path d="M58.7761 197.913C61.9867 194.744 63.9369 189.737 63.4255 184.863C62.914 179.99 59.7464 175.509 55.6375 174.474C51.5286 173.439 46.8447 176.304 45.5967 180.993C44.9098 171.953 44.1184 162.534 40.0041 154.836C36.2788 147.865 29.8264 142.878 22.8335 141.985C15.8406 141.093 8.47792 144.463 4.1167 150.911C-0.244529 157.358 -1.31236 166.732 1.74214 174.135C3.99227 179.588 8.13781 183.646 12.4813 186.948C26.5167 197.527 43.3503 201.829 59.8849 199.062" fill="#F2F2F2"/>
<path d="M11.0319 144.651C16.8019 150.141 22.0953 156.281 26.8355 162.983C34.2539 173.435 40.2569 185.154 44.6355 197.731C44.956 198.649 43.6806 199.048 43.3636 198.141C40.5792 190.189 37.1343 182.575 33.0784 175.408C26.7536 164.212 19.0049 154.208 10.0992 145.74C9.44079 145.114 10.3789 144.029 11.0319 144.651V144.651Z" fill="black"/>
<path d="M60.9937 197.913C57.7831 194.744 55.8329 189.737 56.3444 184.863C56.8558 179.99 60.0235 175.509 64.1324 174.474C68.2413 173.439 72.9252 176.304 74.1732 180.993C74.86 171.953 75.6515 162.534 79.7657 154.836C83.4911 147.865 89.9435 142.878 96.9364 141.985C103.929 141.093 111.292 144.463 115.653 150.911C120.014 157.358 121.082 166.732 118.028 174.135C115.778 179.588 111.632 183.646 107.289 186.948C93.2531 197.527 76.4195 201.829 59.8849 199.062" fill="#F2F2F2"/>
<path d="M108.738 144.651C102.968 150.141 97.6745 156.281 92.9343 162.983C85.516 173.435 79.5129 185.154 75.1344 197.731C74.8139 198.649 76.0893 199.048 76.4062 198.141C83.5703 177.7 95.0071 159.684 109.671 145.74C110.329 145.114 109.391 144.029 108.738 144.651V144.651Z" fill="black"/>
<path d="M70.5211 89.9694C76.4607 89.9694 81.2756 84.3446 81.2756 77.4061C81.2756 70.4676 76.4607 64.8428 70.5211 64.8428C64.5815 64.8428 59.7665 70.4676 59.7665 77.4061C59.7665 84.3446 64.5815 89.9694 70.5211 89.9694Z" fill="#F2F2F2"/>
<path d="M37.3618 34.0986H111.458V38.8343H46.8208C43.0204 38.8343 39.2572 39.7087 35.7461 41.4077C32.2349 43.1066 29.0446 45.5968 26.3573 48.7361C23.67 51.8753 21.5384 55.6022 20.084 59.7038C18.6296 63.8055 17.8811 68.2016 17.8811 72.6412V126.444H9.77338C9.41499 126.444 9.07129 126.278 8.81788 125.982C8.56447 125.686 8.4221 125.284 8.42209 124.865V67.9055C8.42209 63.4659 9.17063 59.0698 10.625 54.9681C12.0793 50.8665 14.211 47.1397 16.8983 44.0004C19.5856 40.8611 22.7759 38.371 26.287 36.672C29.7982 34.9731 33.5614 34.0986 37.3618 34.0986Z" fill="#F2F2F2"/>
<path d="M51.6139 198.176V126.241H69.6539V198.176C69.6534 198.66 69.4888 199.123 69.1961 199.465C68.9034 199.807 68.5066 200 68.0927 200H53.1751C52.7612 200 52.3644 199.807 52.0717 199.465C51.779 199.123 51.6144 198.66 51.6139 198.176Z" fill="#3F3D56"/>
<path d="M4.60594 124.823V66.3289C4.61494 57.017 7.7855 48.0895 13.422 41.5049C19.0585 34.9204 26.7007 31.2166 34.672 31.2061H111.111V126.849H6.34055C5.88066 126.849 5.43977 126.635 5.11458 126.255C4.78939 125.875 4.60647 125.36 4.60594 124.823ZM110.417 32.0166H34.672C26.8847 32.0269 19.4189 35.6453 13.9124 42.0778C8.40598 48.5104 5.30859 57.2319 5.29978 66.3289V124.823C5.30009 125.145 5.40983 125.454 5.60495 125.682C5.80007 125.91 6.06461 126.039 6.34055 126.039H110.417V32.0166Z" fill="#3F3D56"/>
<path d="M70.521 83.8906C68.8654 83.8884 67.2782 83.1191 66.1075 81.7516C64.9368 80.384 64.2783 78.5298 64.2764 76.5957V24.3161C64.2761 23.9938 64.1664 23.6847 63.9713 23.4568C63.7762 23.2289 63.5116 23.1007 63.2357 23.1003H38.9512C38.4913 23.0997 38.0504 22.886 37.7252 22.5061C37.4 22.1262 37.2171 21.6112 37.2166 21.074V2.02634C37.2171 1.48911 37.4 0.974065 37.7252 0.594187C38.0504 0.214309 38.4913 0.000622103 38.9512 0H75.031C75.4909 0.000614611 75.9318 0.214301 76.257 0.594181C76.5822 0.97406 76.7651 1.48911 76.7656 2.02634V76.5957C76.7638 78.5298 76.1053 80.384 74.9346 81.7516C73.7639 83.1191 72.1766 83.8884 70.521 83.8906Z" fill="#0038FF"/>
<path d="M105.038 32.2579C110.271 32.2451 115.295 34.6614 119.003 38.9754C122.712 43.2895 124.801 49.1477 124.812 55.2615V121.851H163.667C165.228 121.847 166.727 122.568 167.833 123.854C168.939 125.141 169.562 126.888 169.565 128.712H85.2632V55.2615C85.2742 49.1477 87.3637 43.2895 91.0722 38.9754C94.7806 34.6614 99.8042 32.2451 105.038 32.2579Z" fill="#3F3D56"/>
<path d="M109.141 68.3155L113.236 88.0748L193.333 65.4237L189.239 45.6644C189.189 45.4228 189.088 45.1997 188.945 45.0159C188.802 44.832 188.622 44.6933 188.421 44.6127C188.272 44.5517 188.115 44.5241 187.958 44.5313L141.658 16.5265C141.387 16.3647 141.075 16.3214 140.779 16.4046C140.482 16.4878 140.221 16.6919 140.043 16.9801L117.729 53.3302L109.317 67.0375C109.301 67.0615 109.291 67.0891 109.285 67.1183C109.28 67.1475 109.28 67.1778 109.286 67.207C109.115 67.5398 109.063 67.9381 109.141 68.3155Z" fill="white"/>
<path d="M109.286 67.207C109.29 67.2327 109.298 67.2572 109.31 67.2792C109.322 67.3011 109.338 67.3201 109.356 67.335C109.378 67.3524 109.403 67.3644 109.428 67.3703C109.454 67.3763 109.481 67.3761 109.507 67.3696C109.549 67.3566 109.585 67.3269 109.61 67.2856L109.639 67.2389L110.077 66.5233L118.032 53.5692L140.339 17.2275C140.466 17.0216 140.653 16.8758 140.864 16.8166C141.076 16.7574 141.298 16.7887 141.492 16.9048L187.433 44.6927L187.845 44.9427C187.862 44.9509 187.879 44.9579 187.896 44.9636C187.927 44.957 187.959 44.9535 187.99 44.9531C188.034 44.9362 188.069 44.9007 188.091 44.8539C188.102 44.8292 188.109 44.8022 188.111 44.7744C188.113 44.7466 188.111 44.7186 188.104 44.6919C188.097 44.6652 188.085 44.6404 188.07 44.619C188.055 44.5975 188.036 44.5797 188.015 44.5667L187.958 44.5313L141.658 16.5265C141.387 16.3647 141.075 16.3214 140.779 16.4046C140.483 16.4878 140.222 16.6919 140.043 16.9801L117.729 53.3301L109.317 67.0375C109.302 67.0615 109.291 67.089 109.286 67.1183C109.28 67.1475 109.28 67.1778 109.286 67.207Z" fill="#3F3D56"/>
<path d="M133.342 69.221L135.124 69.4521L148.357 71.1645L157.129 72.2989L157.647 72.3662L168.593 62.3785L169.013 61.9959L171.598 59.6372L180.796 51.2456L180.851 50.6561L184.123 16.1621C184.168 15.6871 184.049 15.2108 183.794 14.8377C183.538 14.4646 183.166 14.225 182.76 14.1716L139.098 8.52142C138.691 8.46955 138.284 8.60801 137.964 8.90646C137.645 9.20492 137.44 9.63906 137.394 10.1138L135.087 34.4451L133.807 47.9348L132.662 60.0031L132.131 65.6076L131.977 67.231C131.932 67.7062 132.051 68.1824 132.307 68.5554C132.563 68.9284 132.935 69.1678 133.342 69.221Z" fill="#E6E6E6"/>
<path d="M145.34 38.9863L164.253 41.4333L170.96 42.3008C171.256 42.3392 171.556 42.309 171.842 42.212C172.128 42.115 172.395 41.9531 172.628 41.7356C172.86 41.5181 173.054 41.2492 173.198 40.9443C173.341 40.6393 173.432 40.3043 173.465 39.9584C173.498 39.6125 173.472 39.2624 173.389 38.9281C173.306 38.5939 173.167 38.282 172.981 38.0103C172.795 37.7386 172.565 37.5124 172.304 37.3446C172.042 37.1768 171.756 37.0707 171.46 37.0324L163.117 35.9531L145.841 33.7153C145.243 33.6381 144.643 33.8415 144.173 34.2809C143.703 34.7203 143.402 35.3596 143.335 36.0584C143.269 36.7571 143.443 37.4581 143.819 38.0071C144.195 38.5561 144.742 38.9083 145.34 38.9863Z" fill="white"/>
<path d="M144.263 48.7593C144.312 48.7695 144.361 48.7797 144.41 48.7853L166.365 51.6266L170.031 52.1019C170.629 52.1792 171.229 51.9757 171.699 51.5362C172.169 51.0967 172.47 50.4571 172.536 49.7582C172.602 49.0593 172.428 48.3583 172.052 47.8094C171.676 47.2605 171.128 46.9087 170.53 46.8314L165.23 46.1464L147.838 43.8952L144.912 43.5163C144.326 43.4401 143.739 43.6327 143.273 44.0535C142.807 44.4742 142.499 45.0902 142.415 45.7711C142.331 46.452 142.476 47.1445 142.821 47.7021C143.166 48.2598 143.683 48.6389 144.263 48.7593V48.7593Z" fill="white"/>
<path d="M141.778 57.4252C141.958 57.7742 142.204 58.07 142.498 58.2896C142.792 58.5093 143.125 58.647 143.471 58.6919L152.47 59.8561L168.497 61.9303L168.5 61.9293L169.013 61.996L171.598 59.6372C171.614 59.4581 171.614 59.2775 171.599 59.0982C171.544 58.4966 171.315 57.9347 170.95 57.5055C170.585 57.0763 170.106 56.8055 169.591 56.738L167.365 56.4491L158.533 55.3074L152.179 54.4841L143.97 53.4214C143.55 53.367 143.124 53.4511 142.743 53.6643C142.361 53.8774 142.037 54.2111 141.809 54.6277C141.581 55.0442 141.458 55.5269 141.452 56.0212C141.447 56.5156 141.56 57.0019 141.778 57.4252L141.778 57.4252Z" fill="white"/>
<path d="M154.418 27.0391L159.124 27.6479L161.202 27.9176L164.342 28.3235C164.94 28.4008 165.54 28.1973 166.01 27.7578C166.48 27.3182 166.781 26.6787 166.847 25.9797C166.913 25.2808 166.739 24.5798 166.363 24.031C165.987 23.4821 165.439 23.1303 164.841 23.053L154.919 21.7701C154.321 21.6925 153.721 21.8956 153.251 22.3347C152.781 22.7739 152.48 23.4131 152.413 24.1118C152.347 24.8105 152.521 25.5115 152.897 26.0604C153.272 26.6094 153.82 26.9614 154.418 27.0391V27.0391Z" fill="white"/>
<path d="M115.939 41.7152L121.676 69.4007L131.251 71.5276L140.109 73.4976L149.613 75.61L152.649 76.285C152.827 76.3243 153.01 76.3189 153.186 76.2691C153.361 76.2194 153.526 76.1265 153.669 75.9966L156.105 73.7739L157.647 72.3668L168.594 62.3791L161.634 28.793C161.565 28.4589 161.415 28.155 161.202 27.918C161.015 27.7083 160.786 27.5569 160.536 27.4777C160.286 27.3986 160.023 27.3943 159.771 27.4652L117.075 39.5393C116.678 39.652 116.335 39.9445 116.122 40.3525C115.909 40.7605 115.843 41.2506 115.939 41.7152Z" fill="#0038FF"/>
<path d="M129.094 63.7396C129.236 64.4225 129.604 65.0117 130.118 65.3778C130.632 65.7439 131.249 65.8569 131.833 65.6922L156.886 58.6074C157.471 58.4411 157.975 58.0109 158.288 57.411C158.601 56.8112 158.698 56.0907 158.558 55.4075C158.551 55.3736 158.543 55.3402 158.533 55.3075C158.373 54.6488 158.001 54.088 157.495 53.7427C156.989 53.3973 156.388 53.2942 155.818 53.4549L130.766 60.5397C130.181 60.7056 129.677 61.1358 129.363 61.7357C129.05 62.3357 128.953 63.0564 129.094 63.7396Z" fill="white"/>
<path d="M131.251 71.5279L140.109 73.4978L158.872 68.1918C159.457 68.0264 159.962 67.5963 160.275 66.9962C160.589 66.3961 160.685 65.6751 160.544 64.9919C160.402 64.3086 160.034 63.719 159.52 63.3528C159.006 62.9867 158.389 62.8739 157.804 63.0393L132.752 70.124C132.228 70.2709 131.767 70.632 131.452 71.1418C131.376 71.2637 131.309 71.3928 131.251 71.5279Z" fill="white"/>
<path d="M149.613 75.6095L152.649 76.2845C152.827 76.3238 153.01 76.3184 153.186 76.2686C153.361 76.2189 153.526 76.126 153.669 75.9961L156.105 73.7734L149.613 75.6095Z" fill="white"/>
<path d="M134.142 48.8939C134.284 49.5768 134.652 50.166 135.166 50.5321C135.68 50.8982 136.297 51.0113 136.881 50.8465L146.585 48.1024C147.169 47.9361 147.674 47.5059 147.987 46.906C148.3 46.3062 148.397 45.5857 148.256 44.9025C148.181 44.5354 148.038 44.1916 147.838 43.8949C147.57 43.4937 147.208 43.1913 146.797 43.0237C146.385 42.8562 145.941 42.8305 145.517 42.9499L135.814 45.694C135.229 45.8595 134.724 46.2895 134.411 46.8896C134.097 47.4897 134.001 48.2106 134.142 48.8939V48.8939Z" fill="white"/>
<path d="M140.108 73.4977L149.613 75.6106L152.649 76.2859C152.827 76.3247 153.009 76.3191 153.185 76.2694C153.361 76.2197 153.525 76.1271 153.668 75.9977L156.106 73.7744L155.251 74.0164L153.445 75.6622C153.343 75.7546 153.225 75.8208 153.1 75.8562C152.974 75.8917 152.844 75.8958 152.717 75.8681L150.469 75.3686L140.964 73.2557L140.108 73.4977ZM168.5 61.9317L168.592 62.3782L169.014 61.9954L168.5 61.9317ZM140.108 73.4977L149.613 75.6106L152.649 76.2859C152.827 76.3247 153.009 76.3191 153.185 76.2694C153.361 76.2197 153.525 76.1271 153.668 75.9977L156.106 73.7744L155.251 74.0164L153.445 75.6622C153.343 75.7546 153.225 75.8208 153.1 75.8562C152.974 75.8917 152.844 75.8958 152.717 75.8681L150.469 75.3686L140.964 73.2557L140.108 73.4977ZM140.108 73.4977L149.613 75.6106L152.649 76.2859C152.827 76.3247 153.009 76.3191 153.185 76.2694C153.361 76.2197 153.525 76.1271 153.668 75.9977L156.106 73.7744L155.251 74.0164L153.445 75.6622C153.343 75.7546 153.225 75.8208 153.1 75.8562C152.974 75.8917 152.844 75.8958 152.717 75.8681L150.469 75.3686L140.964 73.2557L140.108 73.4977ZM109.141 68.3156L119.866 120.072C119.946 120.455 120.152 120.785 120.44 120.99C120.728 121.195 121.073 121.258 121.401 121.166L199.028 99.2135C199.355 99.1205 199.638 98.8796 199.813 98.5436C199.989 98.2076 200.043 97.804 199.964 97.4214L189.239 45.6645C189.189 45.4229 189.088 45.1998 188.945 45.0159C188.802 44.8321 188.622 44.6934 188.421 44.6128C188.272 44.5518 188.115 44.5242 187.958 44.5314C187.775 44.5376 187.595 44.5928 187.433 44.6928C187.358 44.7344 187.287 44.7856 187.222 44.8456L180.851 50.6571L171.599 59.1002L168.499 61.9287L168.5 61.9317L168.497 61.9324L157.13 72.2984L155.251 74.0164L153.445 75.6622C153.343 75.7546 153.225 75.8207 153.1 75.8562C152.974 75.8917 152.844 75.8958 152.717 75.8681L150.469 75.3686L140.964 73.2557L131.451 71.142L110.614 66.5099C110.436 66.4688 110.253 66.4734 110.077 66.5234C109.84 66.5911 109.625 66.7368 109.457 66.9433C109.392 67.0244 109.335 67.1127 109.286 67.2071C109.115 67.5399 109.063 67.9382 109.141 68.3156ZM140.108 73.4977L149.613 75.6106L152.649 76.2859C152.827 76.3247 153.009 76.3191 153.185 76.2694C153.361 76.2197 153.525 76.1271 153.668 75.9977L156.106 73.7744L155.251 74.0164L153.445 75.6622C153.343 75.7546 153.225 75.8208 153.1 75.8562C152.974 75.8917 152.844 75.8958 152.717 75.8681L150.469 75.3686L140.964 73.2557L140.108 73.4977ZM140.108 73.4977L149.613 75.6106L152.649 76.2859C152.827 76.3247 153.009 76.3191 153.185 76.2694C153.361 76.2197 153.525 76.1271 153.668 75.9977L156.106 73.7744L155.251 74.0164L153.445 75.6622C153.343 75.7546 153.225 75.8208 153.1 75.8562C152.974 75.8917 152.844 75.8958 152.717 75.8681L150.469 75.3686L140.964 73.2557L140.108 73.4977ZM140.108 73.4977L149.613 75.6106L152.649 76.2859C152.827 76.3247 153.009 76.3191 153.185 76.2694C153.361 76.2197 153.525 76.1271 153.668 75.9977L156.106 73.7744L155.251 74.0164L153.445 75.6622C153.343 75.7546 153.225 75.8208 153.1 75.8562C152.974 75.8917 152.844 75.8958 152.717 75.8681L150.469 75.3686L140.964 73.2557L140.108 73.4977Z" fill="white"/>
<path d="M140.108 73.4977L149.613 75.6106L152.649 76.2859C152.827 76.3247 153.009 76.319 153.185 76.2694C153.361 76.2197 153.525 76.1271 153.668 75.9977L156.106 73.7744L155.251 74.0164L153.445 75.6622C153.343 75.7546 153.225 75.8207 153.1 75.8562C152.974 75.8917 152.844 75.8958 152.717 75.8681L150.469 75.3686L140.964 73.2557L140.108 73.4977ZM168.5 61.9317L168.592 62.3782L169.014 61.9953L168.5 61.9317ZM140.108 73.4977L149.613 75.6106L152.649 76.2859C152.827 76.3247 153.009 76.319 153.185 76.2694C153.361 76.2197 153.525 76.1271 153.668 75.9977L156.106 73.7744L155.251 74.0164L153.445 75.6622C153.343 75.7546 153.225 75.8207 153.1 75.8562C152.974 75.8917 152.844 75.8958 152.717 75.8681L150.469 75.3686L140.964 73.2557L140.108 73.4977ZM140.108 73.4977L149.613 75.6106L152.649 76.2859C152.827 76.3247 153.009 76.319 153.185 76.2694C153.361 76.2197 153.525 76.1271 153.668 75.9977L156.106 73.7744L155.251 74.0164L153.445 75.6622C153.343 75.7546 153.225 75.8207 153.1 75.8562C152.974 75.8917 152.844 75.8958 152.717 75.8681L150.469 75.3686L140.964 73.2557L140.108 73.4977ZM109.639 67.239L109.686 67.2803C109.694 67.2652 109.708 67.2517 109.718 67.2359C109.823 67.1081 109.954 67.0127 110.099 66.9584C110.243 66.9041 110.397 66.8925 110.546 66.9247L131.252 71.5261L140.108 73.4977L149.613 75.6106L152.649 76.2859C152.827 76.3247 153.009 76.319 153.185 76.2694C153.361 76.2197 153.525 76.1271 153.668 75.9977L156.106 73.7744L155.251 74.0163L153.445 75.6621C153.343 75.7546 153.225 75.8207 153.1 75.8562C152.974 75.8917 152.844 75.8957 152.717 75.8681L150.469 75.3686L140.964 73.2557L131.451 71.142L110.614 66.5099C110.436 66.4688 110.253 66.4734 110.077 66.5234L109.639 67.239ZM109.141 68.3156L119.866 120.072C119.946 120.455 120.152 120.785 120.44 120.99C120.728 121.195 121.073 121.258 121.401 121.166L199.028 99.2135C199.355 99.1205 199.638 98.8796 199.813 98.5436C199.989 98.2076 200.043 97.804 199.964 97.4214L189.239 45.6645C189.189 45.4229 189.088 45.1998 188.945 45.0159C188.802 44.8321 188.622 44.6934 188.421 44.6128C188.272 44.5518 188.115 44.5242 187.958 44.5314C187.775 44.5376 187.595 44.5928 187.433 44.6928C187.358 44.7344 187.287 44.7856 187.222 44.8456L180.851 50.6571L171.599 59.1002L168.499 61.9287L168.5 61.9317L168.497 61.9324L157.13 72.2984L155.251 74.0164L153.445 75.6622C153.343 75.7546 153.225 75.8207 153.1 75.8562C152.974 75.8917 152.844 75.8958 152.717 75.8681L150.469 75.3686L140.964 73.2557L131.451 71.142L110.614 66.5099C110.436 66.4688 110.253 66.4734 110.077 66.5234C109.84 66.5911 109.625 66.7368 109.457 66.9433C109.392 67.0243 109.335 67.1127 109.286 67.207C109.115 67.5399 109.063 67.9382 109.141 68.3156ZM109.495 68.2155C109.463 68.063 109.461 67.9041 109.489 67.7505C109.516 67.5969 109.573 67.4525 109.655 67.3278C109.662 67.3095 109.673 67.2933 109.686 67.2803C109.694 67.2652 109.708 67.2517 109.718 67.2359C109.823 67.1081 109.954 67.0127 110.099 66.9584C110.243 66.9041 110.397 66.8925 110.546 66.9247L131.252 71.5261L140.108 73.4977L149.613 75.6106L152.649 76.2859C152.827 76.3247 153.009 76.319 153.185 76.2694C153.361 76.2197 153.525 76.1271 153.668 75.9977L156.106 73.7744L157.648 72.3674L168.592 62.3782L169.014 61.9953L171.597 59.6377L180.797 51.2448L187.448 45.1773C187.549 45.0852 187.666 45.0193 187.79 44.984C187.825 44.974 187.86 44.9673 187.896 44.9637C187.927 44.9571 187.959 44.9536 187.99 44.9532C188.097 44.952 188.202 44.9721 188.303 45.0127C188.446 45.071 188.575 45.1703 188.677 45.3015C188.779 45.4326 188.851 45.5915 188.888 45.7637L199.613 97.5207C199.641 97.6563 199.646 97.7971 199.628 97.935C199.61 98.0729 199.568 98.2052 199.506 98.3244C199.444 98.4435 199.362 98.5472 199.265 98.6294C199.169 98.7116 199.059 98.7707 198.943 98.8034L121.316 120.756C121.081 120.822 120.834 120.776 120.629 120.629C120.424 120.482 120.277 120.246 120.22 119.972L109.495 68.2155ZM140.108 73.4977L149.613 75.6106L152.649 76.2859C152.827 76.3247 153.009 76.3191 153.185 76.2694C153.361 76.2197 153.525 76.1271 153.668 75.9977L156.106 73.7744L155.251 74.0164L153.445 75.6622C153.343 75.7546 153.225 75.8208 153.1 75.8562C152.974 75.8917 152.844 75.8958 152.717 75.8681L150.469 75.3686L140.964 73.2557L140.108 73.4977ZM140.108 73.4977L149.613 75.6106L152.649 76.2859C152.827 76.3247 153.009 76.3191 153.185 76.2694C153.361 76.2197 153.525 76.1271 153.668 75.9977L156.106 73.7744L155.251 74.0164L153.445 75.6622C153.343 75.7546 153.225 75.8208 153.1 75.8562C152.974 75.8917 152.844 75.8958 152.717 75.8681L150.469 75.3686L140.964 73.2557L140.108 73.4977ZM140.108 73.4977L149.613 75.6106L152.649 76.2859C152.827 76.3247 153.009 76.3191 153.185 76.2694C153.361 76.2197 153.525 76.1271 153.668 75.9977L156.106 73.7744L155.251 74.0164L153.445 75.6622C153.343 75.7546 153.225 75.8208 153.1 75.8562C152.974 75.8917 152.844 75.8958 152.717 75.8681L150.469 75.3686L140.964 73.2557L140.108 73.4977Z" fill="#3F3D56"/>
<path d="M178.796 89.0445C178.621 88.1964 178.741 87.3019 179.13 86.5572C179.519 85.8125 180.145 85.2785 180.871 85.0723L190.668 82.3016C191.393 82.0997 192.157 82.2417 192.793 82.6966C193.428 83.1514 193.884 83.8819 194.059 84.7281C194.234 85.5744 194.116 86.4673 193.728 87.2113C193.341 87.9553 192.718 88.4898 191.994 88.6976L182.196 91.4683C181.47 91.6726 180.705 91.5321 180.067 91.0777C179.43 90.6233 178.972 89.8921 178.796 89.0445Z" fill="#0038FF"/>
<path d="M70.5211 79.4325C71.8623 79.4325 72.9496 78.1624 72.9496 76.5956C72.9496 75.0289 71.8623 73.7588 70.5211 73.7588C69.1799 73.7588 68.0926 75.0289 68.0926 76.5956C68.0926 78.1624 69.1799 79.4325 70.5211 79.4325Z" fill="white"/>
</g>
<defs>
<clipPath id="clip0">
<rect width="200" height="200" fill="white"/>
</clipPath>
</defs>
</svg>
