<svg width="100" height="131" viewBox="0 0 100 131" fill="none" xmlns="http://www.w3.org/2000/svg">
<g clip-path="url(#clip0)">
<g opacity="0.1">
<path opacity="0.1" d="M80.0711 106.839C80.0711 106.839 72.9322 105.801 78.2563 118.742C78.2563 118.742 83.1082 116.413 83.3015 111.161C83.3408 110.138 83.0439 109.136 82.4672 108.342C81.8905 107.549 81.0739 107.02 80.1723 106.856L80.0711 106.839Z" fill="#0038FF"/>
<path opacity="0.1" d="M80.176 106.82C80.176 106.82 81.7921 114.035 78.2618 118.743" stroke="#535461" stroke-miterlimit="10"/>
<path opacity="0.1" d="M78.1653 119.409C78.1653 119.409 80.7357 112.314 85.5356 109.682C87.5567 108.592 89.2074 106.798 90.2398 104.567C90.7222 103.505 91.1167 102.395 91.4183 101.252" stroke="#535461" stroke-width="2" stroke-miterlimit="10"/>
<path opacity="0.1" d="M94.4345 99.5755C93.9341 100.28 91.3444 101.311 91.3444 101.311C91.3444 101.311 91.6562 98.2483 92.1566 97.5489C92.2708 97.3664 92.4171 97.2119 92.5865 97.0951C92.756 96.9782 92.945 96.9014 93.1419 96.8694C93.3389 96.8375 93.5396 96.851 93.7317 96.9091C93.9238 96.9672 94.1032 97.0688 94.259 97.2075C94.4147 97.3462 94.5435 97.5192 94.6373 97.7157C94.7312 97.9122 94.7881 98.1282 94.8046 98.3503C94.8212 98.5724 94.797 98.7959 94.7335 99.0072C94.67 99.2184 94.5686 99.4128 94.4355 99.5785L94.4345 99.5755Z" fill="#0038FF"/>
<path opacity="0.1" d="M93.5458 105.154C92.7838 105.441 90.1112 104.728 90.1112 104.728C90.1112 104.728 91.8568 102.351 92.6188 102.064C92.8034 101.98 93.0015 101.938 93.2009 101.943C93.4004 101.947 93.5969 101.997 93.7783 102.09C93.9597 102.183 94.1222 102.317 94.2557 102.483C94.3892 102.649 94.4908 102.844 94.5543 103.056C94.6179 103.267 94.6419 103.491 94.6251 103.714C94.6082 103.937 94.5507 104.153 94.4561 104.35C94.3616 104.546 94.232 104.719 94.0755 104.858C93.9189 104.996 93.7386 105.097 93.5458 105.154Z" fill="#0038FF"/>
<path opacity="0.1" d="M88.7276 111.751C87.941 111.568 85.9548 109.44 85.9548 109.44C85.9548 109.44 88.5325 108.375 89.32 108.558C89.6764 108.669 89.9817 108.928 90.1741 109.282C90.3665 109.636 90.4316 110.059 90.3563 110.464C90.281 110.87 90.0709 111.228 89.7685 111.467C89.466 111.706 89.094 111.807 88.7276 111.75V111.751Z" fill="#0038FF"/>
<path opacity="0.1" d="M84.0789 115.822C83.2759 115.791 80.9972 114.07 80.9972 114.07C80.9972 114.07 83.378 112.531 84.181 112.564C84.5492 112.605 84.8893 112.803 85.1325 113.115C85.3757 113.427 85.5038 113.832 85.4909 114.246C85.4779 114.66 85.3248 115.053 85.0626 115.346C84.8005 115.638 84.4488 115.808 84.0789 115.821V115.822Z" fill="#0038FF"/>
<path opacity="0.1" d="M87.6228 102.73C87.7258 103.623 89.4659 106.004 89.4659 106.004C89.4659 106.004 90.6116 103.207 90.5095 102.314C90.497 102.091 90.4437 101.873 90.353 101.674C90.2624 101.475 90.1362 101.299 89.9823 101.156C89.8284 101.014 89.65 100.909 89.4583 100.847C89.2666 100.785 89.0656 100.768 88.8677 100.796C88.6698 100.825 88.4792 100.898 88.3078 101.013C88.1363 101.127 87.9877 101.28 87.871 101.461C87.7543 101.642 87.6721 101.848 87.6294 102.067C87.5867 102.285 87.5845 102.511 87.6228 102.73V102.73Z" fill="#0038FF"/>
<path opacity="0.1" d="M82.2396 107.573C82.576 108.39 84.873 110.079 84.873 110.079C84.873 110.079 85.2193 107.026 84.883 106.209C84.8113 106.001 84.7022 105.811 84.5625 105.651C84.4228 105.492 84.2553 105.367 84.0705 105.283C83.8858 105.199 83.6876 105.158 83.4882 105.163C83.2888 105.168 83.0925 105.219 82.9114 105.313C82.7303 105.406 82.5682 105.54 82.4352 105.707C82.3022 105.873 82.2011 106.068 82.1382 106.28C82.0752 106.492 82.0517 106.716 82.0692 106.939C82.0866 107.161 82.1446 107.378 82.2396 107.574V107.573Z" fill="#0038FF"/>
<path opacity="0.1" d="M77.5836 113.08C77.7915 113.949 79.8013 116.049 79.8013 116.049C79.8013 116.049 80.6035 113.105 80.3947 112.235C80.3559 112.016 80.2773 111.808 80.1637 111.624C80.0502 111.44 79.9041 111.284 79.7346 111.166C79.5651 111.048 79.3757 110.97 79.1782 110.937C78.9807 110.904 78.7793 110.917 78.5864 110.975C78.3935 111.033 78.2134 111.135 78.057 111.274C77.9007 111.413 77.7715 111.587 77.6775 111.784C77.5835 111.981 77.5267 112.198 77.5105 112.421C77.4944 112.644 77.5193 112.868 77.5836 113.08Z" fill="#0038FF"/>
<path opacity="0.25" d="M94.4345 99.5755C93.9341 100.28 91.3444 101.311 91.3444 101.311C91.3444 101.311 91.6562 98.2483 92.1566 97.5489C92.2708 97.3664 92.4171 97.2119 92.5865 97.0951C92.756 96.9782 92.945 96.9014 93.1419 96.8694C93.3389 96.8375 93.5396 96.851 93.7317 96.9091C93.9238 96.9672 94.1032 97.0688 94.259 97.2075C94.4147 97.3462 94.5435 97.5192 94.6373 97.7157C94.7312 97.9122 94.7881 98.1282 94.8046 98.3503C94.8212 98.5724 94.797 98.7959 94.7335 99.0072C94.67 99.2184 94.5686 99.4128 94.4355 99.5785L94.4345 99.5755Z" fill="black"/>
<path opacity="0.25" d="M93.5458 105.154C92.7838 105.441 90.1112 104.728 90.1112 104.728C90.1112 104.728 91.8568 102.351 92.6188 102.064C92.8034 101.98 93.0015 101.938 93.2009 101.943C93.4004 101.947 93.5969 101.997 93.7783 102.09C93.9597 102.183 94.1222 102.317 94.2557 102.483C94.3892 102.649 94.4908 102.844 94.5543 103.056C94.6179 103.267 94.6419 103.491 94.6251 103.714C94.6082 103.937 94.5507 104.153 94.4561 104.35C94.3616 104.546 94.232 104.719 94.0755 104.858C93.9189 104.996 93.7386 105.097 93.5458 105.154Z" fill="black"/>
<path opacity="0.25" d="M88.7276 111.751C87.941 111.568 85.9548 109.44 85.9548 109.44C85.9548 109.44 88.5325 108.375 89.32 108.558C89.6764 108.669 89.9817 108.928 90.1741 109.282C90.3665 109.636 90.4316 110.059 90.3563 110.464C90.281 110.87 90.0709 111.228 89.7685 111.467C89.466 111.706 89.094 111.807 88.7276 111.75V111.751Z" fill="black"/>
<path opacity="0.25" d="M84.0789 115.822C83.2759 115.791 80.9972 114.07 80.9972 114.07C80.9972 114.07 83.378 112.531 84.181 112.564C84.5492 112.605 84.8893 112.803 85.1325 113.115C85.3757 113.427 85.5038 113.832 85.4909 114.246C85.4779 114.66 85.3248 115.053 85.0626 115.346C84.8005 115.638 84.4488 115.808 84.0789 115.821V115.822Z" fill="black"/>
<path opacity="0.25" d="M87.6228 102.73C87.7258 103.623 89.4659 106.004 89.4659 106.004C89.4659 106.004 90.6116 103.207 90.5095 102.314C90.497 102.091 90.4437 101.873 90.353 101.674C90.2624 101.475 90.1362 101.299 89.9823 101.156C89.8284 101.014 89.65 100.909 89.4583 100.847C89.2666 100.785 89.0656 100.768 88.8677 100.796C88.6698 100.825 88.4792 100.898 88.3078 101.013C88.1363 101.127 87.9877 101.28 87.871 101.461C87.7543 101.642 87.6721 101.848 87.6294 102.067C87.5867 102.285 87.5845 102.511 87.6228 102.73V102.73Z" fill="black"/>
<path opacity="0.25" d="M82.2396 107.573C82.576 108.39 84.873 110.079 84.873 110.079C84.873 110.079 85.2193 107.026 84.883 106.209C84.8113 106.001 84.7022 105.811 84.5625 105.651C84.4228 105.492 84.2553 105.367 84.0705 105.283C83.8858 105.199 83.6876 105.158 83.4882 105.163C83.2888 105.168 83.0925 105.219 82.9114 105.313C82.7303 105.406 82.5682 105.54 82.4352 105.707C82.3022 105.873 82.2011 106.068 82.1382 106.28C82.0752 106.492 82.0517 106.716 82.0692 106.939C82.0866 107.161 82.1446 107.378 82.2396 107.574V107.573Z" fill="black"/>
<path opacity="0.25" d="M77.5836 113.08C77.7915 113.949 79.8013 116.049 79.8013 116.049C79.8013 116.049 80.6035 113.105 80.3947 112.235C80.3559 112.016 80.2773 111.808 80.1637 111.624C80.0502 111.44 79.9041 111.284 79.7346 111.166C79.5651 111.048 79.3757 110.97 79.1782 110.937C78.9807 110.904 78.7793 110.917 78.5864 110.975C78.3935 111.033 78.2134 111.135 78.057 111.274C77.9007 111.413 77.7715 111.587 77.6775 111.784C77.5835 111.981 77.5267 112.198 77.5105 112.421C77.4944 112.644 77.5193 112.868 77.5836 113.08Z" fill="black"/>
<path opacity="0.1" d="M81.5887 122.638C81.5887 122.638 84.1592 115.542 88.9591 112.911C90.9793 111.82 92.6291 110.025 93.6605 107.795C94.1429 106.733 94.5374 105.623 94.8391 104.48" stroke="#535461" stroke-width="2" stroke-miterlimit="10"/>
<path opacity="0.1" d="M97.8535 102.802C97.3531 103.506 94.7636 104.537 94.7636 104.537C94.7636 104.537 95.0753 101.475 95.5757 100.775C95.8241 100.466 96.1686 100.275 96.5387 100.24C96.9089 100.205 97.2768 100.33 97.5675 100.589C97.8582 100.848 98.0498 101.222 98.1031 101.633C98.1564 102.045 98.0674 102.464 97.8544 102.805L97.8535 102.802Z" fill="#0038FF"/>
<path opacity="0.1" d="M96.9667 108.381C96.2047 108.668 93.5322 107.954 93.5322 107.954C93.5322 107.954 95.2777 105.577 96.0397 105.29C96.3977 105.184 96.7785 105.234 97.1047 105.431C97.4309 105.627 97.6781 105.956 97.7961 106.349C97.914 106.742 97.894 107.171 97.7399 107.549C97.5859 107.926 97.3094 108.223 96.9667 108.381V108.381Z" fill="#0038FF"/>
<path opacity="0.1" d="M92.1484 114.981C91.3618 114.798 89.3756 112.671 89.3756 112.671C89.3756 112.671 91.9533 111.606 92.7408 111.789C93.0972 111.9 93.4025 112.159 93.5949 112.513C93.7873 112.866 93.8525 113.289 93.7771 113.695C93.7018 114.1 93.4917 114.459 93.1893 114.697C92.8869 114.936 92.5148 115.037 92.1484 114.98V114.981Z" fill="#0038FF"/>
<path opacity="0.1" d="M87.4989 119.047C86.6959 119.016 84.4172 117.295 84.4172 117.295C84.4172 117.295 86.798 115.758 87.601 115.79C87.9691 115.832 88.3093 116.029 88.5525 116.341C88.7957 116.653 88.9238 117.058 88.9108 117.472C88.8978 117.886 88.7448 118.279 88.4826 118.572C88.2204 118.864 87.8688 119.034 87.4989 119.047V119.047Z" fill="#0038FF"/>
<path opacity="0.1" d="M91.0428 105.96C91.1458 106.854 92.8858 109.234 92.8858 109.234C92.8858 109.234 94.0315 106.437 93.9294 105.544C93.9169 105.321 93.8636 105.103 93.7729 104.904C93.6822 104.705 93.556 104.529 93.4022 104.386C93.2483 104.244 93.0699 104.139 92.8782 104.077C92.6865 104.015 92.4855 103.998 92.2876 104.026C92.0897 104.055 91.8991 104.128 91.7277 104.243C91.5563 104.357 91.4076 104.51 91.2909 104.691C91.1742 104.872 91.092 105.078 91.0493 105.297C91.0066 105.515 91.0044 105.741 91.0428 105.96V105.96Z" fill="#0038FF"/>
<path opacity="0.1" d="M85.6605 110.795C85.9968 111.612 88.2938 113.301 88.2938 113.301C88.2938 113.301 88.6401 110.248 88.3038 109.431C88.1273 109.066 87.8334 108.79 87.4819 108.659C87.1303 108.528 86.7473 108.552 86.4108 108.726C86.0743 108.899 85.8095 109.21 85.6701 109.595C85.5308 109.979 85.5273 110.409 85.6605 110.796V110.795Z" fill="#0038FF"/>
<path opacity="0.1" d="M81.0045 116.308C81.2123 117.178 83.2222 119.277 83.2222 119.277C83.2222 119.277 84.0243 116.333 83.8155 115.464C83.6962 115.071 83.4482 114.744 83.1217 114.549C82.7952 114.354 82.4148 114.305 82.0573 114.413C81.6999 114.52 81.3923 114.776 81.1968 115.127C81.0013 115.479 80.9326 115.901 81.0045 116.308Z" fill="#0038FF"/>
</g>
<path opacity="0.1" d="M1.08014 92.0176C2.66249 99.5927 6.01224 106.141 11.3062 109.315C22.3079 115.911 47.1197 112.509 65.6377 108.6C74.9941 106.632 83.4871 101.195 89.7494 93.164L1.08014 92.0176Z" fill="#0038FF"/>
<path opacity="0.1" d="M98.1859 56.3604H88.0255C87.7926 56.3604 87.5692 56.2567 87.4045 56.0723C87.2398 55.8878 87.1473 55.6376 87.1473 55.3767C87.1473 55.1159 87.2398 54.8657 87.4045 54.6812C87.5692 54.4967 87.7926 54.3931 88.0255 54.3931H89.7819C89.549 54.3931 89.3256 54.2895 89.1609 54.105C88.9962 53.9205 88.9037 53.6703 88.9037 53.4095C88.9037 53.1486 88.9962 52.8984 89.1609 52.7139C89.3256 52.5294 89.549 52.4258 89.7819 52.4258H88.5277C88.2948 52.4258 88.0714 52.3222 87.9067 52.1377C87.742 51.9532 87.6495 51.7031 87.6495 51.4422C87.6495 51.1813 87.742 50.9311 87.9067 50.7466C88.0714 50.5622 88.2948 50.4585 88.5277 50.4585H93.8308C92.654 49.846 91.2786 49.4101 89.6944 49.1814C75.2345 47.1008 70.0718 48.477 68.2507 49.896C66.0038 51.6418 63.4972 52.9261 60.8184 53.5447C51.8958 55.6039 35.2109 58.0847 20.0884 52.7484C12.5722 50.0941 6.98567 54.5779 3.63776 62.0672H99.9496C99.8238 59.8907 99.4474 57.8815 98.7565 56.1215C98.5981 56.2752 98.3955 56.36 98.1859 56.3604Z" fill="#0038FF"/>
<path opacity="0.1" d="M0.217553 76.207C-0.172521 80.6127 -0.0398078 85.0569 0.612231 89.4236L89.8187 93.0774C92.3019 89.878 94.3869 86.3167 96.0169 82.4907L0.217553 76.207ZM35.4998 85.635H33.7433C33.9763 85.635 34.1997 85.7387 34.3644 85.9231C34.529 86.1076 34.6216 86.3578 34.6216 86.6187C34.6216 86.8796 34.529 87.1298 34.3644 87.3142C34.1997 87.4987 33.9763 87.6023 33.7433 87.6023H23.5829C23.35 87.6023 23.1266 87.4987 22.9619 87.3142C22.7972 87.1298 22.7047 86.8796 22.7047 86.6187C22.7047 86.3578 22.7972 86.1076 22.9619 85.9231C23.1266 85.7387 23.35 85.635 23.5829 85.635H25.3393C25.1064 85.635 24.883 85.5314 24.7183 85.3469C24.5536 85.1625 24.4611 84.9123 24.4611 84.6514C24.4611 84.3905 24.5536 84.1403 24.7183 83.9559C24.883 83.7714 25.1064 83.6678 25.3393 83.6678H24.0851C23.8522 83.6678 23.6288 83.5641 23.4641 83.3797C23.2994 83.1952 23.2069 82.945 23.2069 82.6841C23.2069 82.4233 23.2994 82.1731 23.4641 81.9886C23.6288 81.8041 23.8522 81.7005 24.0851 81.7005H34.2456C34.4785 81.7005 34.7019 81.8041 34.8666 81.9886C35.0313 82.1731 35.1238 82.4233 35.1238 82.6841C35.1238 82.945 35.0313 83.1952 34.8666 83.3797C34.7019 83.5641 34.4785 83.6678 34.2456 83.6678H35.4998C35.7327 83.6678 35.9561 83.7714 36.1208 83.9559C36.2855 84.1403 36.378 84.3905 36.378 84.6514C36.378 84.9123 36.2855 85.1625 36.1208 85.3469C35.9561 85.5314 35.7327 85.635 35.4998 85.635Z" fill="#0038FF"/>
<path opacity="0.1" d="M99.9544 62.1367L2.5622 64.7911C1.37817 68.2019 0.597019 72.0578 0.232422 76.0546H98.248C98.888 73.7068 99.3613 71.306 99.6636 68.8747C99.9553 66.5256 100.072 64.253 99.9544 62.1367ZM20.0045 70.8317H18.2481C18.481 70.8317 18.7044 70.9354 18.8691 71.1198C19.0338 71.3043 19.1263 71.5545 19.1263 71.8154C19.1263 72.0762 19.0338 72.3264 18.8691 72.5109C18.7044 72.6954 18.481 72.799 18.2481 72.799H8.08767C7.85475 72.799 7.63137 72.6954 7.46667 72.5109C7.30197 72.3264 7.20945 72.0762 7.20945 71.8154C7.20945 71.5545 7.30197 71.3043 7.46667 71.1198C7.63137 70.9354 7.85475 70.8317 8.08767 70.8317H9.84412C9.6112 70.8317 9.38782 70.7281 9.22312 70.5436C9.05842 70.3592 8.9659 70.109 8.9659 69.8481C8.9659 69.5872 9.05842 69.337 9.22312 69.1525C9.38782 68.9681 9.6112 68.8644 9.84412 68.8644H8.5899C8.35699 68.8644 8.13361 68.7608 7.96891 68.5763C7.80421 68.3919 7.71168 68.1417 7.71168 67.8808C7.71168 67.6199 7.80421 67.3697 7.96891 67.1853C8.13361 67.0008 8.35699 66.8972 8.5899 66.8972H18.7503C18.9832 66.8972 19.2066 67.0008 19.3713 67.1853C19.536 67.3697 19.6285 67.6199 19.6285 67.8808C19.6285 68.1417 19.536 68.3919 19.3713 68.5763C19.2066 68.7608 18.9832 68.8644 18.7503 68.8644H20.0045C20.2375 68.8644 20.4608 68.9681 20.6255 69.1525C20.7902 69.337 20.8828 69.5872 20.8828 69.8481C20.8828 70.109 20.7902 70.3592 20.6255 70.5436C20.4608 70.7281 20.2375 70.8317 20.0045 70.8317V70.8317Z" fill="#0038FF"/>
<path d="M85.5601 130.948C85.5601 130.948 81.4984 105.997 73.7535 101.948C67.1907 98.515 60.0938 96.2007 58.0758 95.5728C57.7744 95.0291 57.4261 94.52 57.0358 94.0527C54.2776 90.8277 52.6205 90.8879 52.3525 90.9277C52.2253 90.2882 52.134 89.6403 52.0791 88.988C52.0709 88.8859 52.0627 88.791 52.0554 88.6899L52.0791 88.6766C52.0627 88.4837 52.0481 88.2846 52.0353 88.0794C53.1612 87.4063 54.1979 86.5607 55.1153 85.567C55.1271 85.6108 55.1371 85.6547 55.1499 85.6997C57.1376 83.8178 59.0842 81.8849 60.9898 79.901C61.5367 79.3282 62.111 78.7065 62.2969 77.899C62.3565 77.6211 62.3795 77.3349 62.3653 77.0496C62.3899 76.437 62.2605 75.8112 62.2386 75.1905C62.2386 75.0884 62.2486 74.9935 62.2605 74.8965C62.3881 73.8807 63.0188 73.0466 63.5365 72.1942C64.83 70.0399 65.5052 67.4946 65.4716 64.8988C65.4858 63.655 65.3322 62.416 65.0159 61.2236C64.6121 59.7106 63.7717 58.1211 62.3726 57.7903C61.8311 57.6627 61.2688 57.7423 60.7164 57.7025C58.4294 57.5391 56.7177 55.4565 54.8938 53.9303C52.6677 52.0765 50.0352 50.9321 47.2755 50.6185C46.4141 50.5164 45.5245 50.5092 44.7051 50.8155C42.8648 51.5015 41.7473 53.6199 39.9744 54.4907C38.6637 55.138 37.1488 55.0328 35.7816 55.5188C33.7462 56.2436 32.0189 58.5815 31.9733 60.9837C31.9733 61.0725 31.9733 61.1613 31.9733 61.2501C31.9733 61.2654 31.9733 61.2807 31.9733 61.295C31.9506 62.5089 32.3379 63.7452 32.3689 64.9876C32.3689 65.0999 32.3704 65.2126 32.3735 65.3256C32.3635 66.667 32.2204 68.0126 31.7837 69.2734C31.5486 69.9523 31.246 70.7384 31.2952 71.4173C31.2678 71.8328 31.3399 72.2228 31.5978 72.5403L32.0381 72.1054C31.8904 73.0004 31.8163 73.9087 31.8166 74.8189C31.8166 79.4068 33.6797 83.5149 36.6183 86.2795C36.6353 86.5851 36.6517 86.9125 36.6675 87.2616C36.7368 88.7746 36.7915 90.6725 36.776 92.7408L32.4774 97.1664L21.4264 102.781C21.4264 102.781 11.3198 105.172 13.4965 121.075L14.5356 130.949H23.7626L23.7416 131.001H37.4368L37.445 130.949H70.0291L70.0227 131.001H71.2988V130.949L85.5601 130.948ZM52.4336 91.1809C52.713 91.828 52.9329 92.5053 53.0899 93.2023C52.7674 92.5316 52.5291 91.8143 52.3817 91.0706L52.3954 91.0982L52.4336 91.1809ZM36.7724 93.2227C36.7724 93.4173 36.7693 93.6137 36.7632 93.8117L36.7414 93.8465C36.7399 93.6363 36.7502 93.4263 36.7724 93.2176V93.2227Z" fill="url(#paint0_linear)"/>
<path d="M56.0386 95.7267L54.2156 115.226L44.4627 118.697C44.4627 118.697 31.7929 116.043 35.0743 108.386C37.4086 102.939 37.3439 93.2061 37.1124 88.0403C37.0212 85.9434 36.8973 84.5989 36.8973 84.5989C36.8973 84.5989 53.4864 68.3665 52.1192 82.9654C51.8548 85.7923 51.8393 88.0025 51.9861 89.7299C52.6014 96.9212 56.0386 95.7267 56.0386 95.7267Z" fill="#FDC2CC"/>
<path opacity="0.03" d="M56.0386 95.7267L54.2156 115.226L44.4627 118.697C44.4627 118.697 31.7929 116.043 35.0743 108.386C37.4086 102.939 37.3439 93.2061 37.1124 88.0403C37.0212 85.9434 36.8973 84.5989 36.8973 84.5989C36.8973 84.5989 53.4864 68.3665 52.1192 82.9654C51.8548 85.7923 51.8393 88.0025 51.9861 89.7299C52.6014 96.9212 56.0386 95.7267 56.0386 95.7267Z" fill="black"/>
<path opacity="0.1" d="M52.1192 82.6592C51.8549 85.4861 51.8394 87.6963 51.9861 89.4237C49.6442 90.8557 46.9702 91.4607 44.3156 91.1592C41.661 90.8576 39.1499 89.6636 37.1123 87.7341C37.0212 85.6372 36.8972 84.2927 36.8972 84.2927C36.8972 84.2927 53.4864 68.0604 52.1192 82.6592Z" fill="black"/>
<path d="M45.6476 90.6232C52.947 90.6232 58.8643 83.9957 58.8643 75.8202C58.8643 67.6447 52.947 61.0171 45.6476 61.0171C38.3483 61.0171 32.431 67.6447 32.431 75.8202C32.431 83.9957 38.3483 90.6232 45.6476 90.6232Z" fill="#FDC2CC"/>
<path opacity="0.03" d="M45.6476 90.6232C52.947 90.6232 58.8643 83.9957 58.8643 75.8202C58.8643 67.6447 52.947 61.0171 45.6476 61.0171C38.3483 61.0171 32.431 67.6447 32.431 75.8202C32.431 83.9957 38.3483 90.6232 45.6476 90.6232Z" fill="black"/>
<path opacity="0.1" d="M23.8629 115.43C23.8629 115.43 28.1469 125.231 28.3748 130.999Z" fill="black"/>
<path opacity="0.1" d="M70.5314 121.046L69.3009 131H70.5314V121.046Z" fill="black"/>
<path opacity="0.1" d="M24.82 130.999L31.6106 113.695C31.6106 113.695 33.5248 109.611 33.9805 105.527C34.4363 101.444 36.8973 95.012 36.8973 95.012C36.8973 95.012 43.0043 86.3343 45.8299 87.5594C48.6556 88.7845 43.3689 93.3786 43.3689 93.3786C43.3689 93.3786 51.1166 96.7475 45.8299 106.752C40.5433 116.757 40.4521 114.92 40.4521 114.92L37.8544 130.999H24.82Z" fill="black"/>
<path d="M24.6377 130.999L31.4283 113.695C31.4283 113.695 33.3425 109.611 33.7982 105.527C34.0881 102.931 35.1882 99.3857 35.9512 97.1469C36.4491 95.6832 37.1819 94.3339 38.1132 93.1654C40.0875 90.6907 43.6733 86.7 45.6476 87.5576C48.4733 88.7826 43.1866 93.3767 43.1866 93.3767C43.1866 93.3767 50.9343 96.7457 45.6476 106.751C40.361 116.755 40.2698 114.918 40.2698 114.918L37.6721 130.997L24.6377 130.999Z" fill="#FDC2CC"/>
<path opacity="0.15" d="M49.7038 67.8059C49.8548 67.8059 49.9772 67.6688 49.9772 67.4996C49.9772 67.3305 49.8548 67.1934 49.7038 67.1934C49.5527 67.1934 49.4303 67.3305 49.4303 67.4996C49.4303 67.6688 49.5527 67.8059 49.7038 67.8059Z" fill="white"/>
<path opacity="0.15" d="M48.4277 68.4187C48.5787 68.4187 48.7011 68.2816 48.7011 68.1124C48.7011 67.9433 48.5787 67.8062 48.4277 67.8062C48.2767 67.8062 48.1543 67.9433 48.1543 68.1124C48.1543 68.2816 48.2767 68.4187 48.4277 68.4187Z" fill="white"/>
<path opacity="0.1" d="M36.2583 57.165C37.5772 56.6872 39.0411 56.7903 40.3062 56.1553C42.0171 55.2957 43.0954 53.2151 44.871 52.5413C45.6622 52.2412 46.5208 52.2524 47.3512 52.3483C50.0214 52.6596 52.5643 53.7849 54.7033 55.602C56.4634 57.1017 58.115 59.1465 60.3217 59.3068C60.855 59.3456 61.3973 59.267 61.9196 59.3926C63.2722 59.7172 64.0826 61.2782 64.4718 62.7615C64.922 64.5195 65.0276 66.3657 64.7812 68.1737C64.5348 69.9816 63.9423 71.7085 63.0444 73.236C62.5449 74.0731 61.936 74.8929 61.8129 75.8903C61.6926 76.8683 62.0645 77.8821 61.8476 78.8397C61.6653 79.6329 61.1184 80.2434 60.5861 80.806C58.7479 82.7532 56.8693 84.6503 54.9503 86.4975C53.9531 82.9488 55.4161 79.1276 55.1882 75.4166C55.0971 73.971 54.6413 72.3927 53.5029 71.7108C52.4373 71.0737 51.0755 71.4045 49.9972 70.7919C48.7941 70.113 48.3 68.5051 47.3904 67.3923C45.8408 65.4935 43.151 65.2485 40.9844 66.106C38.8178 66.9636 37.0467 68.7277 35.3331 70.4479L32.2186 73.577C31.6106 72.8092 32.0718 71.6311 32.4009 70.6715C32.8913 69.233 32.9988 67.6823 32.966 66.155C32.9396 64.9299 32.5622 63.7202 32.5841 62.5278C32.6278 60.1756 34.294 57.8765 36.2583 57.165Z" fill="black"/>
<path d="M36.2583 56.8588C37.5772 56.381 39.0411 56.4841 40.3062 55.8491C42.0171 54.9895 43.0954 52.9089 44.871 52.2351C45.6622 51.935 46.5208 51.9462 47.3512 52.0422C50.0214 52.3535 52.5643 53.4788 54.7033 55.2958C56.4634 56.7955 58.115 58.8404 60.3217 59.0007C60.855 59.0395 61.3973 58.9609 61.9196 59.0864C63.2722 59.4111 64.0826 60.972 64.4718 62.4554C64.922 64.2134 65.0276 66.0596 64.7812 67.8675C64.5348 69.6755 63.9423 71.4024 63.0444 72.9299C62.5449 73.767 61.936 74.5868 61.8129 75.5842C61.6926 76.5622 62.0645 77.576 61.8476 78.5336C61.6653 79.3268 61.1184 79.9373 60.5861 80.4998C58.7479 82.4471 56.8693 84.3442 54.9503 86.1914C53.9531 82.6427 55.4161 78.8215 55.1882 75.1105C55.0971 73.6649 54.6413 72.0866 53.5029 71.4046C52.4373 70.7676 51.0755 71.0984 49.9972 70.4858C48.7941 69.8069 48.3 68.199 47.3904 67.0862C45.8408 65.1873 43.151 64.9423 40.9844 65.7999C38.8178 66.6574 37.0467 68.4216 35.3331 70.1418L32.2186 73.2708C31.6106 72.5031 32.0718 71.325 32.4009 70.3654C32.8913 68.9269 32.9988 67.3761 32.966 65.8489C32.9396 64.6238 32.5622 63.414 32.5841 62.2216C32.6278 59.8695 34.294 57.5704 36.2583 56.8588Z" fill="#865A61"/>
</g>
<path d="M61.7511 46.4515C61.7511 46.4515 63.4789 43.1568 65.2706 43.3962C66.7238 43.5905 67.9459 46.0733 67.9459 46.0733C67.9459 46.0733 70.7541 46.4202 70.75 47.7028C70.7463 48.8554 68.4752 49.536 68.4752 49.536C68.4752 49.536 68.8006 51.6841 67.9459 52.4458C66.6736 53.5795 64.0545 50.5107 64.0545 50.5107C64.0545 50.5107 58.8744 54.3728 58.7897 52.1839C58.7481 51.1098 59.9771 49.7105 59.9771 49.7105C59.9771 49.7105 57.8071 48.0255 58.3318 46.8444C58.8851 45.599 61.7511 46.4515 61.7511 46.4515Z" fill="#0038FF" fill-opacity="0.2" stroke="#0038FF" stroke-width="0.2"/>
<path d="M79.0023 8.66939C79.0023 8.66939 82.4577 0.432474 86.0411 1.03112C88.9476 1.51668 91.3918 7.7237 91.3918 7.7237C91.3918 7.7237 97.0082 8.59091 97 11.7974C96.9926 14.6791 92.4505 16.3804 92.4505 16.3804C92.4505 16.3804 93.1011 21.7509 91.3918 23.655C88.8472 26.4894 83.609 18.8174 83.609 18.8174C83.609 18.8174 73.2487 28.4725 73.0793 23.0002C72.9962 20.3151 75.4542 16.8169 75.4542 16.8169C75.4542 16.8169 71.1143 12.6043 72.1637 9.65146C73.2702 6.53799 79.0023 8.66939 79.0023 8.66939Z" fill="#0038FF" fill-opacity="0.35" stroke="#0038FF" stroke-width="0.2"/>
<path d="M73.1224 38.6039C73.1224 38.6039 68.4264 37.2947 68.7677 35.9371C69.0446 34.8359 72.5833 33.9099 72.5833 33.9099C72.5833 33.9099 73.0777 31.782 74.9058 31.7851C76.5487 31.7879 77.5186 33.5088 77.5186 33.5088C77.5186 33.5088 80.5804 33.2623 81.666 33.9099C83.2819 34.8739 78.908 36.8585 78.908 36.8585C78.908 36.8585 84.4126 40.7837 81.2927 40.8479C79.7619 40.8794 77.7675 39.9481 77.7675 39.9481C77.7675 39.9481 75.3658 41.5924 73.6823 41.1948C71.9073 40.7756 73.1224 38.6039 73.1224 38.6039Z" fill="#0038FF" fill-opacity="0.5" stroke="#0038FF" stroke-width="0.2"/>
<path d="M84.22 13.4945C84.22 13.1345 84.3 12.8378 84.46 12.6045C84.6267 12.3645 84.8667 12.1045 85.18 11.8245C85.42 11.6111 85.5967 11.4278 85.71 11.2745C85.83 11.1145 85.89 10.9345 85.89 10.7345C85.89 10.4545 85.7767 10.2278 85.55 10.0545C85.3233 9.88112 85.02 9.79445 84.64 9.79445C83.92 9.79445 83.3767 10.0511 83.01 10.5645L82.04 9.93445C82.3267 9.54112 82.6967 9.24112 83.15 9.03445C83.6033 8.82112 84.1367 8.71445 84.75 8.71445C85.4967 8.71445 86.09 8.87779 86.53 9.20445C86.9767 9.52445 87.2 9.96779 87.2 10.5345C87.2 10.8078 87.1533 11.0478 87.06 11.2545C86.9733 11.4611 86.8667 11.6378 86.74 11.7845C86.6133 11.9245 86.4467 12.0878 86.24 12.2745C85.9867 12.5011 85.7967 12.7011 85.67 12.8745C85.55 13.0478 85.49 13.2545 85.49 13.4945H84.22ZM84.86 15.8845C84.6267 15.8845 84.4333 15.8111 84.28 15.6645C84.1333 15.5111 84.06 15.3245 84.06 15.1045C84.06 14.8845 84.1333 14.7011 84.28 14.5545C84.4333 14.4078 84.6267 14.3345 84.86 14.3345C85.0867 14.3345 85.2733 14.4078 85.42 14.5545C85.5733 14.7011 85.65 14.8845 85.65 15.1045C85.65 15.3245 85.5733 15.5111 85.42 15.6645C85.2733 15.8111 85.0867 15.8845 84.86 15.8845Z" fill="#0038FF"/>
<defs>
<linearGradient id="paint0_linear" x1="49.3738" y1="130.999" x2="49.3738" y2="50.55" gradientUnits="userSpaceOnUse">
<stop stop-color="#0038FF"/>
<stop offset="0.54" stop-color="#808080" stop-opacity="0.12"/>
<stop offset="1" stop-color="#808080" stop-opacity="0.1"/>
</linearGradient>
<clipPath id="clip0">
<rect width="100" height="82.8778" fill="white" transform="translate(0 48.1221)"/>
</clipPath>
</defs>
</svg>
