<svg width="510" height="453" viewBox="0 0 510 453" fill="none" xmlns="http://www.w3.org/2000/svg">
<g opacity="0.5">
<path opacity="0.5" d="M503.422 211.19H454.151C450.518 211.19 447.573 214.821 447.573 219.3V280.046C447.573 284.525 450.518 288.156 454.151 288.156H503.422C507.055 288.156 510 284.525 510 280.046V219.3C510 214.821 507.055 211.19 503.422 211.19Z" fill="#D0D2D5"/>
<path opacity="0.1" d="M469.935 233.309H487.639C487.639 233.309 502.546 249.392 487.639 266.048H469.935C469.935 266.048 455.027 251.115 469.935 233.309Z" fill="black"/>
<path opacity="0.5" d="M474.128 242.493H471.799V251.109H474.128V242.493Z" fill="#3F3D56"/>
<path opacity="0.5" d="M485.775 241.345H483.445V251.683H485.775V241.345Z" fill="#3F3D56"/>
<path opacity="0.5" d="M478.786 256.278C479.528 256.278 480.239 256.642 480.763 257.288C481.287 257.934 481.582 258.811 481.582 259.725V262.597H475.991V259.725C475.991 258.811 476.286 257.934 476.81 257.288C477.334 256.642 478.045 256.278 478.786 256.278Z" fill="#3F3D56"/>
</g>
<path d="M289.666 136.965C291.142 136.925 292.615 137.063 294.087 136.965C295.433 136.884 296.77 136.615 298.116 136.448C300.418 136.167 302.738 136.189 305.049 136.069C306.567 135.988 308.17 135.805 309.4 134.702C310.555 133.674 311.198 131.997 312.228 130.779C316.421 125.811 319.295 119.165 323.022 113.651C323.954 112.25 324.927 110.854 325.771 109.355C327.387 106.483 328.529 103.226 329.665 100.01C330.113 98.8175 330.487 97.5848 330.783 96.3224C330.993 95.3116 331.1 94.2662 331.38 93.2783C331.957 91.2565 333.346 89.4874 333.513 87.3565L333.318 87.391C335.014 84.7317 334.753 80.0965 335.591 76.6905C336.127 74.6675 336.777 72.6927 337.534 70.7802L340.651 62.4116C341.186 60.9757 341.745 59.4938 342.673 58.391C343.795 57.0528 345.361 56.3865 346.488 55.0539C347.159 54.2335 347.66 53.2271 347.951 52.1189L348.049 52.2338C348.645 52.9518 349.111 53.8305 349.693 54.5715C350.946 56.1682 352.684 57.0815 353.961 58.6495C354.613 59.4479 355.149 60.4186 355.936 60.9987C356.338 61.2694 356.799 61.3779 357.253 61.3089C357.708 61.2399 358.134 60.9968 358.47 60.6138C360.758 58.1326 364.168 57.9028 366.642 55.7145C367.326 55.1056 367.923 54.3647 368.566 53.6984C370.101 52.1905 371.768 50.8997 373.537 49.8502C374.574 49.871 375.606 50.0524 376.607 50.3901C378.042 50.8783 379.444 51.6881 380.935 51.6537C382.266 51.5728 383.541 50.969 384.573 49.9306C385.332 49.2069 386.027 48.2075 386.138 47.0587C386.167 46.4691 386.081 45.8796 385.886 45.3399C385.691 44.8001 385.395 44.3259 385.02 43.9571C384.918 43.848 384.811 43.7503 384.704 43.6527C384.672 43.1372 384.556 42.6349 384.363 42.176C384.17 41.717 383.904 41.3109 383.581 40.9819C382.826 40.2532 381.964 39.7111 381.042 39.3851C380.529 39.1367 379.989 38.9857 379.439 38.9371C378.582 38.9946 377.74 39.2377 376.951 39.6551C375.366 40.2846 373.731 40.7081 372.074 40.9187C371.78 40.9532 371.184 40.8785 370.676 40.8727L370.504 40.2639C368.566 41.3667 366.311 40.4592 364.187 40.4649C363.152 40.4649 362.123 40.6889 361.093 40.7694C359.953 40.8249 358.811 40.7942 357.674 40.6775L354.231 40.4075C352.761 40.3143 351.296 40.1226 349.842 39.8331C349.456 38.8625 349.069 37.8918 348.636 36.9613C347.906 35.3972 347.049 33.9288 346.078 32.5788C346.468 32.1647 346.879 31.7811 347.308 31.4301L347.392 31.3669C347.499 31.2923 347.629 31.2118 347.774 31.1314C349.118 31.9193 350.601 32.2752 352.086 32.166C353.572 32.0568 355.01 31.486 356.269 30.5069C357.527 29.5278 358.564 28.172 359.283 26.5659C360.001 24.9599 360.379 23.1556 360.38 21.3212C360.635 21.2001 360.884 21.0601 361.126 20.9019C361.265 20.81 361.405 20.7124 361.54 20.6032L361.741 20.4367C361.868 20.3177 361.989 20.1892 362.104 20.0518C362.16 19.9829 362.216 19.914 362.267 19.8393C362.369 19.6906 362.458 19.5288 362.533 19.3568C362.561 19.2879 362.589 19.2247 362.612 19.1558C362.635 19.0869 362.612 19.1041 362.635 19.0754C362.658 19.0467 362.668 18.972 362.682 18.9261C362.696 18.8801 362.682 18.8571 362.705 18.8227L362.733 18.6848C362.735 18.6485 362.735 18.612 362.733 18.5757C362.733 18.5297 362.733 18.4838 362.733 18.4436V18.323C362.731 18.2809 362.731 18.2387 362.733 18.1966C362.735 18.1545 362.735 18.1123 362.733 18.0703C362.733 18.03 362.733 17.9841 362.733 17.9439C362.735 17.9018 362.735 17.8596 362.733 17.8175V17.6625C362.735 17.6185 362.735 17.5743 362.733 17.5303C362.733 17.4901 362.733 17.4499 362.733 17.4097V17.2719V17.157C362.733 17.1053 362.733 17.0536 362.733 17.0077C362.735 16.9733 362.735 16.9387 362.733 16.9043C362.736 16.8507 362.736 16.797 362.733 16.7435C362.733 16.709 362.733 16.6803 362.733 16.6516C362.733 16.6228 362.733 16.5367 362.7 16.4792V16.3988L362.658 16.215V16.1461C362.658 16.0829 362.626 16.0198 362.612 15.9566V15.8991L362.556 15.6924V15.6579C362.556 15.5603 362.505 15.4569 362.477 15.3592C362.127 14.1186 361.75 12.8837 361.349 11.666C361.057 10.6471 360.619 9.70145 360.054 8.87459C359.23 7.79477 358.046 7.25486 357.059 6.39331C355.894 5.38242 355.023 3.95224 354.035 2.67714C353.048 1.40203 351.85 0.247549 350.429 0.0350317C349.301 -0.0461109 348.173 0.207989 347.14 0.77597C338.582 4.6702 331.575 12.3438 323.903 18.4321C320.916 20.8043 317.571 23.0271 314.035 22.7227L317.157 28.834C317.306 29.1326 317.459 29.4083 317.623 29.7185C317.786 30.0286 317.949 30.2929 318.121 30.58C318.561 31.3243 319.117 31.9531 319.756 32.4295C319.917 32.5451 320.086 32.6449 320.259 32.7282C320.412 32.7988 320.567 32.8582 320.725 32.9062C321.839 33.2336 323.055 32.9579 324.182 32.6822C324.569 32.5903 324.955 32.4927 325.337 32.3836L325.803 32.2227H325.878C325.878 32.2572 325.878 32.2859 325.878 32.3146C325.617 32.889 325.37 33.4117 325.151 33.9803C324.432 36.0386 323.875 38.1774 323.488 40.3673C322.607 44.6751 321.722 49.0748 321.955 53.4974C322.034 54.9908 322.239 56.5186 321.89 57.9545C321.722 58.661 321.424 59.3847 321.582 60.0854C321.749 60.4901 321.892 60.9085 322.011 61.3376C322.086 62.0038 321.657 62.5782 321.35 63.1296C321.042 63.681 320.884 64.5598 321.322 64.9446C320.878 65.1361 320.487 65.4772 320.193 65.929C319.899 66.3809 319.714 66.9253 319.658 67.5005C319.668 67.8387 319.614 68.175 319.5 68.4827C319.369 68.6907 319.212 68.8711 319.034 69.0169C318.561 69.5062 318.251 70.1933 318.163 70.9468C317.264 70.9468 316.504 72.0266 315.685 72.6699C314.967 73.1177 314.208 73.4571 313.425 73.6808C311.175 74.5653 309.232 76.3861 307.476 78.3045C306.498 79.3556 305.51 80.5158 305.081 82.0206C304.942 82.5146 304.867 83.0315 304.746 83.5312C304.495 84.4988 304.131 85.416 303.665 86.2537C302.772 87.9487 301.672 89.4637 300.404 90.7453C299.762 91.3822 299.197 92.1288 298.727 92.9624C298.014 94.2317 296.565 94.6108 295.801 95.8342C295.526 96.4369 295.215 97.0129 294.869 97.5573C294.278 98.2466 293.383 98.304 292.629 98.7061C290.863 99.6078 290.048 102.152 288.473 103.496C288.386 103.587 288.274 103.632 288.161 103.623C288.026 103.623 287.946 103.422 287.83 103.324C287.602 103.134 287.299 103.278 287.029 103.364C286.759 103.45 286.395 103.416 286.325 103.083C282.528 100.245 278.797 97.1668 274.995 94.3294L273.262 93.0371L263.991 86.1102C263.882 86.0256 263.755 85.9807 263.626 85.9807C263.496 85.9807 263.37 86.0256 263.26 86.1102L262.971 86.3571C262.505 85.7483 261.988 85.2084 261.681 84.7604C261.555 84.5823 261.429 84.4043 261.299 84.232C261.383 84.2358 261.468 84.2161 261.545 84.1745C261.65 84.1048 261.728 83.9888 261.766 83.8501C261.803 83.7114 261.796 83.5604 261.746 83.4278C261.647 83.1661 261.5 82.9361 261.317 82.7558C260.912 82.2716 260.54 81.7471 260.204 81.1878C259.842 80.4871 259.432 79.8261 258.979 79.212C258.749 78.9046 258.467 78.665 258.153 78.5108C257.838 78.3567 257.499 78.292 257.162 78.3217C256.787 78.4102 256.429 78.5877 256.109 78.8444C254.835 79.757 253.66 80.8669 252.615 82.147C252.569 82.1877 252.531 82.2411 252.504 82.3028C252.477 82.3646 252.463 82.4331 252.461 82.5031C252.461 82.618 252.554 82.7041 252.563 82.8133C252.566 82.9197 252.534 83.0229 252.475 83.1004C251.848 84.06 251.104 84.8949 250.271 85.576C249.088 86.6673 247.931 87.8007 246.801 88.9762C246.093 89.5965 245.533 90.4395 245.179 91.4173C244.933 92.5516 245.034 93.7581 245.464 94.8061C246.237 97.0519 247.593 98.9129 248.934 100.711C249.154 101.081 249.467 101.351 249.824 101.48C250.108 101.528 250.396 101.442 250.63 101.239C251.455 100.573 251.59 99.1943 251.65 97.9881C251.674 97.4137 251.702 96.8853 251.73 96.3339C251.728 96.2234 251.745 96.1137 251.781 96.0123C251.852 95.8871 251.95 95.7895 252.065 95.7309L253.346 94.898C253.309 94.8233 253.267 94.7487 253.225 94.674C254.191 94.227 255.243 94.1431 256.249 94.4328C256.929 94.6797 257.553 95.1795 258.205 95.4896C258.101 96.5615 258.264 97.647 258.671 98.6027C261.061 98.9071 263.213 100.217 265.352 101.538C267.076 102.591 268.752 103.759 270.374 105.036C271.691 106.092 272.98 107.197 274.241 108.35C276.029 109.981 277.758 111.71 279.468 113.456C280.579 114.665 281.775 115.751 283.041 116.701C286.404 119.027 290.914 119.108 294.003 116.207C297.898 112.548 302.854 110.647 307.047 107.482C308.293 106.624 309.431 105.546 310.425 104.283C310.416 104.432 310.397 104.58 310.369 104.725C310.117 106.156 309.116 107.19 308.738 108.637C308.445 109.786 308.552 111.112 307.984 112.083C307.55 112.824 306.74 113.353 306.716 114.266C306.716 114.518 306.777 114.771 306.777 115.024C306.753 115.344 306.677 115.655 306.553 115.937C306.088 117.23 305.566 118.585 304.611 119.383C304.238 119.699 303.763 119.986 303.679 120.532C303.674 120.69 303.64 120.845 303.581 120.986C303.423 121.256 303.073 121.112 302.822 121.227C302.472 121.388 302.416 121.945 302.277 122.376C302.149 122.734 301.933 123.033 301.66 123.231C301.386 123.429 301.069 123.515 300.753 123.479C297.571 123.002 294.445 124.777 291.24 124.673C290.136 124.633 289.037 124.495 287.928 124.484C284.527 124.449 281.196 125.633 277.921 126.781C277.556 127.576 277.33 128.457 277.259 129.366C276.14 129.72 274.973 129.775 273.835 129.527C273.552 129.458 273.266 129.41 272.978 129.383C273.06 129.124 273.086 128.843 273.053 128.568C271.714 129.091 270.428 129.798 269.218 130.676C268.422 131.25 267.579 132.054 267.504 133.186C267.493 133.622 267.543 134.057 267.653 134.472L268.086 136.5C268.139 136.875 268.273 137.226 268.473 137.516C268.617 137.689 268.808 137.792 268.939 137.976C269.066 138.193 269.152 138.442 269.19 138.705L269.554 140.463C269.689 141.048 269.786 141.645 269.843 142.249C269.885 142.823 269.843 143.352 269.875 143.903C269.924 144.812 270.032 145.715 270.197 146.603L270.714 149.785C270.83 150.674 271.035 151.542 271.324 152.369C271.543 152.944 271.837 153.438 272.014 154.012C272.153 154.454 272.219 154.925 272.386 155.345C272.688 156.026 273.163 156.567 273.737 156.884C273.938 157.03 274.162 157.116 274.394 157.137C275.056 157.137 275.531 156.379 275.838 155.655C276.451 154.339 276.783 152.853 276.803 151.336C276.803 150.727 276.705 150.124 276.663 149.515C276.551 147.792 276.952 146.115 276.952 144.397C276.967 144.167 276.917 143.937 276.811 143.747C276.705 143.557 276.549 143.417 276.37 143.352C276.411 141.893 276.407 140.348 277.031 139.102C277.341 138.522 277.724 138.007 278.168 137.579C278.34 138.257 278.531 138.929 278.745 139.584C282.291 138.309 285.953 137.08 289.666 136.965ZM365.412 48.7588C365.16 48.8737 364.904 48.9886 364.643 49.092C362.472 49.9823 359.984 50.8496 357.739 50.2407C357.058 49.9986 356.418 49.6096 355.847 49.092L355.684 48.9656C358.848 48.2821 362.151 48.4487 365.412 48.7588Z" fill="url(#paint0_linear)"/>
<path d="M378.018 42.848C378.802 42.4336 379.64 42.1944 380.492 42.1415C381.038 42.1927 381.576 42.3456 382.085 42.5952C383.006 42.9264 383.866 43.4724 384.619 44.2035C384.992 44.5745 385.288 45.0489 385.483 45.588C385.678 46.1271 385.767 46.7155 385.742 47.3051C385.635 48.4538 384.946 49.4475 384.191 50.1769C383.167 51.2142 381.899 51.8183 380.576 51.9C379.094 51.9287 377.697 51.1074 376.266 50.6192C375.226 50.2564 374.152 50.0633 373.07 50.0448C372.526 50.081 371.981 50.0386 371.445 49.9184C371.176 49.8559 370.923 49.7162 370.706 49.5107C370.489 49.3051 370.314 49.0395 370.196 48.7352C370.061 48.173 370.061 47.5744 370.196 47.0121C370.303 46.2999 370.285 44.6113 370.797 44.1862C371.207 43.8416 372.661 44.1173 373.164 44.0656C374.812 43.873 376.44 43.4648 378.018 42.848Z" fill="#FBBEBE"/>
<path d="M344.76 31.286C346.171 32.9876 347.386 34.9202 348.37 37.0297C350.01 40.5563 351.054 44.6573 353.523 47.3684C354.179 48.0492 354.875 48.6693 355.605 49.2236C356.176 49.7409 356.816 50.1298 357.497 50.3723C359.714 50.9869 362.202 50.1311 364.364 49.2236C366.504 48.2767 368.58 47.1245 370.574 45.7774C370.588 46.887 370.838 47.9726 371.301 48.9249C371.818 49.8267 372.875 50.3551 373.63 49.7865C371.718 50.8939 369.916 52.268 368.258 53.8817C367.62 54.548 367.028 55.2832 366.348 55.8863C363.893 58.0631 360.497 58.2814 358.228 60.7512C357.892 61.1293 357.468 61.3685 357.016 61.4354C356.565 61.5023 356.107 61.3937 355.708 61.1245C354.92 60.5502 354.385 59.5623 353.737 58.7639C352.461 57.1901 350.728 56.2711 349.474 54.6686C348.892 53.9277 348.426 53.0489 347.83 52.3252C346.977 51.2913 345.869 50.6021 345.086 49.4533C344.504 48.609 344.154 47.5809 343.609 46.6791C343.143 45.898 342.593 45.2145 342.179 44.3816C341.163 42.3886 341.173 39.7867 341.755 37.5524C342.337 35.3181 343.674 33.2331 344.76 31.286Z" fill="#F86D70"/>
<path opacity="0.1" d="M344.76 31.286C346.171 32.9876 347.386 34.9202 348.37 37.0297C350.01 40.5563 351.054 44.6573 353.523 47.3684C354.179 48.0492 354.875 48.6693 355.605 49.2236C356.176 49.7409 356.816 50.1298 357.497 50.3723C359.714 50.9869 362.202 50.1311 364.364 49.2236C366.504 48.2767 368.58 47.1245 370.574 45.7774C370.588 46.887 370.838 47.9726 371.301 48.9249C371.818 49.8267 372.875 50.3551 373.63 49.7865C371.718 50.8939 369.916 52.268 368.258 53.8817C367.62 54.548 367.028 55.2832 366.348 55.8863C363.893 58.0631 360.497 58.2814 358.228 60.7512C357.892 61.1293 357.468 61.3685 357.016 61.4354C356.565 61.5023 356.107 61.3937 355.708 61.1245C354.92 60.5502 354.385 59.5623 353.737 58.7639C352.461 57.1901 350.728 56.2711 349.474 54.6686C348.892 53.9277 348.426 53.0489 347.83 52.3252C346.977 51.2913 345.869 50.6021 345.086 49.4533C344.504 48.609 344.154 47.5809 343.609 46.6791C343.143 45.898 342.593 45.2145 342.179 44.3816C341.163 42.3886 341.173 39.7867 341.755 37.5524C342.337 35.3181 343.674 33.2331 344.76 31.286Z" fill="black"/>
<path d="M261.96 84.3288C261.599 83.7448 261.154 83.2483 260.646 82.8641C259.875 82.4425 259.015 82.3339 258.191 82.554C256.113 82.9446 254.185 84.1163 252.358 85.4258C250.886 86.4655 249.423 87.6199 248.371 89.2569C248.024 89.7504 247.782 90.3426 247.667 90.98C247.607 91.506 247.644 92.0418 247.774 92.548C247.868 93.118 248.066 93.6538 248.355 94.1139C248.643 94.5741 249.014 94.9462 249.437 95.2016C250.411 95.6726 251.497 95.1729 252.475 94.7134C253.789 94.0874 255.233 93.5072 256.584 94.0012C257.586 94.3688 258.447 95.305 259.505 95.3395C260.749 95.3854 261.755 94.1448 262.547 92.9616C263.232 91.9277 264.732 90.061 264.634 88.6079C264.536 87.1547 262.696 85.3684 261.96 84.3288Z" fill="#FBBEBE"/>
<path d="M277.66 129.032C276.52 129.407 275.327 129.467 274.166 129.21C273.458 129.049 272.591 128.843 272.139 129.526C271.994 129.779 271.896 130.07 271.855 130.376C270.695 136.229 271.757 142.438 273.718 147.981C273.743 148.074 273.788 148.158 273.849 148.222C273.975 148.337 274.147 148.256 274.292 148.182C274.766 147.947 275.21 147.627 275.61 147.234C276.504 146.235 276.695 144.609 276.737 143.121C276.779 141.634 276.761 140.06 277.385 138.785C278.168 137.205 279.803 136.436 280.446 134.764C280.963 133.403 280.693 131.789 280.236 130.399C280.082 129.917 280.022 128.676 279.658 128.441C279.295 128.205 278.074 128.894 277.66 129.032Z" fill="#FBBEBE"/>
<path d="M261.825 83.7433C261.929 83.6727 262.006 83.5562 262.043 83.4176C262.079 83.279 262.071 83.1285 262.021 82.9966C261.921 82.7341 261.774 82.5025 261.592 82.3189C261.186 81.8354 260.815 81.3087 260.484 80.7451C260.118 80.0481 259.708 79.3874 259.258 78.7693C259.03 78.4624 258.748 78.2225 258.435 78.0675C258.121 77.9124 257.783 77.846 257.446 77.8733C257.072 77.9559 256.715 78.1318 256.398 78.3902C255.131 79.2957 253.964 80.4001 252.927 81.6756C252.848 81.7732 252.759 81.8939 252.778 82.0317C252.797 82.1696 252.871 82.227 252.881 82.3419C252.884 82.4456 252.853 82.5467 252.797 82.6233C252.174 83.579 251.436 84.4102 250.607 85.0874C249.433 86.1748 248.284 87.3044 247.16 88.4761C246.456 89.0931 245.901 89.9324 245.552 90.9057C245.314 92.04 245.418 93.2423 245.846 94.2888C246.624 96.5403 247.98 98.4013 249.317 100.211C249.54 100.579 249.854 100.851 250.211 100.986C250.493 101.033 250.78 100.947 251.012 100.745C251.828 100.084 251.944 98.7057 252.014 97.5052L252.089 95.8453C252.087 95.7367 252.104 95.6288 252.14 95.5294C252.21 95.4031 252.309 95.3051 252.424 95.248L253.691 94.4209C253.304 93.6439 252.752 93.0112 252.096 92.5904C251.439 92.1696 250.703 91.9764 249.964 92.0315C249.627 92.1305 249.271 92.0711 248.967 91.8649C248.82 91.6766 248.738 91.4255 248.738 91.1642C248.738 90.9029 248.82 90.6518 248.967 90.4635C249.276 90.1015 249.654 89.8426 250.067 89.711C253.407 88.2004 256.426 85.7766 259.668 83.9673C260.023 83.7457 260.416 83.6334 260.814 83.6399C261.14 83.6687 261.522 83.9042 261.825 83.7433Z" fill="#F86D70"/>
<path d="M274.986 143.891C274.837 144.236 274.785 144.638 274.622 144.977C274.459 145.316 274.105 145.551 273.83 145.379C273.686 145.254 273.578 145.075 273.523 144.868C272.11 140.884 271.712 136.466 272.381 132.197C272.474 131.499 272.642 130.819 272.88 130.175C273.127 129.555 273.485 128.923 273.383 128.245C272.053 128.763 270.774 129.464 269.572 130.336C268.78 130.911 267.946 131.709 267.872 132.835C267.865 133.271 267.917 133.706 268.025 134.121L268.463 136.149C268.516 136.525 268.652 136.877 268.855 137.165C268.994 137.338 269.185 137.447 269.321 137.631C269.449 137.845 269.535 138.092 269.572 138.354L269.94 140.112C270.077 140.699 270.175 141.298 270.234 141.904C270.276 142.478 270.234 143.007 270.271 143.558C270.324 144.465 270.433 145.366 270.597 146.252L271.124 149.434C271.242 150.323 271.449 151.191 271.738 152.019C271.957 152.593 272.251 153.087 272.433 153.667C272.568 154.109 272.638 154.58 272.805 155C273.108 155.679 273.58 156.221 274.152 156.545C274.353 156.689 274.577 156.778 274.809 156.803C275.465 156.832 275.936 156.045 276.243 155.321C276.844 154.005 277.165 152.523 277.175 151.013C277.175 150.405 277.073 149.802 277.031 149.193C276.914 147.47 277.306 145.798 277.301 144.081C277.31 142.473 275.465 142.777 274.986 143.891Z" fill="#F86D70"/>
<path d="M343.339 43.8189C341.887 42.9955 340.611 41.7664 339.612 40.2291C339.098 39.4186 338.631 38.5645 338.214 37.6732C336.445 33.9916 334.926 30.1359 333.672 26.1456C335.656 26.6453 337.739 27.099 339.691 26.4098C340.709 26.0272 341.658 25.4072 342.486 24.5833C343.548 23.5074 344.533 22.3218 345.43 21.0394C346.109 22.6432 346.888 24.1795 347.76 25.6344C348.258 26.4615 349.945 28.1444 349.819 29.2702C349.693 30.3959 347.83 30.9588 347.075 31.493L346.996 31.5561C345.883 32.4235 344.911 33.5397 344.131 34.8473C342.668 37.409 342.16 40.9816 343.339 43.8189Z" fill="#FBBEBE"/>
<path opacity="0.1" d="M347.112 31.4696C345.992 30.7917 345.003 29.8258 344.212 28.6368C343.42 27.4479 342.844 26.0636 342.523 24.5772C343.585 23.5013 344.57 22.3157 345.468 21.0333C346.146 22.6371 346.925 24.1734 347.797 25.6283C348.296 26.4554 349.982 28.1383 349.856 29.2641C349.731 30.3898 347.867 30.9355 347.112 31.4696Z" fill="black"/>
<path d="M351.305 32.3139C356.124 32.3139 360.031 27.4974 360.031 21.5559C360.031 15.6145 356.124 10.798 351.305 10.798C346.486 10.798 342.579 15.6145 342.579 21.5559C342.579 27.4974 346.486 32.3139 351.305 32.3139Z" fill="#FBBEBE"/>
<path d="M332.218 88.5679C331.615 89.0143 330.927 89.2601 330.223 89.2812C329.52 89.3024 328.823 89.0981 328.203 88.6885C327.557 88.1974 326.973 87.5916 326.47 86.8907C323.604 83.2664 320.879 79.4239 318.964 74.9266C318.519 73.9776 318.231 72.9293 318.117 71.8422C318.063 71.299 318.116 70.7477 318.273 70.2356C318.429 69.7234 318.684 69.2657 319.016 68.9014C319.194 68.7562 319.351 68.5758 319.482 68.3673C319.594 68.061 319.647 67.7267 319.635 67.3908C319.687 66.8179 319.869 66.2748 320.161 65.8245C320.453 65.3741 320.843 65.035 321.284 64.8464C320.819 64.4558 321.005 63.5885 321.308 63.0314C321.611 62.4742 322.035 61.8826 321.96 61.2393C321.841 60.8103 321.697 60.3919 321.531 59.9872C321.364 59.2865 321.666 58.5628 321.83 57.8621C322.17 56.4261 321.965 54.8983 321.881 53.4049C321.634 48.9823 322.505 44.5941 323.367 40.2921C323.748 38.1075 324.297 35.9727 325.007 33.9166C325.226 33.3422 325.473 32.7678 325.724 32.2566C326.604 30.4989 327.584 28.8195 328.655 27.2309C329.156 26.2963 329.844 25.5367 330.653 25.0253C330.729 24.9849 330.807 24.9504 330.886 24.9219C331.467 24.7371 332.069 24.6807 332.666 24.7554C334.24 24.876 335.894 25.3297 337.017 26.6967C338.14 28.0637 338.503 29.9821 339.011 31.8316C339.173 32.4506 339.369 33.0551 339.598 33.6409C340.339 35.4559 341.545 36.9033 342.733 38.3105L344.024 39.8441C344.671 40.6137 345.794 40.4184 346.404 41.2283C346.653 41.6089 346.838 42.0461 346.949 42.5149C347.639 44.5866 348.04 46.7865 348.137 49.0225C348.142 49.5198 348.119 50.0168 348.067 50.5101C347.91 52.2412 347.288 53.858 346.302 55.1051C345.184 56.4319 343.628 57.0867 342.514 58.4192C341.583 59.522 341.042 60.9981 340.511 62.4398C339.486 65.2197 338.46 68.0035 337.432 70.7911C336.687 72.6985 336.048 74.6654 335.517 76.6784C334.548 80.6933 335.098 86.3565 332.218 88.5679Z" fill="#F86D70"/>
<path d="M305.314 135.896C303.013 136.011 300.707 135.977 298.415 136.247C297.078 136.407 295.745 136.677 294.404 136.746C292.941 136.827 291.473 136.683 290.006 136.718C286.311 136.815 282.668 138.027 279.114 139.279C278.11 136.258 277.587 133.027 277.572 129.762C277.562 129.546 277.562 129.329 277.572 129.113C277.637 128.188 277.861 127.292 278.229 126.482C281.49 125.334 284.797 124.185 288.184 124.242C289.288 124.242 290.383 124.403 291.483 124.443C294.674 124.564 297.777 122.801 300.945 123.295C301.259 123.333 301.574 123.247 301.847 123.05C302.119 122.853 302.333 122.554 302.459 122.197C302.594 121.772 302.65 121.215 302.999 121.049C303.251 120.934 303.595 121.077 303.754 120.813C303.81 120.671 303.843 120.517 303.852 120.36C303.945 119.785 304.415 119.527 304.783 119.211C305.715 118.418 306.242 117.063 306.707 115.765C306.83 115.484 306.904 115.175 306.926 114.857C306.926 114.604 306.861 114.352 306.866 114.093C306.866 113.186 307.69 112.663 308.119 111.922C308.683 110.946 308.585 109.625 308.86 108.476C309.232 107.028 310.225 106 310.472 104.576C310.5 104.43 310.518 104.283 310.528 104.134C309.539 105.39 308.408 106.462 307.169 107.316C303.032 110.457 298.084 112.336 294.222 115.971C291.157 118.843 286.666 118.757 283.311 116.419C282.046 115.465 280.852 114.375 279.743 113.163C278.038 111.44 276.314 109.676 274.53 108.034C273.287 106.885 272 105.776 270.668 104.708C269.054 103.392 267.384 102.186 265.664 101.095C263.53 99.7626 261.383 98.4415 259.007 98.1256C258.701 97.3569 258.532 96.5171 258.509 95.6616C258.487 94.8062 258.612 93.9545 258.876 93.1631C259.419 91.5887 260.154 90.1262 261.057 88.8266C261.732 87.6057 262.577 86.542 263.554 85.6848C263.662 85.6001 263.788 85.5551 263.917 85.5551C264.046 85.5551 264.172 85.6001 264.28 85.6848L273.514 92.6749L275.242 93.9787C279.03 96.8505 282.757 99.9234 286.544 102.778C286.614 103.105 286.982 103.146 287.248 103.059C287.513 102.973 287.816 102.835 288.045 103.025C288.156 103.117 288.236 103.289 288.375 103.324C288.487 103.328 288.596 103.283 288.683 103.197C290.248 101.871 291.049 99.3203 292.806 98.4301C293.556 98.051 294.446 97.9935 295.033 97.2813C295.38 96.7383 295.691 96.1621 295.964 95.5582C296.724 94.3348 298.163 93.9672 298.867 92.6864C299.333 91.8568 299.893 91.114 300.53 90.4808C301.799 89.2071 302.899 87.6975 303.791 86.0064C304.252 85.1715 304.611 84.2582 304.858 83.2954C304.979 82.7957 305.054 82.2788 305.189 81.7848C305.613 80.28 306.586 79.1255 307.56 78.0801C309.326 76.1732 311.231 74.3639 313.467 73.4852C314.247 73.2625 315.003 72.925 315.717 72.48C316.616 71.8023 317.441 70.5444 318.471 70.8373C318.861 70.9865 319.213 71.2599 319.491 71.63C320.754 73.1441 321.915 74.7827 322.962 76.5293C324.623 79.137 326.283 81.7465 327.942 84.358C328.465 85.297 329.127 86.1057 329.894 86.7416C331.006 87.4473 332.283 87.6505 333.504 87.316C333.341 89.4469 331.967 91.2045 331.399 93.2263C331.124 94.2084 331.017 95.2538 330.812 96.2589C330.523 97.5202 330.154 98.7512 329.707 99.9406C328.589 103.151 327.462 106.379 325.859 109.263C325.03 110.762 324.075 112.135 323.139 113.542C319.444 119.038 316.616 125.667 312.424 130.612C311.408 131.824 310.765 133.484 309.628 134.523C308.394 135.649 306.801 135.822 305.314 135.896Z" fill="#434175"/>
<path opacity="0.1" d="M322.868 63.0199C322.457 63.0446 322.058 63.1925 321.704 63.4507C322.556 63.0831 323.595 64.0652 324.382 63.6C324.75 63.3817 324.695 63.3186 324.382 63.1865C323.912 62.9912 323.343 63.1692 322.868 63.0199Z" fill="black"/>
<path d="M469.946 252.826L435.703 267.817L437.886 275.395L472.129 260.403L469.946 252.826Z" fill="#D0D2D5"/>
<path d="M447.158 283.53L478.328 269.884C479.143 269.527 480.04 269.584 480.821 270.042C481.602 270.501 482.203 271.323 482.493 272.327C482.782 273.332 482.736 274.438 482.364 275.401C481.993 276.363 481.326 277.105 480.511 277.462L449.341 291.108L447.158 283.53Z" fill="#D0D2D5"/>
<path d="M417.463 259.959L425.058 256.634C431.811 253.677 439.24 254.149 445.711 257.946C452.182 261.743 457.164 268.553 459.562 276.879L462.259 286.243C463.197 289.499 463.047 293.08 461.843 296.2C460.639 299.32 458.479 301.722 455.838 302.878L432.737 312.991C430.097 314.148 427.191 313.963 424.661 312.478C422.131 310.994 420.182 308.33 419.245 305.075L411.042 276.594C410.104 273.338 410.254 269.756 411.458 266.637C412.662 263.517 414.822 261.115 417.463 259.959Z" fill="#3F3D56"/>
<path opacity="0.1" d="M322.449 68.6258C322.133 68.4892 321.793 68.4634 321.466 68.5511C320.978 68.615 320.524 68.8897 320.185 69.3265C320.275 69.3765 320.372 69.4023 320.471 69.4023C320.57 69.4023 320.668 69.3765 320.758 69.3265C321.062 69.2314 321.376 69.1888 321.689 69.2002C321.96 69.2002 322.766 69.5678 322.975 69.4069C323.283 69.16 322.658 68.7234 322.449 68.6258Z" fill="black"/>
<path opacity="0.1" d="M348.068 50.51C347.366 50.2177 346.696 49.8203 346.074 49.3268C344.438 48.046 343.064 46.3056 341.447 44.9961C340.631 44.3637 339.787 43.7885 338.918 43.273L333.462 39.8267C333.047 39.535 332.602 39.3111 332.139 39.1605C331.25 38.9192 330.248 39.6544 329.344 39.4993C328.876 39.3932 328.431 39.1658 328.039 38.8321C327.647 38.4985 327.317 38.0662 327.071 37.5637C326.578 36.5599 326.231 35.4578 326.046 34.307C325.907 33.6284 325.803 32.9398 325.734 32.245C325.653 31.5236 325.642 30.7928 325.701 30.0682C325.794 28.629 326.347 27.2944 327.238 26.3577C327.885 25.7914 328.622 25.3999 329.4 25.209C329.891 25.056 330.391 24.9542 330.895 24.9046C331.182 24.8759 331.471 24.8759 331.757 24.9046C333.816 25.1056 335.559 26.8287 336.933 28.7242C337.655 29.7236 338.331 30.7976 339.02 31.8143C339.182 32.4333 339.378 33.0378 339.607 33.6235C340.348 35.4385 341.555 36.886 342.743 38.2932L344.033 39.8267C344.681 40.5964 345.803 40.4011 346.414 41.211C346.662 41.5916 346.847 42.0287 346.959 42.4975C347.646 44.5753 348.045 46.7812 348.137 49.0224C348.142 49.5197 348.119 50.0167 348.068 50.51Z" fill="black"/>
<path opacity="0.1" d="M305.64 124.018L277.567 129.113C277.632 128.188 277.856 127.291 278.224 126.482C281.485 125.333 284.793 124.185 288.179 124.242C289.284 124.242 290.378 124.403 291.478 124.443C294.669 124.564 297.772 122.8 300.94 123.294C301.254 123.333 301.57 123.247 301.842 123.05C302.114 122.853 302.328 122.554 302.454 122.197C302.589 121.772 302.645 121.215 302.994 121.049C303.246 120.934 303.591 121.077 303.749 120.813C303.805 120.671 303.839 120.517 303.847 120.359C303.94 119.785 304.41 119.527 304.779 119.211C305.71 118.418 306.237 117.062 306.703 115.764C306.825 115.483 306.9 115.175 306.922 114.857C306.922 114.604 306.856 114.351 306.861 114.093C306.861 113.185 307.686 112.663 308.114 111.922C308.678 110.945 308.58 109.624 308.855 108.476C309.228 107.028 310.22 106 310.467 104.576L310.588 104.38L315.368 102.083L305.64 124.018Z" fill="black"/>
<path opacity="0.1" d="M197.996 403.018C307.346 403.018 395.992 394.532 395.992 384.064C395.992 373.596 307.346 365.11 197.996 365.11C88.6458 365.11 0 373.596 0 384.064C0 394.532 88.6458 403.018 197.996 403.018Z" fill="#0038FF"/>
<path opacity="0.1" d="M373.033 453C443.789 453 501.148 443.801 501.148 432.455C501.148 421.108 443.789 411.909 373.033 411.909C302.277 411.909 244.918 421.108 244.918 432.455C244.918 443.801 302.277 453 373.033 453Z" fill="#0038FF"/>
<path d="M221.406 368.717L221.536 360.584C227.748 360.147 233.959 359.856 240.171 359.711C243.777 359.63 247.429 359.602 250.919 360.716C253.337 361.491 255.624 362.801 258.009 363.72C262.761 365.546 267.793 365.788 272.782 365.954C277.623 366.121 282.677 366.178 287.024 363.542C294.548 358.947 297.711 347.661 298.079 337.328C298.447 326.995 296.779 316.581 297.939 306.312" stroke="#3F3D56" stroke-width="12" stroke-miterlimit="10"/>
<path d="M238.438 384.633L155.424 383.323L155.667 380.698L159.682 337.397H232.582L237.949 380.698L238.359 383.978L238.438 384.633Z" fill="#D0D2D5"/>
<path opacity="0.1" d="M238.359 383.978H196.929L155.424 383.323L155.667 380.698H237.949L238.359 383.978Z" fill="black"/>
<path d="M251.743 381.353H141.588V384.633H251.743V381.353Z" fill="#D0D2D5"/>
<path d="M356.84 77.3216C356.848 76.1971 356.676 75.0817 356.333 74.0395C355.991 72.9973 355.484 72.0487 354.844 71.2482C354.203 70.4477 353.441 69.8111 352.6 69.3748C351.759 68.9386 350.857 68.7113 349.945 68.7061H42.3199C41.408 68.7121 40.506 68.9398 39.6656 69.3764C38.8252 69.8129 38.0629 70.4495 37.4224 71.2499C36.7819 72.0502 36.2758 72.9985 35.933 74.0404C35.5903 75.0823 35.4177 76.1973 35.425 77.3216V307.219H356.84V77.3216Z" fill="#3F3D56"/>
<path d="M35.4248 304.922V331.854C35.4248 334.109 36.1512 336.271 37.4443 337.865C38.7373 339.459 40.4911 340.355 42.3197 340.355H349.945C351.773 340.355 353.527 339.459 354.82 337.865C356.113 336.271 356.84 334.109 356.84 331.854V304.922H35.4248Z" fill="#D0D2D5"/>
<path d="M345.132 83.1688H48.73V289.833H345.132V83.1688Z" fill="#2F2E41"/>
<path d="M197.73 330.136C198.818 330.136 199.892 329.832 200.871 329.246C201.85 328.66 202.708 327.807 203.381 326.753C203.587 326.431 203.773 326.091 203.94 325.736L199.999 324.938L204.262 324.978C204.67 323.881 204.893 322.693 204.917 321.486C204.94 320.279 204.763 319.079 204.397 317.959L198.68 321.618L203.954 316.839C203.468 315.77 202.806 314.836 202.012 314.098C201.217 313.36 200.307 312.833 199.339 312.551C198.371 312.269 197.366 312.239 196.387 312.461C195.409 312.683 194.479 313.153 193.655 313.841C192.832 314.53 192.134 315.422 191.605 316.46C191.076 317.499 190.727 318.662 190.582 319.875C190.436 321.088 190.497 322.326 190.759 323.509C191.022 324.692 191.481 325.794 192.107 326.747C192.776 327.799 193.629 328.651 194.603 329.238C195.577 329.824 196.646 330.132 197.73 330.136Z" fill="#0038FF"/>
<path opacity="0.1" d="M204.914 340.349L238.033 381.353L232.95 340.349H204.914Z" fill="black"/>
<path d="M347.159 81.4859L364.946 52.4285C366.008 50.7054 367.103 48.9076 368.561 47.667C372.754 44.0944 378.899 46.2081 382.407 50.7858C385.915 55.3636 387.387 61.7333 388.463 67.8906C390.969 82.0626 392.089 96.5539 391.799 111.054C391.65 118.688 391.095 126.402 389.125 133.644C386.134 144.661 380.073 153.937 375.493 164.086C368.118 180.438 365.03 202.247 374.366 217.003C377.408 221.81 381.549 225.486 384.359 230.506C387.531 236.175 388.766 243.108 389.949 249.84C391.715 260.006 393.485 270.235 393.811 280.626C394.864 314.221 379.327 347.787 355.335 363.766C338.68 374.863 318.531 378.079 304.047 393.128C298.922 398.429 294.506 406.223 295.764 414.299C296.789 420.852 301.457 425.832 306.581 427.998C311.706 430.163 317.264 429.985 322.668 429.606C335.648 428.691 348.565 426.724 361.335 423.719C372.158 421.168 382.961 418.969 392.395 411.95C393.34 411.333 394.148 410.44 394.748 409.348C395.358 408.09 395.46 406.568 395.544 405.103C395.801 400.79 396.043 396.315 394.808 392.266C393.369 387.533 390.084 383.949 388.51 379.285C386.935 374.621 387.219 369.251 388.239 364.352C389.497 358.298 391.785 352.658 394.086 347.092C396.327 341.67 398.6 336.265 401.237 331.124C408.663 316.673 418.81 304.703 428.849 292.9" stroke="#3F3D56" stroke-width="12" stroke-miterlimit="10"/>
<path d="M376.593 39.8325C377.375 39.4127 378.214 39.1732 379.067 39.126C379.613 39.1783 380.149 39.3292 380.66 39.574C381.581 39.9072 382.441 40.4551 383.194 41.188C383.567 41.5584 383.864 42.0327 384.059 42.572C384.254 43.1112 384.342 43.6999 384.317 44.2896C384.21 45.4383 383.52 46.4262 382.766 47.1614C381.742 48.2005 380.474 48.8048 379.15 48.8845C377.669 48.8845 376.271 48.0919 374.841 47.5979C373.801 47.2351 372.726 47.042 371.645 47.0236C371.101 47.0579 370.555 47.0135 370.019 46.8915C369.751 46.83 369.498 46.6913 369.281 46.4867C369.064 46.2822 368.889 46.0174 368.771 45.714C368.643 45.1602 368.643 44.5734 368.771 44.0196C368.883 43.3074 368.864 41.613 369.376 41.188C369.786 40.8491 371.24 41.1248 371.743 41.0731C373.39 40.8671 375.015 40.4513 376.593 39.8325Z" fill="#FBBEBE"/>
<path d="M370.131 40.4067C368.203 41.498 365.938 40.5905 363.842 40.5848C362.812 40.5848 361.788 40.7973 360.763 40.872C359.627 40.9218 358.489 40.8853 357.357 40.7628L353.947 40.4756C351.938 40.3934 349.941 40.0547 347.988 39.4648C346.321 37.0409 343.614 35.9726 341.601 33.9967C339.989 32.4115 338.834 30.2519 337.46 28.3507C336.085 26.4495 334.343 24.7322 332.289 24.5311C331.493 24.4822 330.696 24.5868 329.927 24.8413C329.149 25.0284 328.413 25.4203 327.77 25.99C327.328 26.453 326.964 27.0191 326.7 27.6559C326.436 28.2927 326.277 28.9876 326.232 29.7005C326.147 31.127 326.262 32.5609 326.572 33.9393C326.758 35.0919 327.105 36.1959 327.597 37.2017C327.847 37.7022 328.178 38.133 328.57 38.4663C328.963 38.7996 329.407 39.0282 329.875 39.1374C330.774 39.2867 331.771 38.563 332.671 38.7927C333.133 38.9433 333.578 39.1673 333.994 39.459L339.454 42.9052C340.32 43.422 341.163 43.9972 341.979 44.6283C343.6 45.9379 344.97 47.6782 346.605 48.9591C348.24 50.2399 350.304 51.0441 352.121 50.2055C357.711 47.638 364.01 48.8327 369.94 49.4703C369.903 49.3324 370.145 49.2061 370.215 49.0912C370.949 47.85 371.281 46.3161 371.147 44.7892C371.002 43.2786 370.537 41.8541 370.131 40.4067Z" fill="#F86D70"/>
<path d="M360.753 21.0563C361.333 20.7272 361.82 20.191 362.151 19.517C362.682 18.3051 362.355 16.8175 361.992 15.4964C361.629 14.1754 361.261 13.0209 360.855 11.8032C360.565 10.7815 360.126 9.83353 359.56 9.00605C358.736 7.92049 357.557 7.37483 356.574 6.51902C355.409 5.50239 354.538 4.06072 353.555 2.79136C352.572 1.522 351.37 0.344544 349.954 0.132027C348.863 0.0644572 347.775 0.314344 346.777 0.861477C338.27 4.7155 331.314 12.3489 323.697 18.4027C320.734 20.7634 317.408 22.9632 313.914 22.6473L317.04 28.7701C317.837 30.3382 318.731 31.9981 320.129 32.6701C321.363 33.2445 322.742 32.9573 324.037 32.6701C325.069 32.486 326.072 32.1144 327.014 31.5673C328.878 30.3209 330.075 27.7305 332.078 26.8288C333.574 26.1567 335.242 26.5703 336.737 27.2136C338.233 27.8569 339.7 28.7299 341.275 28.9941C344.07 29.4594 346.865 27.9028 349.195 25.8925C350.592 24.6978 351.864 23.3251 353.387 22.4463C354.533 21.7131 355.834 21.4305 357.114 21.6364C358.526 21.8777 359.355 21.9581 360.753 21.0563Z" fill="#2F2E41"/>
<path opacity="0.1" d="M362.151 19.5172C362.672 18.3282 362.365 16.8693 362.011 15.5885C362.126 16.3223 362.044 17.0823 361.778 17.7539C361.444 18.4245 360.958 18.9597 360.38 19.2932C358.983 20.2007 358.135 20.1203 356.7 19.8274C355.42 19.6251 354.12 19.9075 352.973 20.6372C351.459 21.539 350.178 22.9347 348.78 24.0834C346.451 26.0937 343.655 27.6445 340.86 27.1793C339.281 26.9208 337.823 26.0306 336.323 25.3987C334.823 24.7669 333.15 24.3419 331.664 25.0139C329.665 25.9157 328.482 28.5118 326.605 29.7525C325.662 30.2988 324.659 30.6704 323.628 30.8553C322.328 31.1654 320.949 31.4698 319.719 30.8553C318.321 30.189 317.427 28.5233 316.626 26.9553L314.413 22.6188C314.236 22.6188 314.054 22.6188 313.877 22.6188L317.003 28.7416C317.8 30.3096 318.694 31.9695 320.092 32.6416C321.326 33.2159 322.705 32.9287 324 32.6416C325.031 32.4575 326.035 32.0858 326.977 31.5388C328.841 30.2924 330.038 27.702 332.041 26.8002C333.537 26.1282 335.205 26.5417 336.7 27.185C338.195 27.8283 339.663 28.7014 341.238 28.9656C344.033 29.4308 346.828 27.8743 349.157 25.864C350.555 24.6693 351.827 23.2965 353.35 22.4178C354.496 21.6846 355.797 21.402 357.077 21.6079C358.512 21.8951 359.36 21.9755 360.753 21.0737C361.335 20.7401 361.822 20.1976 362.151 19.5172Z" fill="black"/>
<path d="M386.236 412.403C386.511 411.875 386.854 411.405 387.252 411.013C389.288 408.647 390.234 405.166 390.737 401.755C391.24 398.343 391.384 394.862 392.19 391.525C392.626 389.813 393.174 388.147 393.83 386.545C394.296 385.316 394.878 382.904 395.736 382.048C395.902 381.869 396.105 381.748 396.323 381.698C396.723 380.641 397.297 379.698 398.009 378.929C399.341 377.442 400.967 376.258 401.857 374.334C402.101 373.666 402.402 373.032 402.756 372.445C403.357 371.623 404.308 371.296 404.862 370.428C405.584 369.314 405.421 367.723 405.328 366.299C405.235 364.874 405.328 363.18 406.325 362.439C406.921 361.985 407.69 362.025 408.309 361.629C409.241 361.055 409.609 359.602 409.591 358.309C409.572 357.017 409.246 355.759 409.162 354.472C408.901 350.36 411.1 346.27 410.247 342.284C409.926 340.774 409.195 339.458 408.65 338.057C408.463 337.587 408.307 337.099 408.184 336.598C406.732 337.309 405.206 337.764 403.651 337.948C406.218 330.849 405.565 322.595 406.763 314.973L406.609 314.709C405.397 312.746 404.71 310.368 404.643 307.902C404.643 305.031 405.719 302.406 406.204 299.632C406.614 297.265 406.6 294.801 407.135 292.481C407.511 291.039 408.006 289.65 408.612 288.334C409.195 287.001 409.805 285.697 410.443 284.411C411.039 281.975 411.637 279.54 412.237 277.105C413.075 273.659 413.937 270.212 415.568 267.26C416.164 266.175 416.346 263.986 417.263 263.331C418.008 262.853 418.854 262.671 419.686 262.809C420.981 261.913 422.118 260.62 422.281 258.851C422.297 258.465 422.266 258.077 422.188 257.703H422.029C419.975 257.467 418.941 255.239 417.874 253.291C416.145 250.127 416.807 245.853 417.874 242.263C418.138 241.129 418.617 240.087 419.271 239.225C420.767 237.502 423.133 237.881 425.062 237.048C425.688 236.711 426.327 236.414 426.977 236.158C428.258 235.785 429.6 236.307 430.774 237.031C431.948 237.755 433.043 238.708 434.273 239.283C435.502 239.857 437.021 240.311 437.324 241.867C437.41 242.392 437.373 242.936 437.217 243.435C436.934 244.431 436.439 245.314 435.782 245.991C436.306 247.323 436.589 248.778 436.612 250.258C436.636 251.738 436.398 253.206 435.917 254.561C435.436 255.917 434.722 257.128 433.824 258.11C432.926 259.093 431.867 259.824 430.718 260.253C430.364 260.948 430.033 261.666 429.73 262.395C429.19 263.682 428.733 265.198 428.915 266.577C429.253 267.015 429.565 267.483 429.847 267.978C431.184 270.276 431.943 272.975 432.642 275.663C433.585 279.094 434.338 282.6 434.897 286.157C436.034 289.132 437.422 291.981 438.246 295.111C439.723 295.116 441.193 294.874 442.616 294.393L446.548 293.291C447.913 292.911 449.344 292.498 450.415 291.384C450.983 290.809 451.426 290.045 452.004 289.471C452.581 288.897 453.741 288.236 454.375 288.707C454.491 288.794 454.599 288.896 454.696 289.011C455.269 287.576 458.936 293.451 456.429 294.031L456.592 294.606C456.923 295.795 457.627 297.242 457.45 298.483L439.952 305.886C438.829 306.447 437.639 306.772 436.43 306.846C435.958 306.841 435.488 306.764 435.032 306.616V307.719V307.759C434.985 315.335 435.964 322.865 436.145 330.435C436.178 331.814 436.145 333.307 435.437 334.387C434.645 335.57 433.238 335.8 432.013 335.535C431.721 335.477 431.431 335.399 431.146 335.3C430.733 337.204 430.434 339.143 430.252 341.101L429.092 351.302C428.941 352.352 428.88 353.418 428.91 354.484C429.045 356.885 430.075 359.044 430.82 361.267C431.566 363.49 432.008 366.149 431.025 368.223C430.723 368.866 430.299 369.418 430.024 370.084C429.675 371.113 429.515 372.226 429.558 373.341C429.486 376.442 429.418 379.54 429.353 382.634C429.557 382.597 429.764 382.65 429.94 382.783C430.909 383.708 430.802 388.142 430.872 389.515C430.946 391.812 430.872 394.156 430.974 396.476C431.1 399.613 431.519 402.722 432.223 405.741C432.391 406.721 432.758 407.632 433.29 408.389C433.834 408.971 434.482 409.386 435.181 409.601C437.504 410.496 439.932 410.904 442.365 410.807C443.348 410.766 444.373 410.652 445.286 411.111C446.199 411.571 446.935 412.834 446.604 413.983C446.32 414.948 445.458 415.407 444.68 415.769C442.902 416.539 441.186 417.512 439.556 418.676C438.926 419.204 438.263 419.667 437.571 420.06C436.91 420.354 436.226 420.562 435.53 420.68L427.275 422.403C425.584 422.765 423.548 422.978 422.472 421.254C421.89 420.324 421.806 419.06 421.834 417.883C421.88 415.585 422.253 413.248 422.006 410.95C421.826 409.59 421.537 408.255 421.144 406.964L418.666 397.935C417.837 394.908 416.998 391.858 416.676 388.688C416.56 387.539 416.569 386.235 417.282 385.517C417.462 385.335 417.672 385.202 417.897 385.127C417.925 382.358 418.219 379.584 418.093 376.815C418.06 376.126 418.004 375.431 417.958 374.742C417.522 375.245 417.134 375.808 416.802 376.419C416.01 377.953 415.717 379.986 414.501 381.014C413.467 381.887 411.934 381.841 411.207 383.105C410.974 383.59 410.798 384.114 410.685 384.661C410.261 386.014 409.628 387.252 408.822 388.309C408.541 389.568 408.156 390.789 407.671 391.95C406.985 393.731 406.302 395.511 405.621 397.292C404.89 399.199 404.154 401.106 403.292 402.909C402.638 404.053 402.113 405.302 401.731 406.62C401.074 409.457 402.141 412.57 403.842 414.661C405.542 416.751 407.774 417.952 409.973 419.072C410.207 419.167 410.422 419.323 410.602 419.531C410.791 419.811 410.891 420.167 410.881 420.531C410.881 421.858 410.001 422.995 408.985 423.403C407.947 423.746 406.859 423.795 405.803 423.546C399.849 422.656 393.914 420.864 388.65 417.297C387.862 416.834 387.163 416.171 386.6 415.35C386.334 414.942 386.161 414.454 386.097 413.937C386.033 413.42 386.081 412.891 386.236 412.403Z" fill="url(#paint1_linear)"/>
<path d="M411.402 283.601C410.412 285.477 409.48 287.403 408.607 289.379C407.999 290.682 407.504 292.061 407.13 293.492C406.585 295.789 406.604 298.248 406.199 300.591C405.733 303.348 404.643 305.979 404.643 308.799C404.711 311.25 405.398 313.613 406.609 315.559C407.815 317.485 409.194 319.239 410.718 320.786C414.236 309.55 416.201 297.666 416.532 285.629C416.578 283.963 416.583 282.24 416.094 280.689C415.786 279.713 414.337 277.036 413.401 278.087C413.061 278.472 412.972 280.207 412.763 280.781C412.37 281.764 411.915 282.707 411.402 283.601Z" fill="#F86D70"/>
<path opacity="0.1" d="M411.402 283.601C410.412 285.477 409.48 287.403 408.607 289.379C407.999 290.682 407.504 292.061 407.13 293.492C406.585 295.789 406.604 298.248 406.199 300.591C405.733 303.348 404.643 305.979 404.643 308.799C404.711 311.25 405.398 313.613 406.609 315.559C407.815 317.485 409.194 319.239 410.718 320.786C414.236 309.55 416.201 297.666 416.532 285.629C416.578 283.963 416.583 282.24 416.094 280.689C415.786 279.713 414.337 277.036 413.401 278.087C413.061 278.472 412.972 280.207 412.763 280.781C412.37 281.764 411.915 282.707 411.402 283.601Z" fill="black"/>
<path d="M461.414 289.879C463.236 289.505 465.258 289.689 466.674 291.142C467.529 292.037 468.07 293.305 468.183 294.681C468.304 296.277 467.554 298.161 466.259 298.288C465.948 298.292 465.636 298.267 465.328 298.213C464.51 298.207 463.693 298.289 462.886 298.46C461.299 298.643 459.699 298.355 458.221 297.62C456.742 296.884 455.428 295.723 454.389 294.232C453.28 292.544 454.743 291.768 456.061 291.424C457.86 290.953 459.616 290.258 461.414 289.879Z" fill="#FBBEBE"/>
<path d="M430.257 341.756L429.102 351.876C428.952 352.919 428.893 353.977 428.925 355.035C429.06 357.419 430.085 359.561 430.83 361.767C431.575 363.972 432.023 366.609 431.04 368.659C430.737 369.303 430.308 369.843 430.038 370.503C429.689 371.527 429.53 372.633 429.572 373.742L429.255 388.102C425.659 388.401 422.05 388.376 418.456 388.027C418.315 388.042 418.174 387.997 418.056 387.901C417.962 387.752 417.914 387.567 417.921 387.378C417.762 384.018 418.237 380.652 418.084 377.292C418.028 376.063 417.883 374.84 417.869 373.605C417.809 368.602 419.817 363.702 419.211 358.751C419.02 357.506 418.771 356.274 418.466 355.064C416.551 346.448 416.956 337.391 417.375 328.499C417.371 328.357 417.404 328.216 417.469 328.097C417.541 328.014 417.629 327.954 417.725 327.925C419.763 327.173 421.919 327.037 424.009 327.528C426.099 328.019 428.063 329.122 429.735 330.745C430.243 331.251 431.524 331.739 431.86 332.336C432.325 333.18 431.71 334.013 431.445 334.909C430.851 337.132 430.453 339.428 430.257 341.756Z" fill="#3F3D56"/>
<path opacity="0.1" d="M430.257 341.756L429.102 351.876C428.952 352.919 428.893 353.977 428.925 355.035C429.06 357.419 430.085 359.561 430.83 361.767C431.575 363.972 432.023 366.609 431.04 368.659C430.737 369.303 430.308 369.843 430.038 370.503C429.689 371.527 429.53 372.633 429.572 373.742L429.255 388.102C425.659 388.401 422.05 388.376 418.456 388.027C418.315 388.042 418.174 387.997 418.056 387.901C417.962 387.752 417.914 387.567 417.921 387.378C417.762 384.018 418.237 380.652 418.084 377.292C418.028 376.063 417.883 374.84 417.869 373.605C417.809 368.602 419.817 363.702 419.211 358.751C419.02 357.506 418.771 356.274 418.466 355.064C416.551 346.448 416.956 337.391 417.375 328.499C417.371 328.357 417.404 328.216 417.469 328.097C417.541 328.014 417.629 327.954 417.725 327.925C419.763 327.173 421.919 327.037 424.009 327.528C426.099 328.019 428.063 329.122 429.735 330.745C430.243 331.251 431.524 331.739 431.86 332.336C432.325 333.18 431.71 334.013 431.445 334.909C430.851 337.132 430.453 339.428 430.257 341.756Z" fill="black"/>
<path d="M408.654 338.7C409.199 340.096 409.931 341.4 410.252 342.899C411.105 346.856 408.91 350.94 409.171 354.995C409.255 356.276 409.577 357.522 409.6 358.803C409.623 360.084 409.241 361.508 408.319 362.094C407.699 362.491 406.921 362.45 406.339 362.898C405.356 363.634 405.244 365.322 405.342 366.729C405.44 368.137 405.598 369.722 404.876 370.831C404.322 371.686 403.371 372.014 402.775 372.824C402.419 373.407 402.115 374.037 401.871 374.702C400.981 376.614 399.36 377.792 398.028 379.297C396.695 380.802 395.568 383.007 396.164 385.086C396.602 386.62 397.832 387.562 399.015 388.28C401.174 389.595 403.453 390.589 405.803 391.238C406.056 391.33 406.323 391.346 406.581 391.284C406.843 391.164 407.076 390.967 407.261 390.709C408.636 389.05 410.056 387.309 410.69 385.075C410.804 384.532 410.979 384.012 411.212 383.53C411.939 382.278 413.467 382.318 414.506 381.456C415.717 380.44 416.01 378.418 416.802 376.896C417.552 375.46 418.754 374.472 419.598 373.128C420.995 370.899 421.373 367.93 422.393 365.385C422.826 364.3 423.38 363.295 423.725 362.163C424.074 360.816 424.288 359.422 424.363 358.011C425.02 351.302 426.693 344.547 425.64 337.908C425.407 336.443 425.048 335.036 424.899 333.531C424.638 330.923 425.048 328.264 424.736 325.662C424.729 325.337 424.662 325.018 424.54 324.729C424.418 324.44 424.245 324.19 424.033 323.996C423.78 323.858 423.507 323.788 423.231 323.79C420.469 323.612 417.701 323.691 414.948 324.025C413.551 324.192 411.981 324.542 411.147 325.949C410.434 327.15 410.471 328.769 410.215 330.234C409.935 332.032 409.195 333.02 408.417 334.433C407.639 335.846 408.081 337.247 408.654 338.7Z" fill="#3F3D56"/>
<path d="M419.401 385.374C418.665 385.374 417.85 385.322 417.282 385.896C416.573 386.609 416.559 387.924 416.676 389.05C417.002 392.191 417.836 395.218 418.67 398.24L421.148 407.205C421.541 408.484 421.83 409.808 422.01 411.157C422.257 413.455 421.884 415.752 421.838 418.05C421.838 419.198 421.898 420.473 422.481 421.398C423.534 423.064 425.588 422.869 427.279 422.512L435.53 420.789C436.225 420.672 436.909 420.466 437.57 420.175C438.26 419.783 438.922 419.322 439.55 418.796C441.183 417.646 442.898 416.685 444.675 415.924C445.448 415.568 446.315 415.109 446.594 414.15C446.925 413.001 446.189 411.743 445.276 411.278C444.363 410.813 443.342 410.933 442.355 410.973C439.926 411.07 437.501 410.664 435.18 409.773C434.481 409.566 433.832 409.154 433.289 408.573C432.755 407.825 432.386 406.921 432.217 405.948C431.519 402.953 431.1 399.87 430.969 396.758C430.876 394.46 430.941 392.163 430.866 389.865C430.82 388.504 430.927 384.122 429.935 383.185C429.194 382.485 426.142 384.42 425.145 384.702C423.261 385.221 421.331 385.447 419.401 385.374Z" fill="#2F2E41"/>
<path d="M392.218 391.761C391.417 395.058 391.286 398.533 390.769 401.916C390.252 405.299 389.325 408.756 387.289 411.105C386.892 411.492 386.55 411.958 386.278 412.484C386.106 412.976 386.048 413.517 386.11 414.047C386.171 414.577 386.351 415.075 386.628 415.488C387.19 416.305 387.887 416.965 388.673 417.424C393.933 420.962 399.854 422.742 405.822 423.627C406.876 423.875 407.962 423.828 408.999 423.489C410.015 423.064 410.914 421.938 410.895 420.617C410.905 420.256 410.805 419.904 410.615 419.629C410.434 419.425 410.22 419.27 409.987 419.175C407.788 418.061 405.551 416.843 403.856 414.793C402.16 412.742 401.088 409.624 401.745 406.832C402.13 405.526 402.653 404.287 403.301 403.15C404.155 401.344 404.932 399.484 405.631 397.579L407.68 392.278C408.277 390.733 408.887 389.136 408.985 387.418C406.412 387.562 403.842 387.056 401.433 385.931C400.308 385.365 399.26 384.59 398.326 383.633C397.534 382.818 396.812 381.301 395.745 382.364C394.888 383.214 394.347 385.603 393.839 386.821C393.196 388.413 392.653 390.065 392.218 391.761Z" fill="#2F2E41"/>
<path d="M422.249 260.126C422.044 262.326 420.311 263.785 418.657 264.652L429.12 268.776C428.445 267.179 428.994 265.227 429.665 263.607C430.212 262.326 430.835 261.098 431.529 259.931C431.631 259.753 431.748 259.523 431.673 259.322C431.607 259.187 431.502 259.087 431.38 259.041C429.227 257.857 427.01 256.634 424.657 256.203C423.977 256.077 422.691 255.744 422.183 256.6C421.676 257.455 422.36 259.11 422.249 260.126Z" fill="#FBBEBE"/>
<path opacity="0.1" d="M422.249 260.126C422.044 262.326 420.311 263.785 418.657 264.652L429.12 268.776C428.445 267.179 428.994 265.227 429.665 263.607C430.212 262.326 430.835 261.098 431.529 259.931C431.631 259.753 431.748 259.523 431.673 259.322C431.607 259.187 431.502 259.087 431.38 259.041C429.227 257.857 427.01 256.634 424.657 256.203C423.977 256.077 422.691 255.744 422.183 256.6C421.676 257.455 422.36 259.11 422.249 260.126Z" fill="black"/>
<path d="M428.346 261.913C432.88 261.913 436.555 257.382 436.555 251.792C436.555 246.203 432.88 241.672 428.346 241.672C423.813 241.672 420.138 246.203 420.138 251.792C420.138 257.382 423.813 261.913 428.346 261.913Z" fill="#FBBEBE"/>
<path d="M435.437 335.059C434.645 336.208 433.243 336.461 432.018 336.208C429.152 335.633 426.804 333.032 424.005 332.095C420.566 330.947 416.923 332.423 413.681 334.226C410.438 336.03 407.205 338.218 403.655 338.563C406.865 329.74 405.03 319.12 408.095 310.223C408.85 308.052 409.898 305.95 410.066 303.601C410.275 300.677 409.092 297.857 408.91 294.945C408.743 292.355 409.376 289.776 409.977 287.312L412.227 278.208C413.066 274.819 413.928 271.367 415.554 268.444C416.15 267.37 416.336 265.198 417.249 264.544C419.243 263.131 422.267 264.917 424.429 265.015C426.59 265.112 428.561 267.008 429.823 269.15C431.16 271.413 431.92 274.107 432.619 276.772C433.735 280.739 434.567 284.82 435.106 288.966C435.176 289.586 435.237 290.207 435.283 290.833C435.749 296.731 435.069 302.665 435.032 308.586C435.032 308.586 435.032 308.586 435.032 308.632C434.99 316.145 435.964 323.618 436.15 331.13C436.178 332.526 436.15 334.025 435.437 335.059Z" fill="#F86D70"/>
<path opacity="0.1" d="M435.032 308.638C433.425 308.138 431.966 306.863 430.722 305.461C429.644 304.276 428.683 302.936 427.862 301.469C426.83 299.466 426.002 297.313 425.398 295.059C423.672 289.076 422.576 282.845 422.136 276.519C422.015 274.796 421.978 272.952 422.812 271.585C423.279 270.844 423.935 270.32 424.675 270.097C425.414 269.875 426.193 269.968 426.884 270.362C427.988 271.028 428.701 272.366 429.357 273.641C430.671 276.186 431.99 278.753 432.833 281.579C433.206 282.831 433.48 284.123 433.844 285.381C434.213 286.622 434.64 287.836 435.12 289.017C435.19 289.637 435.251 290.258 435.297 290.884C435.731 296.754 435.069 302.687 435.032 308.638Z" fill="black"/>
<path d="M422.83 270.471C422.001 271.832 422.038 273.699 422.155 275.405C422.595 281.73 423.691 287.959 425.416 293.94C426.017 296.195 426.845 298.349 427.881 300.35C428.701 301.817 429.661 303.157 430.741 304.342C432.325 306.128 434.254 307.719 436.401 307.742C437.61 307.669 438.8 307.349 439.923 306.794L457.398 299.477C457.575 298.242 456.872 296.812 456.541 295.628L455.609 292.217C455.344 291.28 455.032 290.264 454.342 289.753C453.653 289.241 452.549 289.942 451.971 290.511C451.393 291.079 450.951 291.826 450.387 292.406C449.306 293.509 447.885 293.917 446.52 294.296L442.593 295.387C441.168 295.863 439.699 296.103 438.223 296.099C437.128 291.981 435.046 288.351 433.867 284.262C433.504 283.01 433.224 281.717 432.851 280.465C432.008 277.639 430.69 275.072 429.381 272.527C428.724 271.246 428.011 269.908 426.907 269.248C426.215 268.855 425.436 268.762 424.696 268.984C423.956 269.206 423.299 269.73 422.83 270.471Z" fill="#F86D70"/>
<path d="M425.728 254.073C425.791 253.409 425.959 252.767 426.222 252.183C426.36 251.89 426.569 251.658 426.82 251.521C427.071 251.384 427.351 251.348 427.62 251.419C428.44 251.735 428.715 253.303 429.572 253.355C430.149 253.389 430.564 252.665 430.746 251.982C430.927 251.298 431.025 250.535 431.459 250.052C431.76 249.773 432.106 249.577 432.474 249.478C434.463 248.702 436.518 247.266 437.179 244.825C437.333 244.331 437.37 243.794 437.287 243.274C436.984 241.729 435.423 241.264 434.235 240.701C433.047 240.138 431.906 239.196 430.741 238.473C429.576 237.749 428.225 237.232 426.944 237.6C426.294 237.852 425.654 238.147 425.029 238.484C423.101 239.306 420.734 238.926 419.239 240.638C418.587 241.494 418.108 242.527 417.841 243.654C416.793 247.22 416.136 251.465 417.864 254.601C418.927 256.537 419.965 258.748 422.015 258.978C424.401 259.242 425.351 256.554 425.728 254.073Z" fill="#2F2E41"/>
<g opacity="0.1">
<path opacity="0.1" d="M429.371 250.764C429.553 250.087 429.651 249.317 430.079 248.834C430.382 248.558 430.728 248.363 431.095 248.26C433.089 247.485 435.139 246.055 435.805 243.608C435.957 243.113 435.992 242.575 435.907 242.057C435.862 241.812 435.778 241.579 435.66 241.373C436.42 241.775 437.081 242.321 437.268 243.275C437.351 243.794 437.314 244.331 437.161 244.825C436.499 247.266 434.445 248.702 432.455 249.478C432.087 249.577 431.741 249.773 431.44 250.052C431.006 250.535 430.909 251.304 430.727 251.982C430.545 252.66 430.131 253.389 429.553 253.355C428.975 253.32 428.696 252.671 428.328 252.126C428.835 252.045 429.199 251.39 429.371 250.764Z" fill="black"/>
<path opacity="0.1" d="M420.65 257.749C423.045 258.019 423.99 255.336 424.377 252.855C424.44 252.191 424.608 251.549 424.871 250.965C425.008 250.673 425.218 250.442 425.469 250.305C425.72 250.169 426 250.135 426.268 250.207C426.711 250.374 426.995 250.914 427.298 251.356C427.084 251.381 426.878 251.467 426.695 251.606C426.513 251.746 426.359 251.935 426.245 252.16C425.982 252.744 425.814 253.386 425.751 254.05C425.374 256.531 424.423 259.219 422.024 258.943C421.074 258.818 420.196 258.259 419.564 257.375C419.907 257.572 420.274 257.698 420.65 257.749Z" fill="black"/>
</g>
<path d="M79.5621 373.507L88.4789 367.04C87.2705 364.504 85.7293 362.233 83.918 360.32L67.0954 366.77L80.2982 357.212C77.0345 355.008 73.3616 353.89 69.6409 353.967C65.9201 354.044 62.2799 355.315 59.0784 357.654C55.8769 359.992 53.2245 363.319 51.3824 367.305C49.5402 371.291 48.5717 375.8 48.5723 380.388C48.5723 394.977 58.1646 395.488 70.0024 395.488C81.8402 395.488 91.4325 394.977 91.4325 380.388C91.4299 376.694 90.7949 373.042 89.569 369.67L79.5621 373.507Z" fill="#0038FF"/>
<path opacity="0.1" d="M81.8303 387.694C80.8813 386.52 79.8208 385.492 78.6717 384.632C77.0505 383.306 75.378 381.95 73.4679 381.502C71.7908 381.106 70.0624 381.439 68.3433 381.324C65.3771 381.1 62.585 379.521 60.512 376.896C59.2961 375.345 58.3364 373.45 56.8735 372.249C55.2942 370.974 53.291 370.698 51.4182 371.014C50.875 371.112 50.3369 371.249 49.8062 371.422C48.9655 374.297 48.5367 377.331 48.5391 380.388C48.5391 394.977 58.1314 395.488 69.9692 395.488C75.7134 395.488 80.9265 395.367 84.7747 393.575L84.1317 392.094C83.5186 390.513 82.7452 389.035 81.8303 387.694Z" fill="black"/>
<path d="M272.051 410.445L260.223 401.87C261.825 398.504 263.872 395.491 266.279 392.955L288.589 401.508L271.105 388.837C275.433 385.914 280.303 384.43 285.237 384.533C290.171 384.635 294.999 386.319 299.244 389.42C303.49 392.521 307.007 396.931 309.451 402.217C311.894 407.503 313.178 413.482 313.178 419.566C313.178 438.916 300.455 439.588 284.76 439.588C269.065 439.588 256.342 438.916 256.342 419.566C256.337 414.669 257.167 409.826 258.778 405.35L272.051 410.445Z" fill="#0038FF"/>
<path opacity="0.1" d="M269.037 429.256C270.297 427.699 271.705 426.335 273.23 425.195C275.377 423.437 277.6 421.645 280.129 421.048C282.352 420.525 284.644 420.967 286.903 420.807C290.836 420.509 294.539 418.418 297.292 414.942C298.904 412.88 300.176 410.347 302.118 408.779C304.21 407.056 306.866 406.717 309.349 407.142C310.071 407.268 310.787 407.448 311.492 407.682C312.605 411.494 313.172 415.515 313.169 419.566C313.169 438.916 300.446 439.588 284.751 439.588C277.134 439.588 270.22 439.433 265.114 437.055L265.967 435.091C266.857 433.041 267.76 430.979 269.037 429.256Z" fill="black"/>
<defs>
<linearGradient id="paint0_linear" x1="255.228" y1="119.733" x2="390.391" y2="54.7189" gradientUnits="userSpaceOnUse">
<stop stop-color="#808080" stop-opacity="0.25"/>
<stop offset="0.54" stop-color="#808080" stop-opacity="0.12"/>
<stop offset="1" stop-color="#808080" stop-opacity="0.1"/>
</linearGradient>
<linearGradient id="paint1_linear" x1="-101760" y1="149396" x2="-98723.5" y2="87818.4" gradientUnits="userSpaceOnUse">
<stop stop-color="#808080" stop-opacity="0.25"/>
<stop offset="0.54" stop-color="#808080" stop-opacity="0.12"/>
<stop offset="1" stop-color="#808080" stop-opacity="0.1"/>
</linearGradient>
</defs>
</svg>
