<svg width="446" height="446" viewBox="0 0 446 446" fill="none" xmlns="http://www.w3.org/2000/svg">
<path d="M238.537 387.691C353.009 387.691 445.806 300.904 445.806 193.846C445.806 86.7877 353.009 0 238.537 0C124.065 0 31.2666 86.7877 31.2666 193.846C31.2666 300.904 124.065 387.691 238.537 387.691Z" fill="#0038FF" fill-opacity="0.1"/>
<path d="M445.815 366.948C445.815 370.927 349.225 392.496 230.075 392.496C110.925 392.496 14.3354 370.927 14.3354 366.948C14.3354 362.968 110.925 369.568 230.075 369.568C349.225 369.568 445.815 362.968 445.815 366.948Z" fill="#3F3D56"/>
<path opacity="0.1" d="M445.815 366.948C445.815 370.927 349.225 392.496 230.075 392.496C110.925 392.496 14.3354 370.927 14.3354 366.948C14.3354 362.968 110.925 369.568 230.075 369.568C349.225 369.568 445.815 362.968 445.815 366.948Z" fill="black"/>
<path d="M230.076 374.154C349.226 374.154 445.816 370.927 445.816 366.948C445.816 362.968 349.226 359.742 230.076 359.742C110.926 359.742 14.3359 362.968 14.3359 366.948C14.3359 370.927 110.926 374.154 230.076 374.154Z" fill="#3F3D56"/>
<path d="M436.194 364.982V300.129" stroke="#3F3D56" stroke-width="2" stroke-miterlimit="10"/>
<path d="M436.194 309.3C441.609 309.3 446 305.194 446 300.129C446 295.064 441.609 290.958 436.194 290.958C430.778 290.958 426.387 295.064 426.387 300.129C426.387 305.194 430.778 309.3 436.194 309.3Z" fill="#3F3D56"/>
<path d="M436.194 340.1C436.194 340.1 434.793 311.92 406.074 315.196L436.194 340.1Z" fill="#3F3D56"/>
<path d="M39.9258 369.817V156.417" stroke="#3F3D56" stroke-width="2" stroke-miterlimit="10"/>
<path d="M9.80636 321.996C15.2223 321.996 19.6127 317.89 19.6127 312.824C19.6127 307.759 15.2223 303.653 9.80636 303.653C4.39046 303.653 0 307.759 0 312.824C0 317.89 4.39046 321.996 9.80636 321.996Z" fill="#3F3D56"/>
<path d="M39.9262 203.162C39.9262 203.162 38.5252 174.983 9.80664 178.258L39.9262 203.162Z" fill="#3F3D56"/>
<path d="M39.9262 283.046C39.9262 283.046 38.5252 254.867 9.80664 258.143L39.9262 283.046Z" fill="#3F3D56"/>
<path d="M39.9262 367.296C39.9262 367.296 46.2303 315.445 9.80664 312.825" stroke="#3F3D56" stroke-width="2" stroke-miterlimit="10"/>
<path d="M70.0495 321.996C75.4654 321.996 79.8559 317.89 79.8559 312.825C79.8559 307.759 75.4654 303.653 70.0495 303.653C64.6336 303.653 60.2432 307.759 60.2432 312.825C60.2432 317.89 64.6336 321.996 70.0495 321.996Z" fill="#3F3D56"/>
<path d="M39.93 367.296C39.93 367.296 33.6259 315.445 70.0495 312.825" stroke="#3F3D56" stroke-width="2" stroke-miterlimit="10"/>
<path d="M70.6472 235.966C76.0631 235.966 80.4535 231.86 80.4535 226.795C80.4535 221.73 76.0631 217.624 70.6472 217.624C65.2313 217.624 60.8408 221.73 60.8408 226.795C60.8408 231.86 65.2313 235.966 70.6472 235.966Z" fill="#3F3D56"/>
<path d="M40.5272 281.267C40.5272 281.267 34.2231 229.415 70.6467 226.795" stroke="#3F3D56" stroke-width="2" stroke-miterlimit="10"/>
<path d="M360.768 363.672V233.965" stroke="#3F3D56" stroke-width="2" stroke-miterlimit="10"/>
<path d="M360.768 243.136C366.184 243.136 370.575 239.03 370.575 233.965C370.575 228.9 366.184 224.794 360.768 224.794C355.352 224.794 350.962 228.9 350.962 233.965C350.962 239.03 355.352 243.136 360.768 243.136Z" fill="#3F3D56"/>
<path d="M360.768 271.315C360.768 271.315 362.169 243.136 390.888 246.412L360.768 271.315Z" fill="#3F3D56"/>
<path d="M360.768 361.151C360.768 361.151 354.464 309.3 390.888 306.68" stroke="#3F3D56" stroke-width="2" stroke-miterlimit="10"/>
<path d="M390.888 315.851C396.304 315.851 400.694 311.745 400.694 306.68C400.694 301.614 396.304 297.508 390.888 297.508C385.472 297.508 381.082 301.614 381.082 306.68C381.082 311.745 385.472 315.851 390.888 315.851Z" fill="#3F3D56"/>
<path d="M285.962 347.993C312.024 347.993 333.15 328.234 333.15 303.861C333.15 279.488 312.024 259.729 285.962 259.729C259.901 259.729 238.774 279.488 238.774 303.861C238.774 328.234 259.901 347.993 285.962 347.993Z" fill="#2F2E41"/>
<path d="M293.13 362.518H307.465V338.496H293.13V362.518Z" fill="#2F2E41"/>
<path d="M264.458 362.518H278.794V338.496H264.458V362.518Z" fill="#2F2E41"/>
<path d="M270.879 368.66C276.593 365.575 280.223 361.449 278.985 359.445C277.748 357.441 272.113 358.318 266.4 361.403C260.686 364.488 257.057 368.614 258.294 370.618C259.531 372.622 265.166 371.745 270.879 368.66Z" fill="#2F2E41"/>
<path d="M298.954 368.66C304.668 365.575 308.297 361.449 307.06 359.445C305.823 357.441 300.188 358.318 294.474 361.403C288.76 364.488 285.131 368.614 286.368 370.618C287.605 372.622 293.24 371.745 298.954 368.66Z" fill="#2F2E41"/>
<path d="M284.767 307.771C293.674 307.771 300.895 301.018 300.895 292.688C300.895 284.358 293.674 277.605 284.767 277.605C275.86 277.605 268.64 284.358 268.64 292.688C268.64 301.018 275.86 307.771 284.767 307.771Z" fill="white"/>
<path d="M279.274 291.292C282.243 291.292 284.65 289.041 284.65 286.264C284.65 283.487 282.243 281.236 279.274 281.236C276.305 281.236 273.898 283.487 273.898 286.264C273.898 289.041 276.305 291.292 279.274 291.292Z" fill="#3F3D56"/>
<path d="M331.736 262.82C335.546 246.861 323.367 230.735 304.532 226.802C285.697 222.869 267.34 232.617 263.529 248.576C259.719 264.535 272.202 270.421 291.036 274.354C309.871 278.287 327.926 278.778 331.736 262.82Z" fill="#0038FF"/>
<path d="M266.309 297.373C267.919 293.856 259.513 287.117 247.533 282.322C235.553 277.527 224.537 276.491 222.928 280.008C221.318 283.525 229.725 290.264 241.704 295.059C253.684 299.854 264.7 300.89 266.309 297.373Z" fill="#2F2E41"/>
<path d="M354.713 326.981C356.322 323.463 347.916 316.725 335.936 311.93C323.957 307.134 312.941 306.098 311.331 309.615C309.721 313.133 318.128 319.871 330.107 324.666C342.087 329.462 353.103 330.498 354.713 326.981Z" fill="#2F2E41"/>
<path d="M295.402 323.134C295.402 325.801 294.269 328.358 292.253 330.244C290.237 332.13 287.502 333.189 284.65 333.189C281.799 333.189 279.064 332.13 277.048 330.244C275.031 328.358 273.898 325.801 273.898 323.134C273.898 317.58 278.712 316.43 284.65 316.43C290.588 316.43 295.402 317.58 295.402 323.134Z" fill="white"/>
<path d="M229.719 290.684V225.83" stroke="#0038FF" stroke-width="2" stroke-miterlimit="10"/>
<path d="M229.719 235.002C235.135 235.002 239.525 230.896 239.525 225.83C239.525 220.765 235.135 216.659 229.719 216.659C224.303 216.659 219.913 220.765 219.913 225.83C219.913 230.896 224.303 235.002 229.719 235.002Z" fill="#0038FF"/>
<path d="M229.719 265.801C229.719 265.801 228.318 237.622 199.599 240.897L229.719 265.801Z" fill="#0038FF"/>
<path d="M137.523 246.28L141.324 254.659H144.691L139.912 233.431C139.912 219.806 132.88 208.293 118.311 208.293H118.311C113.426 208.293 108.741 210.108 105.286 213.338C101.832 216.569 99.8916 220.95 99.8916 225.519V246.338C99.8916 247.431 100.122 248.513 100.569 249.522C101.016 250.532 101.671 251.449 102.498 252.222C103.324 252.995 104.305 253.608 105.384 254.026C106.464 254.444 107.621 254.659 108.789 254.659H134.909L137.523 246.28Z" fill="#2F2E41"/>
<path d="M153.419 330.549C153.419 330.549 202.996 324.963 208.969 335.018C214.942 345.074 210.761 353.453 202.996 358.481C195.231 363.509 152.224 386.412 152.224 386.412L148.64 391.999L140.875 390.882L133.11 384.178L136.694 378.033C136.694 378.033 166.56 361.274 167.157 356.805C167.157 356.805 139.68 368.536 136.694 366.302C133.707 364.067 100.257 353.453 105.633 347.308C111.009 341.163 124.747 332.225 124.747 332.225L153.419 330.549Z" fill="#2F2E41"/>
<path opacity="0.1" d="M153.419 330.549C153.419 330.549 202.996 324.963 208.969 335.018C214.942 345.074 210.761 353.453 202.996 358.481C195.231 363.509 152.224 386.412 152.224 386.412L148.64 391.999L140.875 390.882L133.11 384.178L136.694 378.033C136.694 378.033 166.56 361.274 167.157 356.805C167.157 356.805 139.68 368.536 136.694 366.302C133.707 364.067 100.257 353.453 105.633 347.308C111.009 341.163 124.747 332.225 124.747 332.225L153.419 330.549Z" fill="black"/>
<path d="M146.848 386.971C146.848 386.971 155.808 385.295 154.016 390.882C152.224 396.468 151.029 407.641 154.016 410.434C157.003 413.227 166.56 425.517 157.003 426.634C147.446 427.751 137.291 416.579 137.291 416.579C137.291 416.579 130.721 398.702 125.942 397.026C121.163 395.351 116.385 388.647 118.774 386.971C121.163 385.295 135.499 374.681 136.694 375.24C137.888 375.798 137.291 381.943 137.291 381.943C137.291 381.943 142.07 389.206 146.848 386.971Z" fill="#2F2E41"/>
<path d="M147.744 267.703L169.845 282.227C169.845 282.227 186.57 266.027 186.57 256.53C186.57 247.033 195.53 229.157 199.711 236.419C203.892 243.682 194.933 260.999 194.933 260.999L178.208 297.869C178.208 297.869 168.651 299.545 163.275 295.634C157.899 291.724 142.966 283.903 142.966 283.903L147.744 267.703Z" fill="#FFB9B9"/>
<path d="M125.942 243.402C135.179 243.402 142.667 236.399 142.667 227.761C142.667 219.122 135.179 212.119 125.942 212.119C116.705 212.119 109.217 219.122 109.217 227.761C109.217 236.399 116.705 243.402 125.942 243.402Z" fill="#FFB9B9"/>
<path d="M134.603 238.654C134.603 238.654 128.63 253.178 131.02 256.53C133.409 259.882 136.395 259.882 138.785 260.999C139.979 261.558 152.523 266.027 152.523 269.379C152.465 271.532 151.85 273.641 150.731 275.524L148.939 285.021L134.006 293.959L114.295 291.724L99.3616 283.903C99.3616 283.903 96.9723 263.234 103.543 259.882C110.113 256.53 117.878 248.709 117.281 245.916C116.684 243.123 116.087 236.419 116.087 236.419L134.603 238.654Z" fill="#FFB9B9"/>
<path d="M159.691 273.289C159.691 273.289 150.731 281.669 150.731 282.786C150.731 283.903 156.704 288.931 152.523 295.635C148.342 302.338 148.342 319.097 148.342 319.097L134.006 321.89L107.127 319.656L102.945 281.11C102.945 281.11 113.697 282.786 116.086 284.462C118.476 286.138 125.046 282.227 129.825 282.227C134.603 282.227 148.342 279.993 148.342 279.993L147.147 275.524L151.926 267.703L159.691 273.289Z" fill="#0038FF"/>
<path d="M125.942 332.784C125.942 332.784 186.271 307.645 191.05 323.845C195.828 340.046 196.426 379.15 196.426 379.15C196.426 379.15 199.412 405.965 202.996 408.758C206.58 411.551 202.996 419.93 202.996 419.93L194.036 422.724L185.674 419.372L182.09 410.434C182.09 410.434 180.895 390.323 176.117 380.267C171.338 370.212 171.338 346.749 171.936 345.632C171.936 345.632 148.64 372.447 125.942 370.771C103.244 369.095 99.9585 364.346 99.9585 364.346C99.9585 364.346 111.009 332.784 125.942 332.784Z" fill="#2F2E41"/>
<path d="M199.412 411.551C199.412 411.551 201.802 403.73 207.178 409.875C212.553 416.02 237.044 425.517 237.641 426.634C238.238 427.751 248.99 433.896 236.446 442.276C223.903 450.655 207.178 442.276 207.178 442.276C207.178 442.276 192.842 437.807 189.258 438.365C185.674 438.924 178.506 435.572 177.909 432.779C177.312 429.986 178.723 405.431 181.9 407.932C185.077 410.434 188.661 417.137 188.661 417.137C188.661 417.137 200.607 419.93 199.412 411.551Z" fill="#2F2E41"/>
<path d="M146.251 317.701C146.251 317.701 149.536 317.421 148.939 324.683C148.939 324.683 128.331 330.549 124.747 335.577C121.163 340.604 105.633 355.688 103.244 366.302C103.244 366.302 85.9216 362.391 95.4787 334.46L106.715 311.675C106.715 311.675 113.398 324.404 146.251 317.701Z" fill="#2F2E41"/>
<path d="M132.191 331.278L111.905 323.008C111.905 323.008 102.348 304.573 102.348 295.635C102.232 290.492 101.808 285.359 101.079 280.26C100.627 277.053 101.021 273.791 102.225 270.759C103.429 267.727 105.407 265.016 107.987 262.862C110.097 261.137 112.465 259.882 114.892 259.882C114.892 259.882 122.059 272.172 120.865 283.345C119.67 294.517 122.657 311.276 122.657 311.276L149.647 324.786" fill="#FFB9B9"/>
<path opacity="0.1" d="M132.192 331.277L111.905 323.007C111.905 323.007 102.348 304.572 102.348 295.634C102.348 290.979 123.254 277.199 122.06 288.372C120.865 299.545 122.657 311.276 122.657 311.276L149.648 324.786" fill="black"/>
<path d="M122.657 287.255L120.753 294.797L110.113 299.545H101.153L96.9722 281.669C96.9722 281.669 104.355 280.208 108.13 282.056C111.905 283.903 120.771 284.345 120.771 284.345L122.657 287.255Z" fill="#0038FF"/>
<path d="M132.566 209.04C129.326 208.272 121.642 208.293 120.517 208.293C117.809 208.293 115.127 208.792 112.624 209.761C110.122 210.731 107.848 212.152 105.932 213.943C104.017 215.734 102.498 217.861 101.461 220.201C100.425 222.541 99.8911 225.05 99.8911 227.583L92.126 254.659H107.241L110.046 244.604L114.028 254.659H121.637L122.291 248.617L124.866 254.659H133.341C126.994 241.228 123.617 228.984 131.956 221.427C137.588 222.145 142.337 220.734 143.111 217.879C144.003 214.589 139.282 210.632 132.566 209.04Z" fill="#2F2E41"/>
<path d="M39.9255 165.486C45.3414 165.486 49.7319 161.38 49.7319 156.315C49.7319 151.25 45.3414 147.144 39.9255 147.144C34.5096 147.144 30.1191 151.25 30.1191 156.315C30.1191 161.38 34.5096 165.486 39.9255 165.486Z" fill="#3F3D56"/>
</svg>
