<svg width="380" height="321" viewBox="0 0 380 321" fill="none" xmlns="http://www.w3.org/2000/svg">
<g clip-path="url(#clip0)">
<path d="M335.987 183.485C333.901 201.714 329.567 216.351 323.618 228.023C315.701 243.576 302.159 249.842 290.063 256.399C286.567 258.291 282.933 259.902 279.193 261.22C257.181 269.013 232.544 266.945 213.192 262.831C199.619 259.943 185.841 258.166 171.99 257.518C168.039 257.336 164.085 257.246 160.126 257.247C154.023 257.255 44.1196 259.383 17.3613 204.125C10.7548 190.494 6.22651 173.843 4.59964 153.546C-0.00390577 96.1639 25.2978 58.4772 57.9342 33.8439C119.672 -12.7538 204.298 -10.7996 265.125 37.0255C305.643 68.882 343.579 117.095 335.987 183.485Z" fill="#F2F2F2"/>
<path d="M57.2121 221.432L57.8201 183.259L83.1273 136.034L57.9155 177.271L58.1886 160.107L75.6302 125.94L58.2611 155.565L58.7527 124.695L77.4297 97.4934L58.8299 119.84L59.1371 63.2354L57.2066 138.17L57.3653 135.079L38.3764 105.431L57.0609 141.013L55.2915 175.49L55.2389 174.574L33.3481 143.375L55.1724 177.807L54.9511 182.119L54.9115 182.184L54.9297 182.538L50.441 270.008H56.4383L57.1579 224.828L78.9287 190.48L57.2121 221.432Z" fill="#3F3D56"/>
<path d="M380 169.698C380 215.309 353.417 231.235 320.625 231.235C287.833 231.235 261.25 215.309 261.25 169.698C261.25 124.086 320.625 66.0615 320.625 66.0615C320.625 66.0615 380 124.086 380 169.698Z" fill="#0038FF"/>
<path d="M318.462 224.259L319.07 186.086L344.377 138.861L319.166 180.098L319.439 162.934L336.88 128.767L319.511 158.392L320.003 127.522L338.68 100.321L320.08 122.667L320.387 66.0625L318.457 140.997L318.615 137.906L299.626 108.258L318.311 143.84L316.542 178.317L316.489 177.402L294.598 146.202L316.422 180.634L316.201 184.946L316.162 185.011L316.18 185.365L311.691 272.835H317.688L318.408 227.655L340.179 193.307L318.462 224.259Z" fill="#3F3D56"/>
<path d="M256.5 130.96C256.5 180.829 227.436 198.241 191.583 198.241C155.731 198.241 126.667 180.829 126.667 130.96C126.667 81.092 191.583 17.6514 191.583 17.6514C191.583 17.6514 256.5 81.092 256.5 130.96Z" fill="#0038FF"/>
<path d="M189.219 190.614L189.883 148.878L217.552 97.2456L189.988 142.331L190.287 123.565L209.356 86.2097L190.365 118.599L190.903 84.8478L211.323 55.1078L190.988 79.5404L191.323 17.6523L189.213 99.5809L189.386 96.201L168.625 63.7865L189.053 102.689L187.119 140.384L187.061 139.383L163.127 105.272L186.989 142.918L186.747 147.632L186.703 147.703L186.723 148.09L181.815 243.724H188.373L189.159 194.327L212.962 156.773L189.219 190.614Z" fill="#3F3D56"/>
<path d="M329.333 276.97C329.333 287.674 260.572 320.98 175.75 320.98C90.9283 320.98 22.1667 287.674 22.1667 276.97C22.1667 266.267 85.3866 242.247 170.208 242.247C255.03 242.247 329.333 266.267 329.333 276.97Z" fill="#3F3D56"/>
<path opacity="0.1" d="M329.333 276.97C329.333 287.674 260.572 320.98 175.75 320.98C90.9283 320.98 22.1667 287.674 22.1667 276.97C22.1667 266.267 85.3866 242.247 170.208 242.247C255.03 242.247 329.333 266.267 329.333 276.97Z" fill="black"/>
<path d="M329.333 276.97C329.333 287.674 260.572 296.351 175.75 296.351C90.9283 296.351 22.1667 287.674 22.1667 276.97C22.1667 266.267 85.3866 242.247 170.208 242.247C255.03 242.247 329.333 266.267 329.333 276.97Z" fill="#3F3D56"/>
<path d="M227.378 223.303C227.378 238.658 236.822 251.082 248.492 251.082L227.378 223.303Z" fill="#3F3D56"/>
<path d="M248.492 251.083C248.492 235.555 259.031 222.991 272.054 222.991L248.492 251.083Z" fill="#0038FF"/>
<path d="M235.028 224.695C235.028 239.28 241.05 251.082 248.492 251.082L235.028 224.695Z" fill="#0038FF"/>
<path d="M248.492 251.082C248.492 231.242 260.673 215.188 275.726 215.188L248.492 251.082Z" fill="#3F3D56"/>
<path d="M244.05 251.278C244.05 251.278 247.045 251.184 247.947 250.529C248.85 249.873 252.553 249.091 252.777 250.142C253.001 251.193 257.277 255.37 253.896 255.398C250.516 255.426 246.041 254.861 245.141 254.301C244.24 253.742 244.05 251.278 244.05 251.278Z" fill="#A8A8A8"/>
<path opacity="0.2" d="M253.957 255.032C250.576 255.06 246.102 254.495 245.201 253.935C244.515 253.509 244.242 251.98 244.15 251.274C244.087 251.277 244.05 251.278 244.05 251.278C244.05 251.278 244.24 253.742 245.141 254.301C246.041 254.861 250.516 255.426 253.896 255.398C254.872 255.39 255.209 255.036 255.191 254.511C255.055 254.828 254.683 255.026 253.957 255.032Z" fill="black"/>
<path opacity="0.1" d="M177.729 283.431C206.586 283.431 229.979 279.634 229.979 274.952C229.979 270.269 206.586 266.473 177.729 266.473C148.872 266.473 125.479 270.269 125.479 274.952C125.479 279.634 148.872 283.431 177.729 283.431Z" fill="black"/>
<path d="M200.687 255.975H195.542V268.088H200.687V255.975Z" fill="#FFB9B9"/>
<path d="M201.083 92.4531H181.292V128.791H201.083V92.4531Z" fill="#FF6584"/>
<path d="M215.619 161.226L216.303 166.816L198.265 172.405L195.981 162.157L215.619 161.226Z" fill="#FFB9B9"/>
<path d="M188.903 107.424C188.903 107.424 188.446 111.616 187.533 111.616C186.62 111.616 183.423 113.246 183.423 113.246L182.51 117.672L188.903 121.631L199.407 120.467L202.375 115.808L199.407 112.781C199.407 112.781 196.895 107.191 197.808 106.026C198.722 104.862 188.903 107.424 188.903 107.424Z" fill="#FFB9B9"/>
<path opacity="0.1" d="M188.903 107.424C188.903 107.424 188.446 111.616 187.533 111.616C186.62 111.616 183.423 113.246 183.423 113.246L182.51 117.672L188.903 121.631L199.407 120.467L202.375 115.808L199.407 112.781C199.407 112.781 196.895 107.191 197.808 106.026C198.722 104.862 188.903 107.424 188.903 107.424Z" fill="black"/>
<path d="M160.361 252.526C160.361 252.526 158.306 266.5 155.794 267.432C153.282 268.364 165.384 269.994 165.384 269.994L166.298 264.87C166.298 264.87 166.526 255.554 167.439 254.156C168.353 252.759 160.361 252.526 160.361 252.526Z" fill="#FFB9B9"/>
<path d="M183.651 171.241C183.651 171.241 216.76 165.185 216.989 164.02C217.217 162.856 223.839 172.871 219.729 192.435C215.619 212 205.343 258.116 205.343 258.116C205.343 258.116 194.84 261.376 195.068 258.814C195.296 256.252 198.722 211.767 198.722 211.767L196.438 192.901L192.556 195.23L176.344 227.838L168.124 256.02C168.124 256.02 157.621 257.883 159.219 253.923C160.817 249.964 166.069 219.22 166.069 219.22L180.455 175.899C180.455 175.899 179.998 171.241 183.651 171.241Z" fill="#2F2E41"/>
<path d="M191.986 110.568C197.282 110.568 201.576 106.189 201.576 100.786C201.576 95.3835 197.282 91.0039 191.986 91.0039C186.689 91.0039 182.396 95.3835 182.396 100.786C182.396 106.189 186.689 110.568 191.986 110.568Z" fill="#FFB9B9"/>
<path d="M201.918 113.013C201.918 113.013 197.352 117.438 186.62 116.274C175.888 115.109 189.588 141.195 189.588 141.195L193.926 167.514C193.926 167.514 213.107 165.185 213.792 160.76C214.477 156.334 201.918 113.013 201.918 113.013Z" fill="#F2F2F2"/>
<path d="M197.352 137.935C197.352 137.935 191.871 135.14 189.816 127.454C187.761 119.768 185.935 111.849 184.793 112.082C183.829 112.278 174.889 115.796 171.991 118.148C171.457 118.582 171.128 118.976 171.093 119.302C170.864 121.398 179.313 142.36 179.313 142.36C179.313 142.36 185.935 157.499 183.195 162.39C180.455 167.281 180.226 173.57 185.25 173.104C190.273 172.638 206.942 171.706 204.658 158.664C204.658 158.664 208.997 167.747 221.099 161.226C221.099 161.226 228.405 160.061 228.177 157.499C227.949 154.937 216.532 132.811 216.532 132.811C216.532 132.811 214.705 123.028 218.13 119.302L210.367 109.986C210.367 109.986 208.54 107.191 206.713 108.588C204.887 109.986 200.777 112.315 200.092 112.548C199.407 112.78 198.956 111.71 198.956 111.71C197.374 115.086 196.74 118.842 197.123 122.563C197.808 128.618 197.352 137.935 197.352 137.935Z" fill="#2F2E41"/>
<path d="M161.046 264.637C161.046 264.637 160.536 263.007 157.594 264.637C157.594 264.637 158.534 259.513 155.337 259.513C152.141 259.513 150.999 265.569 150.999 265.569C150.999 265.569 150.086 269.528 143.921 271.159C137.755 272.789 142.55 278.379 146.889 278.379C151.227 278.379 156.936 274.885 156.936 274.885C156.936 274.885 168.809 275.118 169.038 272.789C169.266 270.46 167.896 263.473 166.983 263.473C166.069 263.473 164.243 266.733 164.243 266.733L161.046 264.637Z" fill="#2F2E41"/>
<path d="M199.863 260.538C199.863 260.538 196.666 257.045 194.84 262.868C193.013 268.69 191.643 271.019 192.785 271.951C193.926 272.883 194.84 272.417 194.383 274.28C193.926 276.143 195.753 280.103 199.863 280.103C203.973 280.103 205.115 277.075 204.887 274.979C204.658 272.883 202.832 270.321 202.832 270.321L201.005 263.799L199.863 260.538Z" fill="#2F2E41"/>
<path d="M217.902 96.71L205.8 100.902C205.8 100.902 194.84 107.424 199.635 108.821C204.43 110.219 208.54 104.629 208.54 104.629L219.044 101.834L217.902 96.71Z" fill="#FFB9B9"/>
<path d="M185.46 85.6594C184.024 86.6634 182.88 88.0386 181.792 89.4262C179.583 92.2457 177.417 95.613 177.962 99.1797C178.169 100.534 178.759 101.795 179.091 103.124C179.54 104.916 179.51 106.793 179.478 108.643C179.504 109.429 179.409 110.214 179.195 110.97C178.875 111.706 178.499 112.415 178.07 113.091C176.97 115.181 176.943 117.663 176.942 120.035C176.889 120.833 176.996 121.634 177.255 122.389C177.555 123.102 178.114 123.661 178.578 124.277C179.346 125.316 179.859 126.529 180.073 127.812C180.287 129.095 180.196 130.413 179.808 131.653C180.404 131.655 180.988 131.485 181.493 131.16C181.997 130.836 182.4 130.372 182.654 129.822C182.733 130.413 182.683 131.015 182.508 131.584C182.333 132.153 182.036 132.675 181.64 133.114C184.254 132.322 187.055 130.986 188.01 128.38C188.289 127.495 188.447 126.574 188.479 125.644C188.986 119.108 189.276 112.328 186.978 106.205C186.243 104.246 185.242 102.35 184.996 100.267C184.749 98.1848 185.503 95.7783 187.378 94.9183C187.422 95.4514 187.654 95.9502 188.031 96.3217C188.449 96.6379 189.221 96.4396 189.228 95.9093L190.134 97.196C190.482 97.0219 190.779 96.758 190.995 96.4304L191.616 97.206L192.937 96.2258L194.084 97.4876C194.526 97.231 194.878 96.8402 195.091 96.3696C195.338 96.7457 195.643 97.1591 196.085 97.1998C197.046 97.2884 197.245 95.7314 198.085 95.2457C198.396 95.1058 198.745 95.0841 199.07 95.1845C199.395 95.2849 199.673 95.5008 199.855 95.7929C200.202 96.3942 200.328 97.1013 200.212 97.7885C199.864 100.991 197.185 103.914 197.979 107.032C198.426 108.786 199.93 110.192 200.044 112C200.134 113.445 199.301 114.812 199.314 116.26C199.329 117.957 200.479 119.399 201.601 120.651C203.598 122.881 205.7 125.007 207.906 127.027L207.225 125.811C207.543 125.785 207.863 125.83 208.163 125.943C208.462 126.055 208.735 126.232 208.961 126.462C209.157 125.763 208.832 125.034 208.525 124.378C206.69 120.445 205.208 116.259 204.986 111.909C204.678 105.864 206.81 99.7238 205.459 93.8289C204.682 90.5283 202.872 87.576 200.302 85.4195C199.053 84.3706 198.106 83.7424 196.488 83.6268C194.68 83.4665 192.861 83.4811 191.055 83.6703C189.06 83.8639 187.141 84.5463 185.46 85.6594Z" fill="#FF6584"/>
<path d="M208.54 110.218C208.54 110.218 211.052 110.451 212.193 110.218C213.335 109.985 214.934 108.821 214.934 108.821L223.61 102.299L216.075 103.464C216.075 103.464 217.445 92.7501 216.989 92.5172C216.532 92.2843 239.137 87.859 238.681 95.0792C238.224 102.299 225.437 116.507 218.13 119.302L213.335 120.001L208.54 110.218Z" fill="#2F2E41"/>
<path d="M233.146 192.791H125.479V218.631H233.146V192.791Z" fill="white"/>
<path d="M219.094 198.645H139.135V212.373H219.094V198.645Z" fill="#3F3D56"/>
<path d="M157.717 205.208C157.685 204.856 156.158 204.699 154.064 204.787C155.278 203.044 155.981 201.653 155.709 201.434C155.452 201.227 154.402 202.121 153.124 203.573C153.003 201.625 152.723 200.26 152.396 200.26C152.039 200.26 151.738 201.884 151.639 204.117C149.86 202.812 148.424 202.046 148.203 202.332C147.992 202.604 148.953 203.755 150.481 205.132C148.464 205.437 147.043 205.868 147.075 206.214C147.107 206.566 148.633 206.723 150.728 206.635C149.514 208.378 148.811 209.769 149.083 209.988C149.34 210.195 150.389 209.301 151.668 207.849C151.788 209.797 152.069 211.162 152.396 211.162C152.752 211.162 153.054 209.538 153.153 207.305C154.931 208.61 156.368 209.376 156.589 209.09C156.8 208.818 155.839 207.667 154.31 206.29C156.327 205.985 157.748 205.554 157.717 205.208Z" fill="white"/>
<path d="M171.175 205.208C171.143 204.856 169.617 204.699 167.522 204.787C168.736 203.044 169.439 201.653 169.167 201.434C168.911 201.227 167.861 202.121 166.582 203.573C166.462 201.625 166.181 200.26 165.854 200.26C165.498 200.26 165.196 201.884 165.097 204.117C163.319 202.812 161.882 202.046 161.661 202.332C161.45 202.604 162.411 203.755 163.94 205.132C161.923 205.437 160.502 205.868 160.533 206.214C160.565 206.566 162.092 206.723 164.186 206.635C162.972 208.378 162.269 209.769 162.541 209.988C162.798 210.195 163.848 209.301 165.126 207.849C165.247 209.797 165.527 211.162 165.854 211.162C166.211 211.162 166.512 209.538 166.611 207.305C168.39 208.61 169.826 209.376 170.047 209.09C170.258 208.818 169.297 207.667 167.769 206.29C169.786 205.985 171.207 205.554 171.175 205.208Z" fill="white"/>
<path d="M184.633 205.208C184.601 204.856 183.075 204.699 180.981 204.787C182.194 203.044 182.897 201.653 182.625 201.434C182.369 201.227 181.319 202.121 180.041 203.573C179.92 201.625 179.639 200.26 179.312 200.26C178.956 200.26 178.654 201.884 178.555 204.117C176.777 202.812 175.341 202.046 175.119 202.332C174.908 202.604 175.87 203.755 177.398 205.132C175.381 205.437 173.96 205.868 173.991 206.214C174.023 206.566 175.55 206.723 177.644 206.635C176.431 208.378 175.728 209.769 176 209.988C176.256 210.195 177.306 209.301 178.584 207.849C178.705 209.797 178.985 211.162 179.312 211.162C179.669 211.162 179.97 209.538 180.069 207.305C181.848 208.61 183.284 209.376 183.505 209.09C183.716 208.818 182.755 207.667 181.227 206.29C183.244 205.985 184.665 205.554 184.633 205.208Z" fill="white"/>
<path d="M198.092 205.208C198.06 204.856 196.533 204.699 194.439 204.787C195.653 203.044 196.356 201.653 196.084 201.434C195.827 201.227 194.777 202.121 193.499 203.573C193.378 201.625 193.098 200.26 192.771 200.26C192.414 200.26 192.113 201.884 192.014 204.117C190.235 202.812 188.799 202.046 188.578 202.332C188.367 202.604 189.328 203.755 190.856 205.132C188.839 205.437 187.418 205.868 187.45 206.214C187.482 206.566 189.008 206.723 191.103 206.635C189.889 208.378 189.186 209.769 189.458 209.988C189.715 210.195 190.764 209.301 192.043 207.849C192.163 209.797 192.444 211.162 192.771 211.162C193.127 211.162 193.429 209.538 193.528 207.305C195.306 208.61 196.743 209.376 196.964 209.09C197.175 208.818 196.214 207.667 194.685 206.29C196.702 205.985 198.123 205.554 198.092 205.208Z" fill="white"/>
<path d="M211.55 205.208C211.518 204.856 209.992 204.699 207.897 204.787C209.111 203.044 209.814 201.653 209.542 201.434C209.285 201.227 208.236 202.121 206.957 203.573C206.837 201.625 206.556 200.26 206.229 200.26C205.873 200.26 205.571 201.884 205.472 204.117C203.694 202.812 202.257 202.046 202.036 202.332C201.825 202.604 202.786 203.755 204.315 205.132C202.298 205.437 200.877 205.868 200.908 206.214C200.94 206.566 202.467 206.723 204.561 206.635C203.347 208.378 202.644 209.769 202.916 209.988C203.173 210.195 204.223 209.301 205.501 207.849C205.622 209.797 205.902 211.162 206.229 211.162C206.586 211.162 206.887 209.538 206.986 207.305C208.765 208.61 210.201 209.376 210.422 209.09C210.633 208.818 209.672 207.667 208.144 206.29C210.161 205.985 211.582 205.554 211.55 205.208Z" fill="white"/>
<path d="M169.723 181.722C169.723 181.722 168.581 197.094 174.061 197.792C179.541 198.491 174.518 180.324 174.518 180.324L169.723 181.722Z" fill="#FFB9B9"/>
<path d="M172.691 118.836L171.093 119.302C171.093 119.302 164.471 173.337 168.809 183.818C168.809 183.818 173.376 181.256 175.659 181.721L179.313 137.702L172.691 118.836Z" fill="#2F2E41"/>
</g>
<defs>
<clipPath id="clip0">
<rect width="380" height="320.98" fill="white"/>
</clipPath>
</defs>
</svg>
