<svg width="679" height="300" viewBox="0 0 679 300" fill="none" xmlns="http://www.w3.org/2000/svg">
<g clip-path="url(#clip0)">
<path d="M371.376 294.658C368.388 294.655 365.449 295.611 362.837 297.436H379.892C377.288 295.611 374.356 294.655 371.376 294.658Z" fill="#E6E6E6"/>
<path d="M404.471 291.88C399.481 291.873 394.611 293.814 390.534 297.436H418.39C414.318 293.818 409.455 291.877 404.471 291.88Z" fill="#E6E6E6"/>
<path d="M591.942 256.71C590.696 228.256 572.541 205.057 549.963 203.113C539.555 202.192 529.214 205.829 520.692 213.408C512.17 220.988 505.99 232.043 503.2 244.702C502.652 244.677 502.104 244.65 501.551 244.65C491.78 244.652 482.271 248.638 474.448 256.012C466.625 263.386 460.909 273.751 458.154 285.557C451.679 281.974 444.443 281.197 437.579 283.346C430.716 285.496 424.612 290.452 420.224 297.437H561.313C578.646 297.437 592.681 279.358 591.974 257.55C591.965 257.27 591.954 256.99 591.942 256.71Z" fill="#E6E6E6"/>
<path d="M588.278 296.849H192V298.024H588.278V296.849Z" fill="#3F3D56"/>
<path d="M324.253 105.934C324.253 105.934 306.267 98.8794 309.028 110.486C311.789 122.094 326.939 116.231 326.939 116.231L324.253 105.934Z" fill="#FFB8B8"/>
<path d="M393.008 62.3678C393.008 62.3678 383.79 46.5065 374.834 62.9725C365.861 79.4709 357.519 93.0151 357.519 93.0151L335.233 102.165L322.34 103.605L325.892 118.039L363.379 111.191C363.379 111.191 405.114 79.9738 393.008 62.3678Z" fill="#2F2E41"/>
<path d="M351.865 150.207C351.865 150.207 337.862 162.55 338.795 173.717C339.729 184.884 345.797 215.447 345.797 215.447L358.399 213.096C358.399 213.096 359.8 189.586 355.132 180.77L377.536 164.901L351.865 150.207Z" fill="#FFB8B8"/>
<path d="M382.904 179.3C382.904 179.3 381.971 201.047 384.304 209.863C386.638 218.679 388.972 251.593 388.972 251.593H402.041C402.041 251.593 408.109 222.793 400.641 209.863C400.641 209.863 398.307 192.818 404.842 184.59L382.904 179.3Z" fill="#FFB8B8"/>
<path d="M379.87 119.056C379.87 119.056 349.531 143.154 349.531 150.795L373.802 176.068L382.204 164.313L381.27 181.945L407.409 188.41C407.409 188.41 416.744 143.742 416.277 141.978C415.811 140.215 414.41 114.354 414.41 114.354L379.87 119.056Z" fill="#2F2E41"/>
<path d="M358.399 210.157L344.863 213.683L347.268 226.133C348.452 232.261 348.587 238.635 347.664 244.834C347.664 244.834 361.667 249.536 361.667 247.185C361.667 244.834 358.399 235.43 359.333 228.965C360.266 222.499 358.399 210.157 358.399 210.157Z" fill="#0038FF"/>
<path d="M365.401 254.237C364.934 251.886 361.056 241.227 360.894 243.03C360.733 244.833 353.265 247.772 350.464 244.246C350.464 244.246 346.73 240.131 345.33 244.246C343.93 248.36 341.129 255.413 341.129 255.413C341.129 255.413 328.527 263.053 330.394 267.167C330.771 268 331.818 268.351 333.246 268.381C333.212 268.49 333.195 268.606 333.194 268.722V269.139C333.194 269.395 333.275 269.642 333.419 269.823C333.563 270.004 333.759 270.106 333.962 270.106H334.293C334.497 270.106 334.692 270.004 334.836 269.823C334.98 269.642 335.061 269.395 335.061 269.139V268.722C335.061 268.572 335.032 268.425 334.977 268.291C335.359 268.249 335.755 268.194 336.162 268.126C336.055 268.295 335.996 268.506 335.995 268.722V269.139C335.995 269.395 336.076 269.642 336.22 269.823C336.364 270.004 336.559 270.106 336.763 270.106H337.094C337.298 270.106 337.493 270.004 337.637 269.823C337.781 269.642 337.862 269.395 337.862 269.139V268.722C337.862 268.55 337.825 268.381 337.755 268.233C337.685 268.085 337.585 267.963 337.465 267.88C338.539 267.655 339.66 267.367 340.775 267.049C340.702 267.199 340.663 267.371 340.662 267.547V267.963C340.662 268.22 340.743 268.466 340.887 268.647C341.032 268.829 341.227 268.931 341.431 268.931H341.761C341.965 268.931 342.16 268.829 342.305 268.647C342.449 268.466 342.53 268.22 342.53 267.963V267.547C342.529 267.36 342.486 267.177 342.405 267.02C342.324 266.864 342.209 266.74 342.073 266.664C342.909 266.408 343.729 266.14 344.509 265.875C344.436 266.024 344.397 266.196 344.397 266.371V266.788C344.397 267.045 344.477 267.291 344.622 267.472C344.766 267.653 344.961 267.755 345.165 267.755H345.495C345.699 267.755 345.895 267.653 346.039 267.472C346.183 267.291 346.264 267.045 346.264 266.788V266.371C346.263 266.166 346.211 265.966 346.113 265.8C346.016 265.635 345.88 265.513 345.723 265.453C348.465 264.48 350.464 263.641 350.464 263.641C350.464 263.641 352.787 262.577 355.599 261.139V261.498C355.599 261.755 355.68 262.001 355.824 262.182C355.968 262.364 356.163 262.466 356.367 262.466H356.698C356.901 262.466 357.097 262.364 357.241 262.182C357.385 262.001 357.466 261.755 357.466 261.498V261.082C357.465 260.935 357.439 260.791 357.387 260.659C357.336 260.528 357.261 260.413 357.169 260.323C357.733 260.024 358.303 259.717 358.866 259.404V259.735C358.866 259.992 358.947 260.238 359.091 260.419C359.235 260.6 359.43 260.702 359.634 260.702H359.965C360.169 260.702 360.364 260.6 360.508 260.419C360.652 260.238 360.733 259.992 360.733 259.735V259.319C360.733 259.163 360.703 259.01 360.646 258.872C360.589 258.734 360.506 258.616 360.404 258.527C361.013 258.169 361.6 257.812 362.141 257.461C362.138 257.493 362.133 257.523 362.133 257.555V257.972C362.133 258.228 362.214 258.474 362.358 258.656C362.502 258.837 362.698 258.939 362.902 258.939H363.232C363.436 258.939 363.631 258.837 363.775 258.656C363.919 258.474 364 258.228 364 257.972V257.555C364 257.332 363.939 257.116 363.827 256.944C363.715 256.771 363.559 256.652 363.386 256.608C364.691 255.653 365.514 254.807 365.401 254.237Z" fill="#2F2E41"/>
<path d="M402.975 248.948L388.188 247.772C388.188 247.772 389.084 267.168 387.292 273.633C385.499 280.098 386.395 282.449 386.395 282.449L399.39 283.625L402.975 248.948Z" fill="#0038FF"/>
<path d="M403.156 291.815C403.089 289.393 401.061 277.95 400.605 279.671C400.149 281.392 392.358 282.305 390.203 278.121C390.203 278.121 387.232 273.117 385.181 276.773C383.131 280.429 379.224 286.592 379.224 286.592C379.224 286.592 365.633 290.756 366.778 295.27C367.009 296.183 367.975 296.801 369.366 297.206C369.316 297.303 369.279 297.412 369.259 297.526L369.19 297.933C369.148 298.184 369.186 298.446 369.297 298.661C369.408 298.876 369.582 299.027 369.782 299.081L370.105 299.168C370.304 299.221 370.512 299.173 370.683 299.033C370.854 298.894 370.974 298.674 371.016 298.423L371.085 298.016C371.11 297.869 371.106 297.717 371.075 297.572C371.455 297.631 371.852 297.681 372.261 297.722C372.128 297.859 372.035 298.049 371.998 298.261L371.929 298.668C371.887 298.919 371.925 299.181 372.036 299.396C372.147 299.612 372.321 299.763 372.521 299.816L372.844 299.903C373.043 299.956 373.251 299.908 373.422 299.768C373.593 299.629 373.713 299.41 373.755 299.159L373.824 298.751C373.853 298.583 373.844 298.408 373.801 298.244C373.757 298.081 373.679 297.936 373.575 297.823C374.663 297.885 375.808 297.898 376.951 297.879C376.854 298.007 376.788 298.165 376.758 298.337L376.689 298.744C376.647 298.995 376.685 299.257 376.796 299.472C376.907 299.687 377.081 299.838 377.28 299.892L377.604 299.979C377.803 300.032 378.011 299.984 378.182 299.844C378.353 299.705 378.473 299.485 378.515 299.234L378.584 298.827C378.615 298.644 378.603 298.454 378.55 298.279C378.496 298.105 378.404 297.954 378.284 297.844C379.144 297.812 379.99 297.766 380.797 297.711C380.701 297.838 380.634 297.996 380.605 298.168L380.536 298.575C380.493 298.826 380.532 299.088 380.642 299.303C380.753 299.518 380.928 299.669 381.127 299.723L381.45 299.809C381.649 299.863 381.857 299.815 382.028 299.675C382.199 299.535 382.319 299.316 382.362 299.065L382.431 298.658C382.464 298.457 382.446 298.247 382.378 298.06C382.311 297.872 382.197 297.717 382.055 297.617C384.896 297.386 386.991 297.09 386.991 297.09C386.991 297.09 389.439 296.659 392.427 295.992L392.368 296.343C392.325 296.594 392.363 296.855 392.474 297.071C392.585 297.286 392.759 297.437 392.959 297.49L393.282 297.577C393.481 297.631 393.689 297.582 393.86 297.443C394.031 297.303 394.151 297.084 394.194 296.833L394.263 296.426C394.287 296.282 394.284 296.134 394.256 295.991C394.227 295.849 394.173 295.717 394.098 295.605C394.699 295.461 395.307 295.31 395.91 295.153L395.855 295.476C395.813 295.727 395.851 295.989 395.962 296.204C396.073 296.419 396.247 296.57 396.446 296.624L396.77 296.711C396.969 296.764 397.177 296.716 397.348 296.576C397.519 296.436 397.639 296.217 397.681 295.966L397.75 295.559C397.776 295.407 397.772 295.249 397.739 295.099C397.705 294.949 397.644 294.812 397.56 294.698C398.214 294.508 398.847 294.313 399.434 294.112C399.427 294.142 399.417 294.171 399.411 294.202L399.342 294.609C399.3 294.86 399.338 295.122 399.449 295.337C399.56 295.553 399.734 295.704 399.934 295.757L400.257 295.844C400.456 295.897 400.664 295.849 400.835 295.709C401.006 295.57 401.126 295.35 401.168 295.1L401.237 294.692C401.274 294.474 401.25 294.247 401.169 294.048C401.088 293.85 400.955 293.693 400.793 293.604C402.228 293.013 403.173 292.401 403.156 291.815Z" fill="#2F2E41"/>
<path d="M379.87 42.6497C387.346 42.6497 393.406 35.0186 393.406 25.6051C393.406 16.1917 387.346 8.56055 379.87 8.56055C372.394 8.56055 366.334 16.1917 366.334 25.6051C366.334 35.0186 372.394 42.6497 379.87 42.6497Z" fill="#FFB8B8"/>
<path d="M392.006 23.8418C392.006 23.8418 399.474 35.5967 403.208 35.0089L386.871 50.878C386.871 50.878 385.004 40.8864 382.671 39.7109C380.337 38.5354 392.006 23.8418 392.006 23.8418Z" fill="#FFB8B8"/>
<path d="M421.178 111.122C421.178 111.122 421.177 46.2663 412.537 40.6795C403.902 35.096 398.19 31.9092 398.19 31.9092C398.063 34.0372 397.583 36.108 396.78 37.9877C395.978 39.8675 394.871 41.5143 393.532 42.8219C390.669 45.6052 387.816 47.9132 386.223 47.9206L386.171 47.6454L385.977 46.9466L381.27 56.1677C381.27 56.1677 377.07 57.3431 375.669 60.8696C374.912 62.7774 378.484 81.9832 376.369 99.3668C374.575 114.115 367.015 127.429 366.801 129.048C366.439 131.784 375.627 124.615 379.765 121.264C379.827 121.35 379.87 121.407 379.87 121.407C379.87 121.407 377.536 122.583 382.204 120.819C384.849 119.82 388.541 119.765 391.246 119.904C391.243 120.926 391.262 121.737 391.306 122.289C391.773 128.166 415.11 136.395 418.378 134.631C421.645 132.868 421.178 111.122 421.178 111.122Z" fill="#2F2E41"/>
<path d="M404.842 133.456C404.842 133.456 390.839 149.325 400.174 152.264C409.509 155.203 413.243 135.807 413.243 135.807L404.842 133.456Z" fill="#FFB8B8"/>
<path d="M388.505 174.598C388.505 174.598 395.04 166.957 398.774 171.071C402.508 175.186 404.842 178.124 404.842 178.124C404.842 178.124 394.106 169.896 388.505 174.598Z" fill="#0038FF"/>
<path d="M390.202 266.021C390.202 266.021 393.886 261.714 395.99 264.033C398.095 266.352 399.41 268.009 399.41 268.009C399.41 268.009 393.359 263.371 390.202 266.021Z" fill="#2F2E41"/>
<path d="M348.939 225.963C348.939 225.963 351.468 220.493 354.017 221.941C356.567 223.388 358.208 224.49 358.208 224.49C358.208 224.49 351.347 222.271 348.939 225.963Z" fill="#2F2E41"/>
<path d="M417.651 48.7438C413.024 37.0324 398.946 43.4198 401.234 56.1792C401.268 56.3694 401.304 56.5615 401.341 56.7554C403.752 68.8336 407.692 80.344 413.01 90.8445L407.876 119.644L402.274 134.338L413.943 137.864L428.413 93.7832C428.413 93.7832 424.422 65.8812 417.651 48.7438Z" fill="#2F2E41"/>
<path opacity="0.2" d="M410.91 91.7266L402.041 134.044L409.509 114.061L410.91 91.7266Z" fill="black"/>
<path d="M388.371 5.73716C388.371 5.73716 380.889 -4.18188 373.358 2.06475C365.826 8.31139 362.254 14.3794 362.992 18.6044C363.73 22.8295 365.916 28.7063 365.916 28.7063C365.916 28.7063 364.558 19.9532 370.794 19.3055C377.03 18.6578 385.646 13.4611 385.646 13.4611L391.473 29.1326C391.473 29.1326 392.297 25.501 394.581 26.5427C396.866 27.5843 395.095 6.89896 388.371 5.73716Z" fill="#2F2E41"/>
<path d="M340.429 229.846C340.428 231.335 340.33 232.821 340.135 234.29V234.295C339.599 238.245 338.357 241.99 336.504 245.247C334.651 248.505 332.234 251.189 329.436 253.099C326.638 255.008 323.532 256.092 320.353 256.269C317.174 256.446 314.005 255.711 311.084 254.12H311.079C310.215 253.65 309.377 253.106 308.573 252.492C306.078 250.596 303.924 248.067 302.246 245.067C300.569 242.068 299.404 238.662 298.827 235.065C298.556 233.347 298.42 231.598 298.421 229.846C298.421 229.047 298.449 228.253 298.505 227.472V227.466C298.989 220.717 301.512 214.459 305.554 209.984C309.595 205.51 314.847 203.159 320.224 203.418C325.602 203.676 330.696 206.524 334.455 211.374C338.213 216.224 340.35 222.706 340.424 229.482V229.488C340.429 229.611 340.429 229.723 340.429 229.846Z" fill="#0038FF"/>
<path d="M324.595 221.012H315.188L310.484 210.756L313.675 203.792L313.861 203.729C317.9 202.37 322.166 202.52 326.138 204.161L326.307 204.232L329.299 210.756L324.595 221.012ZM315.727 219.836H324.056L328.221 210.756L325.678 205.209C321.986 203.735 318.041 203.594 314.289 204.802L311.562 210.756L315.727 219.836Z" fill="white"/>
<path d="M324.129 242.171H314.721L310.018 231.913L314.721 221.654H324.129L328.832 231.913L324.129 242.171ZM315.26 240.996H323.59L327.754 231.913L323.59 222.83H315.26L311.096 231.913L315.26 240.996Z" fill="white"/>
<path d="M319.425 256.882C316.491 256.889 313.588 256.132 310.898 254.659L310.418 254.396L315.188 243.987H324.595L329.164 253.952L328.71 254.226C325.814 255.984 322.64 256.892 319.425 256.882ZM311.753 253.836C314.319 255.136 317.068 255.77 319.833 255.702C322.599 255.633 325.326 254.862 327.849 253.435L324.057 245.162H315.727L311.753 253.836Z" fill="white"/>
<path d="M339.998 231.591H330.591L325.887 221.335L330.591 211.073H334.874L335.012 211.256C338.727 216.177 340.827 222.685 340.891 229.474V229.645L339.998 231.591ZM331.13 230.416H339.459L339.956 229.334C339.866 222.982 337.912 216.896 334.472 212.249H331.13L326.965 221.335L331.13 230.416Z" fill="white"/>
<path d="M330.461 253.051L325.887 243.082L330.591 232.82H339.998L340.602 234.131L340.595 234.394C340.085 238.137 338.956 241.703 337.281 244.861C335.606 248.019 333.422 250.698 330.872 252.724L330.461 253.051ZM326.965 243.082L330.781 251.397C333.092 249.464 335.07 246.961 336.593 244.04C338.117 241.119 339.156 237.84 339.647 234.401L339.46 233.995H331.13L326.965 243.082Z" fill="white"/>
<path d="M308.739 253.305L308.331 252.995C305.782 251.055 303.581 248.47 301.866 245.404C300.151 242.337 298.961 238.856 298.369 235.181L298.334 234.963L299.318 232.82H308.726L313.429 243.082L308.739 253.305ZM299.32 235.166C299.887 238.54 300.983 241.738 302.543 244.573C304.104 247.407 306.098 249.821 308.409 251.673L312.351 243.082L308.186 233.995H299.857L299.32 235.166Z" fill="white"/>
<path d="M308.725 230.416H299.318L298.038 227.63V227.472C298.499 220.811 300.909 214.604 304.801 210.055L304.935 209.898H308.726L313.429 220.16L308.725 230.416ZM299.857 229.241H308.187L312.351 220.16L308.186 211.073H305.304C301.703 215.353 299.457 221.132 298.983 227.339L299.857 229.241Z" fill="white"/>
</g>
<path d="M583.773 230.626C585.245 228.218 586.006 225.485 585.977 222.71C585.977 215.556 581.25 209.757 575.419 209.757C569.588 209.757 564.862 215.556 564.862 222.71C564.833 225.485 565.593 228.218 567.065 230.626C565.62 233.045 564.862 235.77 564.862 238.542C564.862 241.314 565.62 244.039 567.065 246.458C565.62 248.877 564.862 251.602 564.862 254.374C564.862 257.146 565.62 259.871 567.065 262.29C565.62 264.708 564.862 267.434 564.862 270.206C564.862 272.978 565.62 275.703 567.065 278.122C565.593 280.53 564.833 283.262 564.862 286.038C564.862 293.192 569.588 298.991 575.419 298.991C581.25 298.991 585.977 293.192 585.977 286.038C586.006 283.262 585.245 280.53 583.773 278.122C585.218 275.703 585.977 272.978 585.977 270.206C585.977 267.434 585.218 264.708 583.773 262.29C585.218 259.871 585.977 257.146 585.977 254.374C585.977 251.602 585.218 248.877 583.773 246.458C585.218 244.039 585.977 241.314 585.977 238.542C585.977 235.77 585.218 233.045 583.773 230.626Z" fill="#3F3D56"/>
<path d="M575.419 219.831C581.25 219.831 585.977 214.032 585.977 206.878C585.977 199.724 581.25 193.925 575.419 193.925C569.588 193.925 564.862 199.724 564.862 206.878C564.862 214.032 569.588 219.831 575.419 219.831Z" fill="#3F3D56"/>
<path d="M575.419 203.999C581.25 203.999 585.977 198.2 585.977 191.046C585.977 183.892 581.25 178.093 575.419 178.093C569.588 178.093 564.862 183.892 564.862 191.046C564.862 198.2 569.588 203.999 575.419 203.999Z" fill="#3F3D56"/>
<path d="M614.941 82.7038C616.384 80.9827 617.697 79.1703 618.873 77.2795L591.132 73.0094L621.135 73.2185C624.013 67.3495 625.583 60.9917 625.749 54.5343C625.915 48.0768 624.673 41.6556 622.1 35.6633L581.848 55.2334L618.97 29.659C615.492 24.0264 610.814 19.1253 605.227 15.2611C599.64 11.3969 593.264 8.65227 586.496 7.19826C579.728 5.74425 572.713 5.61199 565.889 6.80972C559.064 8.00745 552.575 10.5095 546.827 14.16C541.079 17.8105 536.194 22.5313 532.477 28.0282C528.761 33.5252 526.292 39.6805 525.224 46.1109C524.156 52.5412 524.512 59.1087 526.271 65.4043C528.029 71.6998 531.152 77.5886 535.444 82.7038C533.196 85.3824 531.263 88.2804 529.677 91.3474L565.687 108.881L527.29 96.8037C524.594 104.273 523.928 112.255 525.352 120.026C526.776 127.798 530.244 135.114 535.444 141.313C529.577 148.304 525.927 156.701 524.912 165.545C523.897 174.389 525.558 183.322 529.704 191.323C533.85 199.324 540.315 206.07 548.359 210.789C556.404 215.509 565.702 218.012 575.193 218.012C584.683 218.012 593.982 215.509 602.026 210.789C610.07 206.07 616.535 199.324 620.682 191.323C624.828 183.322 626.489 174.389 625.473 165.545C624.458 156.701 620.808 148.304 614.941 141.313C621.952 132.958 625.764 122.637 625.764 112.008C625.764 101.379 621.952 91.0585 614.941 82.7038Z" fill="#57B894"/>
<path opacity="0.1" d="M524.622 112.008C524.605 122.64 528.418 132.966 535.445 141.312C529.577 148.304 525.927 156.701 524.912 165.545C523.897 174.389 525.558 183.322 529.704 191.322C533.85 199.323 540.315 206.069 548.359 210.789C556.404 215.509 565.702 218.011 575.193 218.011C584.683 218.011 593.982 215.509 602.026 210.789C610.071 206.069 616.535 199.323 620.682 191.322C624.828 183.322 626.489 174.389 625.473 165.545C624.458 156.701 620.809 148.304 614.941 141.312C621.719 133.248 524.622 106.688 524.622 112.008Z" fill="black"/>
<path d="M514.009 72.0092C512.493 70.5831 510.79 69.7295 509.466 69.6133L510.824 71.8868L508.593 69.6583C508.246 69.7276 507.931 69.8987 507.694 70.1469C506.575 71.3466 507.588 74.1256 509.957 76.3539C512.326 78.5822 515.154 79.416 516.273 78.2162C517.392 77.0164 516.378 74.2375 514.009 72.0092Z" fill="#57B894"/>
<path opacity="0.1" d="M514.827 73.3763C514.42 73.9381 514.221 74.6793 513.766 75.1977C513.312 75.7161 512.513 75.9904 511.433 75.5369C510.851 75.2926 510.249 74.8639 509.658 74.5588C509.181 74.3 508.652 74.1364 508.104 74.0782C508.609 74.9121 509.233 75.6776 509.958 76.3536C512.327 78.5819 515.154 79.4157 516.273 78.216C517.212 77.209 516.649 75.0897 515.043 73.1172C514.965 73.1991 514.893 73.2856 514.827 73.3763Z" fill="black"/>
<path d="M515.588 142.113C517.552 141.298 519.012 140.113 519.602 138.996L516.851 139.37L519.871 138.216C519.926 137.887 519.868 137.55 519.706 137.254C518.911 135.845 515.78 135.737 512.712 137.011C509.644 138.286 507.8 140.461 508.594 141.87C509.389 143.279 512.52 143.388 515.588 142.113Z" fill="#57B894"/>
<path opacity="0.1" d="M513.934 142.339C513.52 141.781 512.853 141.342 512.499 140.758C512.146 140.175 512.158 139.378 512.997 138.595C513.449 138.174 514.092 137.8 514.607 137.392C515.036 137.068 515.388 136.663 515.642 136.205C514.631 136.348 513.645 136.619 512.712 137.012C509.644 138.286 507.8 140.462 508.594 141.871C509.261 143.053 511.574 143.32 514.114 142.621C514.061 142.523 514 142.429 513.934 142.339Z" fill="black"/>
<path opacity="0.1" d="M394.62 131.686C394.701 132.361 395.064 133.045 395.078 133.716C395.092 134.387 394.676 135.082 393.541 135.396C392.929 135.565 392.174 135.606 391.513 135.735C390.971 135.829 390.456 136.027 390 136.316C390.962 136.642 391.966 136.844 392.986 136.915C396.332 137.165 399.059 136.075 399.077 134.482C399.091 133.144 397.193 131.878 394.605 131.357C394.602 131.467 394.607 131.577 394.62 131.686Z" fill="black"/>
<path d="M627.461 141.703C625.32 141.544 623.433 141.933 622.347 142.652L624.956 143.552L621.715 143.218C621.499 143.483 621.378 143.804 621.371 144.137C621.353 145.731 624.051 147.224 627.396 147.474C630.742 147.723 633.469 146.634 633.486 145.04C633.504 143.447 630.807 141.953 627.461 141.703Z" fill="#57B894"/>
<path opacity="0.1" d="M629.03 142.245C629.111 142.92 629.474 143.604 629.488 144.275C629.502 144.946 629.086 145.641 627.951 145.955C627.339 146.123 626.584 146.165 625.923 146.293C625.382 146.387 624.866 146.585 624.41 146.875C625.372 147.201 626.377 147.402 627.397 147.474C630.742 147.723 633.469 146.634 633.487 145.04C633.502 143.703 631.603 142.436 629.015 141.916C629.013 142.026 629.018 142.136 629.03 142.245Z" fill="black"/>
<path d="M677.295 194.005C678.221 192.188 678.508 190.398 678.182 189.19L676.351 191.151L677.844 188.434C677.658 188.151 677.381 187.93 677.052 187.804C675.471 187.218 673.017 189.043 671.57 191.881C670.123 194.72 670.231 197.496 671.812 198.082C673.393 198.669 675.848 196.843 677.295 194.005Z" fill="#57B894"/>
<path opacity="0.1" d="M676.194 195.184C675.492 195.013 674.681 195.086 674.007 194.857C673.334 194.629 672.791 194.016 672.885 192.91C672.936 192.315 673.165 191.64 673.274 191.015C673.374 190.507 673.361 189.985 673.237 189.482C672.567 190.207 672.006 191.014 671.57 191.881C670.123 194.719 670.231 197.496 671.812 198.082C673.139 198.574 675.081 197.367 676.527 195.288C676.418 195.247 676.307 195.212 676.194 195.184Z" fill="black"/>
<path d="M666.063 115.787C665.4 113.872 664.294 112.388 663.17 111.722L663.282 114.326L662.37 111.392C662.027 111.306 661.663 111.325 661.332 111.446C659.755 112.04 659.315 114.948 660.35 117.94C661.385 120.933 663.503 122.876 665.08 122.282C666.658 121.687 667.098 118.779 666.063 115.787Z" fill="#57B894"/>
<path opacity="0.1" d="M666.13 117.353C665.496 117.681 664.961 118.258 664.305 118.527C663.648 118.796 662.804 118.701 662.06 117.839C661.66 117.374 661.33 116.736 660.95 116.213C660.65 115.78 660.258 115.409 659.798 115.125C659.845 116.083 660.031 117.03 660.35 117.94C661.385 120.933 663.503 122.876 665.081 122.282C666.405 121.783 666.927 119.654 666.448 117.214C666.339 117.254 666.233 117.3 666.13 117.353Z" fill="black"/>
<path d="M633.588 178.957C635.733 179.063 637.608 178.627 638.673 177.882L636.04 177.047L639.29 177.3C639.498 177.031 639.609 176.706 639.607 176.373C639.58 174.78 636.841 173.353 633.49 173.187C630.138 173.021 627.443 174.178 627.47 175.771C627.498 177.365 630.237 178.791 633.588 178.957Z" fill="#57B894"/>
<path opacity="0.1" d="M632.004 178.455C631.904 177.783 631.522 177.108 631.489 176.437C631.456 175.767 631.852 175.062 632.978 174.72C633.584 174.536 634.338 174.476 634.995 174.331C635.534 174.224 636.044 174.013 636.492 173.712C635.521 173.41 634.511 173.234 633.489 173.187C630.138 173.021 627.443 174.178 627.47 175.771C627.493 177.109 629.426 178.328 632.028 178.784C632.028 178.674 632.02 178.564 632.004 178.455Z" fill="black"/>
<path d="M278.612 245.072C278.612 245.072 262.69 250.841 255.188 264.281C247.686 277.72 251.445 293.741 251.445 293.741C251.445 293.741 267.367 287.972 274.869 274.532C282.371 261.092 278.612 245.072 278.612 245.072Z" fill="#3F3D56"/>
<path d="M300 265.112C300 265.112 294.784 280.747 281.24 288.618C267.695 296.49 250.952 293.617 250.952 293.617C250.952 293.617 256.168 277.982 269.713 270.11C283.257 262.239 300 265.112 300 265.112Z" fill="#0038FF"/>
<path d="M284.306 298C284.306 298 273.765 294.844 252.76 291.678L253.219 285.464C256.841 250.478 232.696 198 232.696 198C241.92 224.074 246.307 251.516 245.655 279.064C242.434 273.634 236.21 267.776 224.245 264.181C224.245 264.181 239.805 277.071 244.261 290.479C223.832 287.866 203.277 286.267 182.678 285.689L188.028 273.802L177.767 283.714C177.767 283.714 173.541 253.977 164.487 252.81L171.127 281.965C171.127 281.965 163.28 276.134 161.469 276.717L165.934 285.344C135.862 285.043 100.088 286.356 58.6308 290.564L63.6821 279.341L53.4205 289.254C53.4205 289.254 49.1952 259.516 40.1408 258.35L46.7807 287.504C46.7807 287.504 38.9336 281.673 37.1227 282.257L42.3398 292.336C28.7918 293.892 14.6786 295.78 0 298L284.306 298Z" fill="#3F3D56"/>
<defs>
<clipPath id="clip0">
<rect width="400" height="300" fill="white" transform="translate(192)"/>
</clipPath>
</defs>
</svg>
