<svg width="500" height="350" viewBox="0 0 500 350" fill="none" xmlns="http://www.w3.org/2000/svg">
<g clip-path="url(#clip0)">
<path d="M500 204.294L309.516 111.1L311.701 292.096L429.473 349.717L500 204.294Z" fill="#F2F2F2"/>
<path d="M207.436 60.6367L209.62 241.633L304.005 287.812L301.821 106.815L207.436 60.6367Z" fill="#F2F2F2"/>
<path d="M240.242 205.114L237.576 265.104C237.576 265.104 244.508 321.88 242.908 323.487C241.309 325.094 237.042 328.307 240.242 332.057C243.442 335.806 255.174 338.484 255.707 336.342C256.24 334.199 257.307 273.138 257.307 273.138L261.04 200.829L240.242 205.114Z" fill="#2F2E41"/>
<path opacity="0.2" d="M240.242 205.114L237.576 265.104C237.576 265.104 244.508 321.88 242.908 323.487C241.309 325.094 237.042 328.307 240.242 332.057C243.442 335.806 255.174 338.484 255.707 336.342C256.24 334.199 257.307 273.138 257.307 273.138L261.04 200.829L240.242 205.114Z" fill="black"/>
<path d="M242.908 330.985C242.908 330.985 229.576 341.162 227.976 341.162C226.377 341.162 211.978 345.983 222.11 348.125C232.243 350.268 256.773 349.197 257.307 345.983C257.84 342.769 255.707 333.016 255.707 333.016L242.908 330.985Z" fill="#2F2E41"/>
<path opacity="0.2" d="M242.908 330.985C242.908 330.985 229.576 341.162 227.976 341.162C226.377 341.162 211.978 345.983 222.11 348.125C232.243 350.268 256.773 349.197 257.307 345.983C257.84 342.769 255.707 333.016 255.707 333.016L242.908 330.985Z" fill="black"/>
<path d="M209.845 160.122C209.845 160.122 203.979 162.265 203.979 163.871C203.979 165.478 198.646 185.832 197.58 186.903C196.513 187.974 195.98 192.795 195.98 192.795C195.98 192.795 190.647 205.114 191.714 205.114C192.78 205.114 201.846 202.972 202.379 205.114C202.913 207.257 207.179 191.724 207.179 191.724L216.245 173.513L209.845 160.122Z" fill="#0038FF"/>
<path d="M191.713 207.257C191.713 207.257 193.313 219.04 197.579 220.112C201.846 221.183 197.579 205.114 197.579 205.114L191.713 207.257Z" fill="#FFB8B8"/>
<path d="M205.579 153.694C205.579 153.694 208.778 160.657 210.378 164.406C211.978 168.156 226.91 154.765 226.91 154.765C226.91 154.765 218.911 148.873 218.911 146.195C218.911 143.517 205.579 153.694 205.579 153.694Z" fill="#FFB8B8"/>
<path d="M51.7489 327.801C55.3253 341.08 67.5751 349.303 67.5751 349.303C67.5751 349.303 74.0265 335.998 70.4501 322.72C66.8738 309.441 54.624 301.218 54.624 301.218C54.624 301.218 48.1726 314.523 51.7489 327.801Z" fill="#3F3D56"/>
<path d="M57.0043 324.948C66.8179 334.543 68.0165 349.293 68.0165 349.293C68.0165 349.293 53.3043 348.486 43.4907 338.891C33.6772 329.296 32.4785 314.546 32.4785 314.546C32.4785 314.546 47.1908 315.353 57.0043 324.948Z" fill="#0038FF"/>
<path d="M178.915 349.732C169.317 349.732 159.935 346.873 151.954 341.518C143.974 336.162 137.754 328.549 134.081 319.643C130.408 310.737 129.447 300.936 131.319 291.481C133.192 282.026 137.814 273.341 144.6 266.525C151.387 259.708 160.034 255.066 169.448 253.185C178.861 251.304 188.619 252.27 197.486 255.959C206.353 259.648 213.933 265.895 219.265 273.911C224.597 281.926 227.443 291.35 227.443 300.99C227.429 313.913 222.311 326.302 213.214 335.44C204.116 344.577 191.781 349.717 178.915 349.732ZM178.915 253.32C169.528 253.32 160.352 256.116 152.547 261.354C144.742 266.592 138.658 274.037 135.066 282.748C131.474 291.458 130.534 301.043 132.365 310.29C134.197 319.537 138.717 328.032 145.355 334.698C151.992 341.365 160.449 345.905 169.656 347.745C178.862 349.584 188.405 348.64 197.078 345.032C205.75 341.424 213.163 335.314 218.378 327.475C223.593 319.635 226.377 310.419 226.377 300.99C226.363 288.352 221.358 276.235 212.46 267.298C203.562 258.361 191.498 253.334 178.915 253.32Z" fill="#2F2E41"/>
<path d="M328.233 349.732C318.635 349.732 309.253 346.873 301.272 341.518C293.292 336.162 287.072 328.549 283.399 319.643C279.726 310.737 278.765 300.936 280.637 291.481C282.51 282.026 287.131 273.341 293.918 266.525C300.705 259.708 309.352 255.066 318.766 253.185C328.179 251.304 337.937 252.27 346.804 255.959C355.671 259.648 363.25 265.895 368.583 273.911C373.915 281.926 376.761 291.35 376.761 300.99C376.747 313.913 371.629 326.302 362.532 335.44C353.434 344.577 341.099 349.717 328.233 349.732ZM328.233 253.32C318.846 253.32 309.67 256.116 301.865 261.354C294.06 266.592 287.976 274.037 284.384 282.748C280.792 291.458 279.852 301.043 281.683 310.29C283.514 319.537 288.035 328.032 294.672 334.698C301.31 341.365 309.767 345.905 318.974 347.745C328.18 349.584 337.723 348.64 346.396 345.032C355.068 341.424 362.481 335.314 367.696 327.475C372.911 319.635 375.695 310.419 375.695 300.99C375.681 288.352 370.676 276.235 361.778 267.298C352.88 258.361 340.816 253.334 328.233 253.32Z" fill="#2F2E41"/>
<path d="M178.915 304.204C180.682 304.204 182.115 302.766 182.115 300.991C182.115 299.216 180.682 297.777 178.915 297.777C177.148 297.777 175.715 299.216 175.715 300.991C175.715 302.766 177.148 304.204 178.915 304.204Z" fill="#2F2E41"/>
<path d="M329.3 304.204C331.067 304.204 332.499 302.766 332.499 300.991C332.499 299.216 331.067 297.777 329.3 297.777C327.532 297.777 326.1 299.216 326.1 300.991C326.1 302.766 327.532 304.204 329.3 304.204Z" fill="#2F2E41"/>
<path d="M183.672 296.38L182.69 295.959L210.562 230.281L289.599 231.9L289.752 232.142L328.682 293.203L327.784 293.78L289.007 232.96L211.261 231.366L183.672 296.38Z" fill="#2F2E41"/>
<path d="M266.706 308.588L287.191 236.034L288.217 236.326L268.173 307.32L321.767 300.459L321.901 301.522L266.706 308.588Z" fill="#2F2E41"/>
<path d="M208.626 246.517L207.865 247.268L262.792 303.508L263.554 302.758L208.626 246.517Z" fill="#2F2E41"/>
<path d="M292.519 218.898L289.325 230.684L290.354 230.965L293.548 219.18L292.519 218.898Z" fill="#2F2E41"/>
<path d="M212.499 227.193L211.458 226.956L213.976 215.826H205.045V208.863H206.112V214.755H215.313L212.499 227.193Z" fill="#2F2E41"/>
<path d="M273.305 208.327C273.305 208.327 273.305 205.114 280.238 206.72C287.17 208.327 308.502 212.612 310.101 212.077C311.701 211.541 311.168 215.29 304.235 216.897C297.303 218.504 289.304 214.755 287.704 213.684C286.104 212.612 273.305 208.327 273.305 208.327Z" fill="#2F2E41"/>
<path d="M254.107 304.204H240.242V309.56H254.107V304.204Z" fill="#0038FF"/>
<path d="M267.439 318.666C265.33 318.666 263.267 318.038 261.514 316.861C259.76 315.684 258.393 314.011 257.585 312.053C256.778 310.096 256.567 307.942 256.978 305.864C257.39 303.786 258.406 301.877 259.897 300.379C261.389 298.881 263.289 297.86 265.358 297.447C267.427 297.034 269.572 297.246 271.521 298.057C273.469 298.867 275.135 300.24 276.307 302.002C277.479 303.764 278.105 305.835 278.105 307.954C278.101 310.794 276.977 313.517 274.977 315.525C272.978 317.533 270.267 318.663 267.439 318.666ZM267.439 298.312C265.54 298.312 263.685 298.878 262.106 299.937C260.528 300.997 259.297 302.502 258.571 304.264C257.844 306.026 257.654 307.964 258.024 309.835C258.395 311.705 259.309 313.423 260.651 314.771C261.994 316.119 263.704 317.038 265.566 317.41C267.428 317.782 269.358 317.591 271.112 316.861C272.866 316.131 274.366 314.896 275.42 313.31C276.475 311.725 277.038 309.861 277.038 307.954C277.035 305.398 276.023 302.947 274.223 301.14C272.424 299.332 269.984 298.315 267.439 298.312Z" fill="#2F2E41"/>
<path d="M210.378 159.051C217.447 159.051 223.177 153.295 223.177 146.196C223.177 139.096 217.447 133.341 210.378 133.341C203.31 133.341 197.58 139.096 197.58 146.196C197.58 153.295 203.31 159.051 210.378 159.051Z" fill="#FFB8B8"/>
<path d="M250.907 206.185C250.907 206.185 214.111 227.61 214.644 234.573C215.178 241.536 242.908 279.566 242.908 279.566C242.908 279.566 245.041 290.814 247.174 290.814C249.307 290.814 262.639 295.634 263.173 292.421C263.706 289.207 258.907 285.458 259.44 283.315C259.973 281.173 235.976 242.072 235.976 242.072C235.976 242.072 287.334 222.79 276.587 206.185C265.839 189.581 250.907 206.185 250.907 206.185Z" fill="#2F2E41"/>
<path d="M251.974 288.671C251.974 288.671 245.575 290.278 244.508 292.42C243.441 294.563 224.777 301.526 230.109 303.133C235.442 304.74 266.372 305.275 267.439 304.204C268.506 303.133 267.439 290.7 263.173 290.756C258.907 290.813 254.107 292.42 251.974 288.671Z" fill="#2F2E41"/>
<path d="M210.378 166.013L222.377 151.284C222.377 151.284 235.975 147.266 241.842 155.301C247.708 163.335 263.706 183.153 269.039 187.438C274.372 191.723 281.837 208.327 279.171 208.863C276.505 209.399 261.573 202.971 255.707 207.256C249.841 211.541 238.642 212.077 238.109 209.934C237.575 207.792 205.579 171.905 205.579 167.084C205.579 162.264 208.988 161.229 208.988 161.229L210.378 166.013Z" fill="#0038FF"/>
<path d="M216.823 208.598L200.734 202.885C199.901 202.589 198.987 203.028 198.692 203.865C198.398 204.701 198.834 205.619 199.667 205.915L215.756 211.628C216.589 211.924 217.503 211.486 217.798 210.649C218.093 209.812 217.656 208.894 216.823 208.598Z" fill="#2F2E41"/>
<path d="M180.515 201.9C180.515 201.9 161.85 207.257 163.45 213.148C165.05 219.04 182.115 206.185 182.115 206.185L180.515 201.9Z" fill="#FFB8B8"/>
<path d="M229.043 155.301C229.043 155.301 221.577 161.729 219.977 169.227C218.378 176.726 210.378 190.117 210.378 190.117L177.848 200.829C177.848 200.829 175.715 211.006 178.915 211.006C182.115 211.006 217.844 203.507 218.911 201.9C219.977 200.294 242.908 169.763 242.908 169.763C242.908 169.763 245.041 153.159 229.043 155.301Z" fill="#0038FF"/>
<path d="M202.429 131.317C202.114 131.59 201.736 131.78 201.33 131.871C201.126 131.907 200.916 131.861 200.746 131.743C200.575 131.624 200.459 131.443 200.421 131.238C200.186 131.894 199.749 132.456 199.174 132.845C198.563 133.165 197.619 132.897 197.531 132.211C197.442 132.732 197.212 133.218 196.867 133.617C196.688 133.808 196.44 133.92 196.179 133.929C195.917 133.938 195.663 133.843 195.471 133.664C195.738 135.132 195.573 136.642 195.657 138.131C195.741 139.621 196.137 141.201 197.257 142.18C198.892 143.609 201.349 143.257 203.499 142.986C203.825 142.917 204.162 142.936 204.478 143.04C205.283 143.384 205.246 144.51 205.257 145.389C205.323 146.93 205.93 148.399 206.972 149.534C208.014 150.668 209.422 151.396 210.947 151.586C211.8 151.718 212.671 151.505 213.367 150.993C213.978 150.473 214.29 149.626 214.989 149.236C216.127 148.601 217.507 149.527 218.339 150.532C219.171 151.538 219.991 152.775 221.279 152.959C222.984 153.202 224.282 151.458 224.919 149.851C225.797 147.6 226.218 145.194 226.157 142.777C226.095 140.359 225.552 137.979 224.56 135.775C221.001 127.983 208.845 126.751 202.429 131.317Z" fill="#2F2E41"/>
<path d="M427.63 349.71L426.682 349.219C438.991 325.317 432.409 294.277 424.72 272.447C419.499 257.773 412.84 243.658 404.841 230.307L405.742 229.734C413.783 243.153 420.477 257.341 425.725 272.089C433.485 294.119 440.113 325.469 427.63 349.71Z" fill="#2F2E41"/>
<path d="M436.759 229.926L429.84 267.958L430.888 268.15L437.807 230.119L436.759 229.926Z" fill="#2F2E41"/>
<path d="M390.75 262.329L389.969 263.059L425.699 301.624L426.48 300.894L390.75 262.329Z" fill="#2F2E41"/>
<path d="M454.983 304.691L436.86 329.871L437.725 330.499L455.848 305.318L454.983 304.691Z" fill="#2F2E41"/>
<path d="M439.955 219.843C442.9 219.843 445.287 217.445 445.287 214.487C445.287 211.529 442.9 209.131 439.955 209.131C437.009 209.131 434.622 211.529 434.622 214.487C434.622 217.445 437.009 219.843 439.955 219.843Z" fill="#0038FF"/>
<path d="M381.827 261.086C384.773 261.086 387.16 258.688 387.16 255.73C387.16 252.772 384.773 250.374 381.827 250.374C378.882 250.374 376.495 252.772 376.495 255.73C376.495 258.688 378.882 261.086 381.827 261.086Z" fill="#3F3D56"/>
<path d="M405.292 266.443C408.237 266.443 410.624 264.045 410.624 261.087C410.624 258.129 408.237 255.73 405.292 255.73C402.346 255.73 399.959 258.129 399.959 261.087C399.959 264.045 402.346 266.443 405.292 266.443Z" fill="#3F3D56"/>
<path d="M394.626 287.332C397.571 287.332 399.959 284.934 399.959 281.976C399.959 279.018 397.571 276.62 394.626 276.62C391.681 276.62 389.293 279.018 389.293 281.976C389.293 284.934 391.681 287.332 394.626 287.332Z" fill="#0038FF"/>
<path d="M461.286 300.723C464.231 300.723 466.619 298.325 466.619 295.366C466.619 292.408 464.231 290.01 461.286 290.01C458.341 290.01 455.953 292.408 455.953 295.366C455.953 298.325 458.341 300.723 461.286 300.723Z" fill="#3F3D56"/>
<path d="M443.688 306.614C446.633 306.614 449.021 304.216 449.021 301.258C449.021 298.3 446.633 295.902 443.688 295.902C440.743 295.902 438.355 298.3 438.355 301.258C438.355 304.216 440.743 306.614 443.688 306.614Z" fill="#3F3D56"/>
<path d="M455.953 323.754C458.898 323.754 461.286 321.356 461.286 318.398C461.286 315.44 458.898 313.042 455.953 313.042C453.008 313.042 450.62 315.44 450.62 318.398C450.62 321.356 453.008 323.754 455.953 323.754Z" fill="#3F3D56"/>
<path d="M399.959 226.271C402.904 226.271 405.292 223.873 405.292 220.915C405.292 217.957 402.904 215.559 399.959 215.559C397.014 215.559 394.626 217.957 394.626 220.915C394.626 223.873 397.014 226.271 399.959 226.271Z" fill="#3F3D56"/>
<path d="M481.55 348.929H0V350H481.55V348.929Z" fill="#2F2E41"/>
<path d="M82.6239 238.016L37.3643 211.771L11.2336 257.229L56.4932 283.475L82.6239 238.016Z" fill="#F2F2F2"/>
<path d="M57.5939 292.615C55.2735 292.615 53.0053 291.924 51.0759 290.629C49.1466 289.334 47.6429 287.494 46.7549 285.34C45.8669 283.187 45.6346 280.818 46.0873 278.532C46.5399 276.246 47.6573 274.147 49.2981 272.499C50.9388 270.851 53.0293 269.728 55.3051 269.274C57.5809 268.819 59.9399 269.052 62.0836 269.944C64.2274 270.836 66.0597 272.347 67.3489 274.284C68.638 276.222 69.3261 278.5 69.3261 280.831C69.3226 283.955 68.0854 286.95 65.8859 289.159C63.6865 291.369 60.7044 292.611 57.5939 292.615ZM57.5939 270.119C55.4845 270.119 53.4224 270.747 51.6685 271.924C49.9145 273.101 48.5475 274.774 47.7402 276.732C46.933 278.689 46.7218 280.843 47.1333 282.921C47.5448 284.999 48.5606 286.908 50.0522 288.406C51.5439 289.904 53.4443 290.924 55.5132 291.338C57.5821 291.751 59.7266 291.539 61.6755 290.728C63.6244 289.917 65.2901 288.544 66.462 286.783C67.634 285.021 68.2595 282.95 68.2595 280.831C68.2564 277.991 67.1317 275.268 65.1322 273.26C63.1327 271.251 60.4217 270.122 57.5939 270.119Z" fill="#3F3D56"/>
</g>
<defs>
<clipPath id="clip0">
<rect width="500" height="350" fill="white"/>
</clipPath>
</defs>
</svg>
